<?xml version="1.0" encoding="UTF-8" standalone="no"?>
<!DOCTYPE svg PUBLIC "-//W3C//DTD SVG 1.1//EN" "http://www.w3.org/Graphics/SVG/1.1/DTD/svg11.dtd">
<svg version="1.1" xmlns="http://www.w3.org/2000/svg" xmlns:xlink="http://www.w3.org/1999/xlink" preserveAspectRatio="xMidYMid meet" viewBox="0 0 640 640" width="640" height="640"><defs><path d="M327.57 172.18L303 187.03L303 221.48L347.38 245.31L347.38 294.6L513.23 390.34L536.63 376.21L565.2 393.47L565.2 427.99L536.63 445.26L508.06 427.99L508.06 396.6L341.34 300.34L303 320.93L303 423.03L327.74 437.98L327.74 472.5L299.17 489.76L270.6 472.5L270.6 437.98L295 423.23L295 320.75L259.72 301.81L222.94 322.99L222.94 353.23L194.37 370.49L165.79 353.23L165.79 318.71L194.37 301.45L218.85 316.24L251.53 297.41L250.95 297.1L250.95 251.89L174.94 208L148.51 223.97L119.94 206.71L119.94 172.18L148.51 154.92L177.08 172.18L177.08 200L253.34 244.03L295 221.66L295 187.03L270.43 172.18L270.43 137.66L299 120.4L327.57 137.66L327.57 172.18Z" id="asC3Y1pQP"></path><path d="M338.5 298.71L342.95 291.01L477.18 368.51L472.74 376.21L338.5 298.71Z" id="a42sEmbjmr"></path></defs><g><g><g><g><filter id="shadow4291006" x="89.94" y="90.4" width="518.26" height="434.37" filterUnits="userSpaceOnUse" primitiveUnits="userSpaceOnUse"><feFlood></feFlood><feComposite in2="SourceAlpha" operator="in"></feComposite><feGaussianBlur stdDeviation="2.24"></feGaussianBlur><feOffset dx="13" dy="5" result="afterOffset"></feOffset><feFlood flood-color="#052f48" flood-opacity="0.5"></feFlood><feComposite in2="afterOffset" operator="in"></feComposite><feMorphology operator="dilate" radius="2"></feMorphology><feComposite in2="SourceAlpha" operator="out"></feComposite></filter><path d="M327.57 172.18L303 187.03L303 221.48L347.38 245.31L347.38 294.6L513.23 390.34L536.63 376.21L565.2 393.47L565.2 427.99L536.63 445.26L508.06 427.99L508.06 396.6L341.34 300.34L303 320.93L303 423.03L327.74 437.98L327.74 472.5L299.17 489.76L270.6 472.5L270.6 437.98L295 423.23L295 320.75L259.72 301.81L222.94 322.99L222.94 353.23L194.37 370.49L165.79 353.23L165.79 318.71L194.37 301.45L218.85 316.24L251.53 297.41L250.95 297.1L250.95 251.89L174.94 208L148.51 223.97L119.94 206.71L119.94 172.18L148.51 154.92L177.08 172.18L177.08 200L253.34 244.03L295 221.66L295 187.03L270.43 172.18L270.43 137.66L299 120.4L327.57 137.66L327.57 172.18Z" id="e2ACk9ji9d" fill="white" fill-opacity="1" filter="url(#shadow4291006)"></path></g><use xlink:href="#asC3Y1pQP" opacity="1" fill="#1e3fc5" fill-opacity="1"></use><g></g></g><g><use xlink:href="#a42sEmbjmr" opacity="1" fill="#1e3fc5" fill-opacity="1"></use></g></g></g></svg>