<?xml version="1.0" encoding="UTF-8" standalone="no"?>
<!DOCTYPE svg PUBLIC "-//W3C//DTD SVG 1.1//EN" "http://www.w3.org/Graphics/SVG/1.1/DTD/svg11.dtd">
<svg version="1.1" xmlns="http://www.w3.org/2000/svg" xmlns:xlink="http://www.w3.org/1999/xlink" preserveAspectRatio="xMidYMid meet" viewBox="0 0 640 640" width="640" height="640"><defs><path d="M299.17 219.42L250.95 245.31L250.95 297.1L299.17 322.99L347.38 297.1L347.38 245.31L299.17 219.42Z" id="ee3w0PqCn"></path><path d="M299 120.4L270.43 137.66L270.43 172.18L299 189.44L327.57 172.18L327.57 137.66L299 120.4Z" id="b1o9L1nyay"></path><path d="M536.63 376.21L508.06 393.47L508.06 427.99L536.63 445.26L565.2 427.99L565.2 393.47L536.63 376.21Z" id="d9jd7zPMTQ"></path><path d="M299.17 420.71L270.6 437.98L270.6 472.5L299.17 489.76L327.74 472.5L327.74 437.98L299.17 420.71Z" id="ir1jHflWo"></path><path d="M194.37 301.45L165.79 318.71L165.79 353.23L194.37 370.49L222.94 353.23L222.94 318.71L194.37 301.45Z" id="a2oDYFrPpk"></path><path d="M148.51 154.92L119.94 172.18L119.94 206.71L148.51 223.97L177.08 206.71L177.08 172.18L148.51 154.92Z" id="i1Lwy3SXXJ"></path><path d="M295 159.68L303 159.68L303 227.11L295 227.11L295 159.68Z" id="k1Jn3XO1FE"></path><path d="M295 311.83L303 311.83L303 467.26L295 467.26L295 311.83Z" id="a3mTpZGiLn"></path><path d="M338.5 298.71L342.5 291.78L518.82 393.57L514.82 400.5L338.5 298.71Z" id="djKqTSKY3"></path><path d="M160.49 199.66L164.49 192.73L285.38 262.53L281.38 269.45L160.49 199.66Z" id="a3QLgFkMAN"></path><path d="M181.03 347.13L177.08 340.29L267.74 288.07L271.69 294.91L181.03 347.13Z" id="ggbJp7uCJ"></path></defs><g><g><g><use xlink:href="#ee3w0PqCn" opacity="1" fill="#1e3fc5" fill-opacity="1"></use></g><g><use xlink:href="#b1o9L1nyay" opacity="1" fill="#1e3fc5" fill-opacity="1"></use></g><g><use xlink:href="#d9jd7zPMTQ" opacity="1" fill="#1e3fc5" fill-opacity="1"></use></g><g><use xlink:href="#ir1jHflWo" opacity="1" fill="#1e3fc5" fill-opacity="1"></use></g><g><use xlink:href="#a2oDYFrPpk" opacity="1" fill="#1e3fc5" fill-opacity="1"></use></g><g><use xlink:href="#i1Lwy3SXXJ" opacity="1" fill="#1e3fc5" fill-opacity="1"></use></g><g><use xlink:href="#k1Jn3XO1FE" opacity="1" fill="#1e3fc5" fill-opacity="1"></use></g><g><use xlink:href="#a3mTpZGiLn" opacity="1" fill="#1e3fc5" fill-opacity="1"></use></g><g><use xlink:href="#djKqTSKY3" opacity="1" fill="#1e3fc5" fill-opacity="1"></use></g><g><use xlink:href="#a3QLgFkMAN" opacity="1" fill="#1e3fc5" fill-opacity="1"></use></g><g><use xlink:href="#ggbJp7uCJ" opacity="1" fill="#1e3fc5" fill-opacity="1"></use></g></g></g></svg>