<svg xmlns="http://www.w3.org/2000/svg" version="1.1" xmlns:xlink="http://www.w3.org/1999/xlink" xmlns:svgjs="http://svgjs.com/svgjs" width="1440" height="560" preserveAspectRatio="none" viewBox="0 0 1440 560"><g mask="url(&quot;#SvgjsMask1120&quot;)" fill="none"><circle r="6.765" cx="690.275" cy="275.735" filter="url(#SvgjsFilter1121)" fill="rgba(56, 128, 255, 0.7)"></circle><circle r="9.31" cx="720.0699999999999" cy="11.790000000000001" filter="url(#SvgjsFilter1121)" fill="rgba(56, 128, 255, 0.7)"></circle><circle r="8.625" cx="1190.465" cy="538.835" filter="url(#SvgjsFilter1121)" fill="rgba(56, 128, 255, 0.7)"></circle><circle r="9.15" cx="1176.97" cy="119.36" filter="url(#SvgjsFilter1121)" fill="rgba(56, 128, 255, 0.7)"></circle><circle r="5.32" cx="302.82" cy="548.7700000000001" filter="url(#SvgjsFilter1121)" fill="rgba(56, 128, 255, 0.7)"></circle><circle r="6.26" cx="1283.76" cy="136.64" filter="url(#SvgjsFilter1121)" fill="rgba(56, 128, 255, 0.7)"></circle><circle r="6.495" cx="136.625" cy="264.395" filter="url(#SvgjsFilter1121)" fill="rgba(56, 128, 255, 0.7)"></circle><circle r="9.27" cx="1163.49" cy="296.04999999999995" filter="url(#SvgjsFilter1121)" fill="rgba(56, 128, 255, 0.7)"></circle><circle r="7.13" cx="104.66" cy="296.89" filter="url(#SvgjsFilter1121)" fill="rgba(56, 128, 255, 0.7)"></circle><circle r="8.865" cx="1107.785" cy="226.155" filter="url(#SvgjsFilter1121)" fill="rgba(56, 128, 255, 0.7)"></circle><circle r="6.645" cx="60.275000000000006" cy="334.22499999999997" filter="url(#SvgjsFilter1121)" fill="rgba(56, 128, 255, 0.7)"></circle><circle r="7.615" cx="1386.225" cy="533.3050000000001" filter="url(#SvgjsFilter1121)" fill="rgba(56, 128, 255, 0.7)"></circle><circle r="7.395" cx="718.965" cy="426.66499999999996" filter="url(#SvgjsFilter1121)" fill="rgba(56, 128, 255, 0.7)"></circle><circle r="7.955" cx="681.815" cy="69.305" filter="url(#SvgjsFilter1121)" fill="rgba(56, 128, 255, 0.7)"></circle><circle r="7.645" cx="954.415" cy="256.485" filter="url(#SvgjsFilter1121)" fill="rgba(56, 128, 255, 0.7)"></circle><circle r="8.355" cx="1073.435" cy="224.945" filter="url(#SvgjsFilter1121)" fill="rgba(56, 128, 255, 0.7)"></circle><circle r="8.03" cx="750.9" cy="37.93" filter="url(#SvgjsFilter1121)" fill="rgba(56, 128, 255, 0.7)"></circle><circle r="7.215" cx="1006.075" cy="277.59499999999997" filter="url(#SvgjsFilter1121)" fill="rgba(56, 128, 255, 0.7)"></circle><circle r="5.155" cx="304.965" cy="563.605" filter="url(#SvgjsFilter1121)" fill="rgba(56, 128, 255, 0.7)"></circle><circle r="7.51" cx="1292.87" cy="159.25" filter="url(#SvgjsFilter1121)" fill="rgba(56, 128, 255, 0.7)"></circle><path d="M1399.8 178.5L1394.3 167.2 1402.7 167.5C1403.6 167.6 1404.6 166.8 1404.9 165.6 1404.7 164.4 1403.9 163.5 1403 163.3L1391.9 162.7 1386.9 152.2 1409.4 153.7C1410.8 153.6 1411.8 152.9 1411.6 151.8 1411.9 150.5 1411.2 149.5 1409.7 149.6L1384.9 148 1380 138.6 1393.4 118.3 1402.8 118.6 1414.3 142.5C1414.7 142.8 1415 143 1415.3 143.2 1415.7 143.4 1416.6 143.5 1417.1 143.4 1418.4 142.8 1418.8 141.6 1418 140.6L1407.4 118.8 1418.9 119.7 1424.6 130.6C1424.4 130.9 1424.7 131.2 1425 131.4 1425.7 131.8 1426.6 131.9 1427.4 131.5 1428.1 131 1428.5 129.8 1428.2 128.7L1423.5 119.8 1437.8 120.6C1438.7 120.8 1439.7 120 1440 118.8 1439.8 117.6 1439 116.6 1438.1 116.5L1424.7 115.8 1429.3 108.8C1430 107.8 1429.4 106.5 1428.8 106.1 1427.8 105.4 1426.3 105.4 1425.7 106.4L1419.7 115.4 1408.3 114.6 1420.6 95.9C1421.3 94.9 1421 93.8 1420 93.1 1419 92.5 1417.9 92.7 1417.3 93.7L1403.6 114.4 1393.7 114.1 1382.9 92.1 1387.9 84.4 1413.3 85.8C1414.6 86.2 1415.8 85.1 1415.5 83.9 1415.9 82.7 1414.9 82.1 1413.6 81.7L1390.6 80.4 1396.9 70.7 1408.4 71.6C1409.3 71.7 1410.5 70.6 1410.6 69.7S1409.6 67.6 1408.3 67.2L1399.6 66.7 1407.3 55C1407.9 54 1407.4 52.7 1406.4 52.1 1405.7 51.6 1404.3 51.6 1403.6 52.6L1395.9 64.3 1391.6 56.2C1391.2 55.5 1390.2 54.8 1388.9 55.4 1388.1 55.8 1387.5 57.4 1388 58.2L1393.3 68.3 1386.9 78 1376.5 57.3C1375.8 56.3 1374.8 55.7 1373.4 56.2 1372.7 56.7 1372.1 58.2 1372.6 59L1384.2 82 1379.2 89.7 1354.7 88.4 1350.5 79.5 1364.1 58.7C1364.8 57.7 1364.6 56.6 1363.6 56 1362.6 55.3 1361.1 55.3 1360.5 56.3L1348.1 75 1342.9 64.9 1348.8 55.8C1349.5 54.8 1349.2 53.7 1348.2 53.1 1347.2 52.4 1346.1 52.6 1345.5 53.6L1340.8 60.7 1334.9 48.6C1334.4 47.8 1332.9 47.3 1332.1 47.7 1331.1 48.5 1330.5 49.5 1331.2 50.5L1337.3 63.1 1327.7 62.5C1326.5 62.7 1325.6 63.5 1325.4 64.4 1325.3 65.3 1325.8 66.1 1326.5 66.5 1326.5 66.5 1326.8 66.7 1327.3 66.6L1339.7 67.5 1344.9 77.7 1320.7 76.6C1319.5 76.3 1318.5 77.1 1318.5 78.5 1318.7 79.1 1318.8 79.6 1319.4 80.1 1319.8 80.3 1320.1 80.5 1320.4 80.7L1347 81.9 1351 90.3 1337.6 110.7 1327 110 1315.8 87.8C1315.3 86.4 1314 86.1 1313 86.9 1311.9 87.1 1311.6 88.3 1312.2 89.7L1322.4 109.8 1310.7 109.3 1305.8 99.4C1305.3 98.6 1304.1 98.3 1303 98.5 1302 99.3 1301.4 100.3 1302.1 101.3L1305.7 108.9 1293.2 108.3C1292 108 1291.3 109 1291 110.2 1291.1 110.8 1291.6 111.5 1292.2 112 1292.2 112 1292.6 112.2 1292.9 112.4L1306.3 113.1 1300.8 121.5C1300.4 122.1 1300.4 123.6 1301.4 124.2 1302.4 124.9 1303.7 124.3 1304.2 123.7L1311 113.3 1322.6 113.8 1309.2 134.2C1308.6 135.2 1309.1 136.5 1310.1 137.2S1312.2 137.6 1312.9 136.6L1327.6 114.2 1337.3 114.8 1348.2 136.8 1342.5 145.5 1316.7 143.9C1315.6 144.1 1314.6 144.9 1314.3 146.1 1314.4 146.7 1314.8 147.5 1315.5 147.9 1315.8 148.1 1316.2 148.3 1316.7 148.2L1339.8 149.5 1333.4 159.2 1321.8 158.7C1320.9 158.6 1319.9 159.4 1319.6 160.6 1319.8 161.7 1320.6 162.7 1321.5 162.8L1330.8 163.2 1323.8 173.9C1323.3 174.6 1323.7 176.2 1324.3 176.7 1325.3 177.3 1327 177 1327.4 176.3L1334.5 165.6 1338.2 173.8C1338.5 174 1338.9 174.3 1339.2 174.5 1339.9 174.9 1340.7 175 1341.3 174.9 1342.3 174.1 1342.6 172.9 1342.4 171.8L1337.1 161.6 1343.5 151.9 1353.8 172.6C1354.4 174 1355.6 174.3 1356.4 173.8 1357.7 173.3 1358 172 1357.8 170.9L1346.1 147.9 1351.9 139.2 1376.4 140.5 1380.8 149.2 1366 171.6C1365.4 172.6 1365.6 173.7 1366.6 174.3 1367.6 175 1368.7 174.8 1369.4 173.8L1382.8 153.4 1387.8 163.9 1381 174.2C1380.6 174.9 1380.9 176.6 1381.9 177.2 1382.9 177.9 1384.3 177.3 1384.7 176.7L1390.2 168.3 1396.1 180.4C1396.5 180.6 1396.5 180.6 1396.8 180.8 1397.5 181.2 1398.4 181.3 1398.9 181.2 1399.9 180.5 1400.2 179.2 1399.8 178.5ZM1354.5 135.2L1351.8 134.9 1350.8 132.8 1341.9 115 1340.9 112.9 1342.3 110.9 1353 94.5 1354.3 92.5 1356.7 92.6 1376.5 93.7 1378.9 93.8 1380.2 96.1 1388.8 113.7 1390.1 116.1 1388.8 118.1 1378 134.4 1376.7 136.4 1374 136.1 1354.5 135.2Z" fill="rgba(56, 128, 255, 0.7)"></path><path d="M110.2 472.4L153.4 441.5 200 449.5 169.7 485.9 116.8 490.4C116.8 490.4 116.2 490.6 116.2 490.6 115 491.1 114.3 492.7 114.1 494.1 114.2 496.2 116 497.5 117.8 496.9L164.1 492.8 149.4 510.5 129.1 512.5C129.1 512.5 128.5 512.7 128.5 512.7 127.3 513.2 126.5 514.8 126.3 516.2 126.4 518.3 128.3 519.6 130.1 519L144 517.9 133.1 530.8C132.1 531.9 132.4 534.5 133.4 535.5 134.7 537 137.1 536.1 138.1 535.1L149 522.2 150.1 536.1C150.1 538.2 152 539.5 153.8 538.9 155.8 538.8 157.2 536.9 156.5 535.1L154.4 514.8 169.3 497.7 173.4 543.9C173.4 545.9 175.3 547.3 177.1 546.6 179.1 546.6 180.5 544.7 179.8 542.9L175.3 490 205.6 453.6 222.2 498.7 199.8 547.1C199 548.8 199.7 550.6 201.4 551.3 203 552.1 204.8 551.4 205.6 549.8L225.3 507.1 233.2 528.7 224.9 546.8C224.1 548.4 224.8 550.2 226.4 551 228.1 551.7 229.9 551.1 230.7 549.4L236.3 537.1 242.5 553.9C242.6 555.9 244.8 556.5 246.6 555.8 248.4 555.1 249.2 553.5 248.5 551.7L242.8 536.1 255.1 541.8C256.8 542.5 258.6 541.9 259.3 540.2S259.4 536.8 257.8 536L239.7 527.7 231.7 506.1 274.5 525.8C276.1 526.5 277.9 525.9 278.7 524.2 279.4 522.6 278.8 520.8 277.1 520L228.6 497.6 212.2 453.2 258.9 461.3 288.7 503.5C290 505 292 505 293.8 504.3 295.4 503 295.3 501 294.7 499.2L267.8 461.4 290.4 465.3 302 482.2C303.3 483.8 305.3 483.7 307.1 483 308.7 481.8 308.7 479.7 308.2 478.5L300 467.3 316.6 470C318.1 470.1 320.5 469.3 320.4 467.2 320.3 465.2 319.7 463.4 317.7 463.5L301 460.8 312.3 452.5C313.8 451.2 313.8 449.2 313.3 448 312.3 447 310.6 446.3 309.4 446.7 309.4 446.7 308.8 446.9 308.8 446.9L292 458.6 269.4 454.7 307.2 427.8C308.8 426.5 308.7 424.5 308.3 423.3 307.3 422.3 305.6 421.5 304.4 422 304.4 422 303.8 422.2 303.8 422.2L260.6 453.1 214 445.1 244.3 408.7 297.2 404.2C299.2 404.1 300.6 402.2 299.9 400.4 299.8 398.4 298 397.1 296.2 397.7L249.9 401.8 264.6 384.1 284.9 382.1C287 382 288.3 380.2 287.7 378.4 287.6 376.3 285.7 375 283.9 375.6L270 376.7 280.9 363.8C281.9 362.7 281.6 360.1 280.6 359.1 279.5 358.2 278.1 358 276.9 358.4 276.3 358.7 275.7 358.9 275.3 359.7L264.4 372.6 263.3 358.7C263.3 356.6 261.4 355.3 259.6 355.9 259.6 355.9 259 356.2 259 356.2 257.8 356.6 257.1 358.3 256.9 359.7L259 380.1 244.3 397.7 240.2 351.5C240.2 349.5 238.3 348.1 236.5 348.8 236.5 348.8 235.9 349 235.9 349 234.7 349.4 234 351.1 233.8 352.5L238.3 405.4 208 441.8 191.7 397.4 214 348.9C214.8 347.2 214.1 345.4 212.5 344.7 210.8 343.9 209 344.6 208.3 346.2L188.3 388.3 180.4 366.7 188.7 348.7C189.5 347 188.8 345.2 187.2 344.4S183.7 344.4 183 346L177.3 358.3 171.5 342.7C170.9 340.9 169.2 340.1 167.4 340.8 165.6 341.5 164.9 343.1 165.5 344.9L171.3 360.5 158.9 354.8C158.1 354.5 157.3 354.1 156.1 354.5S154.5 355.8 154.1 356.6C153.4 358.3 154.1 360.1 155.7 360.8L173.8 369.2 181.7 390.8 139 371.1C138.2 370.7 137.4 370.3 136.2 370.7 135.6 371 134.6 372 134.2 372.8 133.4 374.5 134.1 376.3 135.8 377L184.2 399.4 200.6 443.9 154 435.8 123.1 392.6C122 391.6 120.4 390.9 119.2 391.3 119.2 391.3 118.6 391.5 118.6 391.5 117 392.8 117.1 394.8 117.5 396L144.4 433.9 121.8 429.9 110.2 413.1C109.1 412.1 107.5 411.3 106.3 411.8 106.3 411.8 105.7 412 105.7 412 104.1 413.3 104.1 415.3 104.6 416.5L112.8 427.8 96.2 425.1C95.6 425.3 94.7 424.9 94.1 425.1 92.9 425.6 91.9 426.6 91.8 428 91.9 430 92.5 431.8 94.5 431.8L111.2 434.5 99.9 442.8C98.4 444 98.4 446 98.9 447.2 100.1 448.8 102.2 448.8 103.4 448.3L120.2 436.7 142.8 440.6 105 467.5C103.4 468.8 103.5 470.8 103.9 472 106.4 473.1 108.6 473.7 110.2 472.4Z" fill="rgba(56, 128, 255, 0.7)"></path><path d="M1393.9 338.1L1383.3 388 1367.4 397.8 1371.1 381C1371.9 379.3 1370.5 377.8 1368.8 376.9 1367.4 376.9 1365.4 378 1365.4 379.5L1359.9 402.6 1344.6 412.7 1344 394.4 1360.2 376.8C1360.2 376.8 1360.5 376.3 1360.5 376.3 1361.1 375.1 1360.6 373.4 1359.7 372.2 1358 371.4 1356.6 371.3 1355.1 372.8L1343.5 385.5 1342.9 367.2 1376.9 329.2C1376.9 329.2 1377.7 329 1377.7 329 1378.3 327.8 1377.8 326.1 1376.9 324.9 1375.5 323.5 1373.2 323.8 1372.4 325.5L1342.4 358.3 1341 335.9 1354.4 321.2C1354.4 321.2 1354.4 321.2 1354.7 320.7 1355.3 319.5 1355.3 318.1 1354.4 316.9 1352.7 316 1350.7 315.7 1349.3 317.1L1340.6 327.1 1339.6 310.7C1339.9 308.7 1338.2 307.8 1336.8 307.8 1334.8 307.5 1333.4 308.9 1333.6 311.2L1334 327.3 1324.9 318.3C1323.2 317.4 1321.2 317.1 1320.3 318.8 1318.9 320.2 1318.9 321.6 1320.3 323.1L1335 336.4 1335.9 358.5 1302.5 328.3C1301.6 327.1 1299.3 327.4 1297.9 328.8 1297.3 329.9 1297 331.9 1298.4 333.4L1336.3 367.4 1336.9 385.7 1324.2 374.1C1322.8 372.6 1321.1 373.2 1319.6 374.6 1318.5 375.4 1318.7 377.7 1319.6 378.9L1337.4 394.6 1338.6 413.2 1322.1 404.7 1314.9 382.3C1314.4 380.5 1312.7 379.6 1311 380.2 1309.5 380.2 1308.4 382.5 1308.9 384.2L1314.1 400.6 1297.6 392 1282.5 343.2C1282 341.5 1280.3 340.6 1278.6 341.1 1276.8 341.7 1275.9 343.4 1276.5 345.1L1289.7 387.9 1270.3 377.9 1264.3 359C1263.7 357.3 1262 356.4 1260.3 356.9 1258.6 357.5 1257.7 359.2 1258.3 360.9L1261.8 373.5 1247.6 366.2C1245.9 365.3 1244.2 365.9 1243.3 367.6 1242.4 369.3 1243 371 1244.7 371.9L1258.9 379.2 1246.8 383.1C1245.1 383.6 1244.2 385.3 1244.8 387.1S1247 389.7 1248.7 389.1L1266.8 383.3 1286.7 393.6 1244.5 407.1C1242.8 407.6 1241.9 409.4 1242.4 411.1 1243 412.8 1244.7 413.7 1246.4 413.1L1294.7 397.7 1311.2 406.2 1294.8 411.5C1293.1 412 1292.2 413.7 1292.8 415.5 1293.3 417.2 1295 418.1 1296.7 417.5L1319.2 410.4 1335.1 418.6 1320.1 428.1 1296.7 423.2C1295.2 423.2 1293.2 424.3 1293.2 425.8 1292.9 427.8 1293.7 428.9 1295.4 429.8L1312.3 433.5 1297.3 443 1247.3 432.3C1245.3 432 1244.2 432.9 1243.3 434.6 1243 436.6 1244.4 438 1245.5 438.6L1289.5 448.3 1270.4 460.1 1251.6 456.1C1249.9 455.3 1248.4 456.7 1247.5 458.4 1247.5 459.8 1248.6 461.8 1250.6 462.1L1262.9 464.9 1249.6 473.9C1247.9 474.4 1247.6 476.4 1248.7 478.4 1249.6 479.6 1251.6 479.9 1252.7 479L1266.6 470.4 1263.5 483.2C1263.2 485.2 1264.6 486.6 1266.1 486.7 1267.8 487.5 1268.9 486.7 1269.5 485.6 1269.8 485 1269.8 485 1270.1 484.4L1274.1 465.6 1293.1 453.8 1283.7 497.2C1282.8 498.9 1284.2 500.4 1285.9 501.2 1287.3 501.3 1288.5 500.4 1289.1 499.3 1289.4 498.7 1289.4 498.7 1289.4 498.7L1300.9 448.5 1315.9 438.9 1312.3 455.8C1312 457.8 1312.8 458.9 1314.5 459.8 1315.9 459.8 1317.7 459.3 1318.2 458.1 1318.5 457.6 1318.5 457.6 1318.8 457L1323.7 433.6 1338.7 424.1 1339.6 441.8 1324 459.7C1322.5 461.1 1322.8 463.4 1323.6 464.5 1325.3 465.4 1327.3 465.7 1328.2 464L1339.8 451.3 1341.3 469.3 1306.4 507.5C1305.3 508.4 1305.5 510.7 1306.4 511.8 1308.1 512.7 1310.1 513 1311.5 511.6L1341.5 478.8 1342.3 500.8 1329.2 515C1327.8 516.4 1328.1 518.7 1329.8 519.6 1330.6 520.7 1332.6 521 1334.1 519.6L1342.8 509.7 1343.7 526C1343.7 527.5 1345.1 528.9 1347.1 529.2 1348 528.9 1349.1 528.1 1349.7 527 1349.7 527 1350 526.4 1350.3 525.8L1349.4 509.5 1359.3 518.2C1360.1 519.4 1362.4 519.1 1363.6 518.3 1363.8 517.7 1363.8 517.7 1363.8 517.7 1364.7 516 1364.2 514.3 1363 513.7L1348.9 500.6 1347.5 478.3 1380.9 508.5C1382.6 509.4 1384 509.4 1385.4 508 1385.4 508 1385.7 507.4 1385.7 507.4 1386.3 506.3 1386.3 504.8 1384.9 503.4L1347.3 468.8 1346.4 451.1 1359.1 462.7C1360.8 463.6 1362.8 463.9 1363.7 462.2 1364.3 462.5 1364.6 461.9 1364.6 461.9 1365.2 460.8 1364.6 459 1363.8 457.9L1345.9 442.2 1345.3 423.9 1361.2 432.1 1368.4 454.5C1368.9 456.2 1371.2 457.4 1372.9 456.9 1374.1 456 1375 454.3 1375 452.9L1369.2 436.2 1385.7 444.7 1401.1 493C1401.6 494.7 1403.3 495.6 1405.1 495.1 1406.8 494.5 1407.7 492.8 1407.1 491.1L1393.7 448.8 1413.6 459.1 1419.3 477.2C1419.9 478.9 1421.6 479.8 1423.3 479.3S1425.9 477 1425.4 475.3L1421.5 463.2 1435.7 470.6C1437.4 471.4 1439.2 470.9 1440 469.2 1440.9 467.5 1440.4 465.7 1438.7 464.9L1424.5 457.5 1436.8 453.1C1437.7 452.8 1438.5 452.6 1438.8 452 1439.1 451.4 1439.1 450 1438.9 449.1 1438.3 447.4 1436.6 446.5 1434.9 447.1L1416.5 453.4 1396.6 443.1 1439.1 429.1C1440 428.8 1440.9 428.5 1441.2 428 1441.4 427.4 1441.5 426 1441.2 425.1 1440.6 423.4 1438.9 422.5 1437.2 423.1L1388.6 439 1372.1 430.5 1389.1 425.6C1390 425.3 1390.5 424.2 1390.8 423.6 1391.1 423 1391.4 422.5 1391.1 421.6 1390.6 419.9 1388.3 418.7 1387.2 419.5L1364.2 426.4 1348.3 418.2 1363.6 408.1 1386.7 413.5C1388.1 413.5 1389.8 413 1390.4 411.9 1390.7 411.3 1390.7 411.3 1390.1 411 1391 409.3 1389.9 407.3 1387.9 407L1371.1 403.3 1386.4 393.2 1436.6 404.7C1438 404.7 1439.2 403.9 1439.8 402.8 1440.1 402.2 1440.1 402.2 1440.1 402.2 1440.4 400.2 1439.8 398.5 1437.8 398.2L1393.9 388.4 1412.9 376.7 1431.7 380.6C1433.7 380.9 1434.9 380.1 1435.5 379 1435.5 379 1435.8 378.4 1435.8 378.4 1436.1 376.4 1434.7 374.9 1433.5 374.3L1420.4 371.9 1434.3 363.2C1434.6 362.6 1434.9 362.1 1435.1 361.5 1435.4 360.9 1435.5 359.5 1435.2 358.6 1433.8 357.2 1432.1 356.3 1430.6 357.7L1416.8 366.4 1419.8 353.6C1420.1 351.6 1418.7 350.1 1417.6 349.5 1415.6 349.2 1414.1 350.6 1413.2 352.3L1409.3 371.2 1390.8 383.2 1400.2 339.9C1400.5 337.9 1399.4 335.8 1398 335.8 1396 335.5 1394.3 336.1 1393.9 338.1Z" fill="rgba(56, 128, 255, 0.7)"></path><path d="M922.6 79.3L922.4 98.9 912 93.3C911 92.7 909.2 93 908.1 94.4 907.7 95.9 908 97.6 909.6 98L922.3 105.5 922.8 120.7 896.2 105.2C894.7 104.8 892.9 105.1 892.3 106.2 891.4 108 891.7 109.7 893.3 110.1L922.7 127.3 922.8 150.6 901.1 134.7 904.4 161.3 884.1 149.9 883.6 115.8C884.1 115.5 883.8 115 883.5 114.5 883 113.6 881.9 112.9 880.7 113 879.4 113 878.2 114.4 877.8 115.9L878.3 146.7 865.3 138.8 865.1 124C865.3 123.2 865 122.8 864.7 122.3 864.4 121.8 863.4 121.1 862.1 121.2 860.9 121.3 859.7 122.6 859.8 123.8L859.5 135.7 842.4 126.2C841 125.1 839.6 125.9 838.4 127.2 837.7 128.3 838.1 130 839.9 130.9L856.6 140.6 846.5 146.5C845 147.4 844.9 149.4 845.4 150.4 846.3 151.8 847.8 152.2 849.3 151.4L862.3 143.8 875.4 151.7 849.3 166.9C847.8 167.8 847.4 169.3 848.3 170.8 848.8 171.7 850.7 172.6 852.1 171.8L881.1 154.8 901.4 166.3 877.3 177.2 901.6 187.6 881.3 199.5 852.1 182.8C850.3 181.9 848.8 182.8 848.1 183.8 847.4 184.9 847.8 186.6 849.1 187.8L876 202.6 862.9 210.2 849.6 203.1C848.3 201.9 846.6 202.3 845.7 204.1 845 205.1 845.4 206.9 847.2 207.7L857.1 213.6 840.2 223.5C838.7 224.4 838.3 225.9 839.2 227.3S841.5 229.2 843 228.3L859.9 218.5 860.2 230C860 232 861.4 233.2 862.6 233.1 864.6 233.2 865.8 231.9 865.4 230.1L865.7 215.1 878.8 207.4 878.5 238.1C878.9 239.8 880.2 241 881.5 240.9 883.5 241 884.6 239.7 884.3 237.9L884.1 204.3 904.4 192.5 901.6 218.8 922.9 203.1 922.9 226.4 893.9 243.3C892.5 244.2 892.3 246.2 892.9 247.2 893.8 248.6 895.3 249 896.7 248.2L923.3 232.6 923.3 248.2 910.3 255.8C908.8 256.7 908.4 258.2 909.3 259.7 909.8 260.6 911.7 261.5 913.1 260.7L923.3 254.7 923.5 274C923.4 276.1 924.7 277.2 926.5 276.9 927.7 276.8 929.2 275.9 928.8 274.2L929 254.6 939.4 260.2C940.5 260.9 942.2 260.5 942.9 259.5 943.6 258.4 943.5 257.2 943.2 256.7 942.9 256.2 942.7 255.7 941.9 255.5L929.1 248.1 928.6 232.8 955.2 248.4C956.8 248.8 958.5 248.4 959.2 247.4 959.9 246.3 959.8 245.1 959.2 244.1 958.9 243.6 958.9 243.6 958.2 243.4L928.7 226.3 928.7 202.9 950.3 218.8 947.1 192.2 967.4 203.7 967.8 237.8C967.9 239 968.8 240.5 970.8 240.6 972 240.5 973.2 239.2 973.6 237.7L973.1 206.8 986.2 214.8 986.4 229.5C986 231.1 987.3 232.2 989.3 232.4 990.6 232.3 991.7 231 992.1 229.4L991.9 217.9 1009.1 227.3C1010.4 228.5 1011.9 227.6 1013 226.3 1013.2 225.5 1013.1 224.3 1012.9 223.8 1012.6 223.3 1012.3 222.8 1011.5 222.6L994.8 212.9 1005 207C1006.4 206.2 1006.6 204.1 1006 203.2L1006 203.2C1005.1 201.7 1003.6 201.3 1002.2 202.2L989.1 209.8 976 201.9 1002.2 186.6C1003.6 185.8 1004 184.2 1003.2 182.8S1000.8 180.9 999.3 181.8L970.3 198.7 950 187.2 974.1 176.4 949.9 165.9 970.2 154.1 999.4 170.7C1001.2 171.6 1002.6 170.8 1003.3 169.7 1004 168.7 1003.6 166.9 1002.3 165.8L976 150.7 988.5 143.3 1001.8 150.5C1003.1 151.7 1004.9 151.3 1005.8 149.5 1006.4 148.4 1006.1 146.7 1004.7 145.5L994.3 139.9 1011.3 130C1012.7 129.2 1013.1 127.7 1012.3 126.2S1009.9 124.4 1008.4 125.2L991.5 135.1 991.3 123.6C991.5 122.8 991.2 122.3 990.9 121.8 990.3 120.9 989.6 120.7 988.8 120.5 986.8 120.3 985.6 121.7 986 123.4L985.7 138.5 972.7 146.1 972.9 115.5C972.6 115 972.4 114.5 972.1 114 971.5 113.1 970.7 112.9 970 112.7 968 112.5 966.8 113.9 967.2 115.6L967.3 149.2 947 161.1 949.8 134.8 928.5 150.5 928.5 127.2 957.5 110.2C959 109.4 959.1 107.3 958.5 106.4 957.7 104.9 956.2 104.5 954.7 105.4L928.6 120.6 928.1 105.3 941.2 97.7C942.6 96.9 943 95.3 942.2 93.9S939.8 92 938.3 92.9L928.2 98.8 927.9 79.5C928.1 78.7 927.8 78.3 927.6 77.8 927.3 77.3 926.2 76.6 925 76.7 923.7 76.8 922.3 77.6 922.6 79.3ZM943.1 146.5L940.7 168 960.6 176.5 940.6 185.6 943.2 206.8 925.6 194.4 908.4 207 910.7 185.5 890.9 177 910.4 168.2 908.2 146.8 925.3 159.5 943.1 146.5Z" fill="rgba(56, 128, 255, 0.7)"></path><path d="M358.7 214.5L394.6 231.9 406 265.5 371.2 258.6 349.3 225.4C349.3 225.4 348.9 225.1 348.9 225.1 348.2 224.4 346.8 224.5 345.8 224.9 344.5 225.7 344.3 227.4 345.4 228.4L364.7 257.4 347.8 254 339.1 241.4C339.1 241.4 338.7 241 338.7 241 338 240.4 336.7 240.5 335.7 240.9 334.4 241.7 334.1 243.4 335.2 244.3L340.9 253.1 328.5 250.6C327.4 250.3 325.8 251.4 325.6 252.5 325 253.9 326.4 255.1 327.4 255.4L339.9 258 331.1 263.7C329.7 264.4 329.5 266.1 330.6 267.1 331.4 268.4 333.1 268.6 334 267.5L346.7 258.9 363.3 262.5 334.3 281.8C333 282.6 332.8 284.3 333.9 285.2 334.6 286.6 336.3 286.8 337.3 285.7L370.5 263.8 405.3 270.6 381.6 297.7 341.7 300.4C340.3 300.5 339.4 301.6 339.4 302.9 339.5 304.3 340.6 305.2 342 305.1L377.2 302.8 365.8 315.8 350.9 316.8C349.6 316.9 348.6 317.9 348.7 319.3 348.8 320.7 349.9 321.6 351.2 321.5L361.4 320.8 352.5 330.9C351.2 331.7 351.7 333.4 352.8 334.3 353.8 335.3 355.2 335.2 356.1 334.1L364.4 324.7 365 334.9C365.1 336.2 366.2 337.2 367.6 337.1S369.9 335.9 369.8 334.6L368.8 319.7 380.2 306.7 382.5 341.9C382.6 343.2 383.7 344.2 385 344.1 386.4 344 387.3 342.9 387.3 341.6L384.6 301.6 408 274.9 419.4 308.5 402.3 343.3C401.7 344.7 402.5 346 403.6 346.9 405 347.5 406.3 346.8 407.3 345.7L422.5 314.4 428 330.7 421.1 344.4C420.5 345.8 421.3 347.1 422.4 348.1 423.8 348.7 425.1 347.9 425.7 347.2L430.2 337.7 434.4 349.7C434.8 350.7 436.2 351.9 437.6 351.2 438.9 350.4 439.8 349.3 439 348L434.9 336 444.3 340.5C445.7 341.1 447 340.3 447.7 339.6 447.9 338.6 447.9 337.2 447.1 336.6 447.1 336.6 446.8 336.3 446.8 336.3L433 329.3 427.5 313 458.8 328.3C460.2 328.9 461.5 328.1 462.2 327.4 462.4 326.4 462.4 325 461.6 324.4 461.6 324.4 461.3 324.1 461.3 324.1L425.4 306.7 414 273.1 448.8 280 470.8 313.2C471.5 314.5 473.2 314.8 474.2 313.7 475.5 312.9 475.7 311.2 474.6 310.3L455.4 281.3 472.3 284.6 480.9 297.3C481.7 298.6 483.4 298.8 484.3 297.7 485.7 296.9 485.9 295.2 484.8 294.3L479.1 285.5 491.5 288C492.6 288.3 494.2 287.2 494.5 286.1 494.7 285.1 494.3 284.1 493.6 283.5 493.2 283.2 492.9 282.8 492.2 282.9L479.8 280.3 488.6 274.6C489.9 273.9 490.1 272.1 489.1 271.2 489.1 271.2 488.7 270.9 488.7 270.9 488 270.2 486.6 270.3 485.6 270.7L472.9 279.4 456 276.1 485 256.8C486.3 256.1 486.6 254.4 485.5 253.4 485.5 253.4 485.1 253.1 485.1 253.1 484.4 252.5 483.1 252.5 482.1 253L448.8 274.9 414 268 437.4 241.3 477.4 238.6C478.7 238.5 479.7 237.5 479.6 236.1 479.5 234.8 478.4 233.8 477 233.9L442.1 235.9 453.5 222.9 468.4 221.9C469.8 221.8 470.7 220.7 470.6 219.4S469.5 217.1 468.1 217.1L458 217.8 466.2 208.4C467.1 207.3 467 206 465.9 205 464.9 204.1 463.5 204.2 462.6 205.3L454.3 214.7 453.7 204.5C453.6 203.8 453.6 203.1 452.9 202.5S451.5 201.9 450.8 202C449.4 202.1 448.5 203.1 448.6 204.5L449.6 219.4 438.2 232.4 435.8 197.2C435.8 196.5 435.7 195.8 435 195.2 434.7 194.9 433.6 194.6 432.9 194.6 431.6 194.7 430.6 195.8 430.7 197.2L433.4 237.1 410 263.9 398.6 230.3 415.9 194.4C416.2 193.4 416.1 192 415.4 191.4 415.4 191.4 415 191.1 415 191.1 413.6 190.5 412.3 191.3 411.7 192L396.4 223.3 390.9 207 397.8 193.2C398.1 192.2 398 190.8 397.3 190.2 397.3 190.2 396.9 189.9 396.9 189.9 395.5 189.3 394.2 190.1 393.6 190.8L389.1 200.3 384.9 188.3C384.5 188 384.5 187.3 384.1 187 383.4 186.4 382.4 186.1 381.4 186.5 380.1 187.3 379.1 188.4 379.9 189.7L384.1 201.6 374.6 197.2C373.2 196.6 371.9 197.3 371.3 198.1 370.7 199.5 371.4 200.8 372.2 201.4L385.9 208.3 391.4 224.6 360.1 209.3C358.7 208.8 357.4 209.5 356.8 210.3 356.9 212.3 357.3 214 358.7 214.5Z" fill="rgba(56, 128, 255, 0.7)"></path><path d="M831.3 551.9L857.3 523.7 871.3 523.5 862.5 532.9C861.3 533.7 861.6 535.2 862.4 536.4 863.3 537 865 537 865.6 536.1L877.9 523.2 891.7 522.5 885.1 534.6 867.9 539.7C867.9 539.7 867.5 540 867.5 540 866.7 540.5 866.4 541.8 866.5 542.9 867.2 544.1 868.2 544.7 869.6 544.3L882 540.5 875.4 552.6 839 564.1C839 564.1 838.4 564 838.4 564 837.5 564.5 837.2 565.8 837.3 566.9 837.7 568.4 839.3 569.1 840.5 568.3L872.3 558.5 864.7 573.5 850.5 577.9C850.5 577.9 850.5 577.9 850.1 578.2 849.3 578.7 848.7 579.6 848.8 580.6 849.6 581.9 850.8 582.8 852.2 582.5L861.6 579.4 856 590.3C855.1 591.5 855.8 592.7 856.7 593.2 857.9 594.2 859.4 593.8 860.1 592.3L866 581.8 868.4 591C869.2 592.2 870.3 593.2 871.6 592.4 873 592.1 873.6 591.2 873.2 589.7L868.8 575.5 876.7 560.9 886.7 593.1C886.8 594.2 888.4 594.9 889.9 594.5 890.7 594 891.7 592.8 891.3 591.4L879.7 555 886.3 542.9 890.1 555.3C890.5 556.7 891.8 557 893.3 556.7 894.4 556.6 895.1 555 895 553.9L889.4 537 895.7 524.5 903.1 536.3 899.2 553.5C898.9 554.8 899.7 556 901 556.3 901.9 556.9 903.6 555.9 903.9 554.6L906.7 542 914.1 553.8 905.3 591.1C905 592.4 905.7 593.6 907.1 593.9 908.4 594.2 909.6 593.5 909.9 592.1L917.7 559.4 926.4 573.3 923.1 587.8C922.8 589.2 923.5 590.4 924.9 590.7 926.2 591 927.4 590.2 927.7 588.9L930.2 579.4 936.6 589.5C937.4 590.7 938.7 591 939.9 590.3 941.1 589.5 941.4 588.2 940.7 587L934.3 576.8 943.6 578.9C944.9 579.2 946.1 578.5 946.4 577.1S945.9 574.6 944.6 574.3L930.7 571.1 921.8 556.9 954.2 564.3C955.5 564.6 956.7 563.8 957.1 562.5 957.4 561.2 956.6 560 955.3 559.7L918.2 551.2 910.8 539.4 923.4 542.3C924.7 542.6 925.9 541.8 926.2 540.5 926.5 539.2 925.7 538 924.4 537.7L907.2 533.7 900.1 522.4 913.4 521.9 926.7 534C927.6 534.5 929.3 534.6 929.9 533.7 930.8 532.5 930.7 531.4 929.9 530.2L920.5 521.4 933.8 521 962 546.9C963.2 547.9 964.2 547.8 965.5 547 966.4 545.8 966.1 544.4 965.5 543.5L940.9 520.5 957.6 520.2 968.3 529.9C969.1 531.1 970.6 530.8 971.8 530 972.3 529.1 972.4 527.3 971.2 526.4L964.3 519.9 976.3 519.2C977.6 519.5 978.6 518.3 978.7 516.6 978.5 515.5 977.4 514.6 976.3 514.7L964 515 970.9 507.9C971.9 506.7 971.5 505.2 970.6 504.7 969.8 503.4 968.7 503.5 967.9 504.1 967.5 504.3 967.5 504.3 967.1 504.6L957.4 515.2 940.6 515.6 963.2 491.1C964.4 490.4 964.1 488.9 963.3 487.7 962.4 487.1 961.3 487.2 960.5 487.7 960.1 488 960.1 488 960.1 488L933.5 516.1 920.2 516.5 929 507C929.9 505.8 929.8 504.8 929.1 503.6 928.1 503 926.8 502.7 926 503.2 925.6 503.5 925.6 503.5 925.2 503.7L913.1 517 899.8 517.4 906 505.6 922.9 500.1C924.4 499.7 925.1 498.1 925 497.1 924.2 495.8 923 494.9 921.8 495.6L909.5 499.4 915.4 487.2 952.4 475.8C953.5 475.7 954.2 474.1 954.1 473.1 953.3 471.8 952.2 470.9 950.7 471.2L918.9 481 926.7 466.5 940.6 462.3C942 461.9 942.7 460.4 942 459.2 941.9 458.1 940.7 457.1 939.2 457.5L929.8 460.6 935.4 449.7C936 448.7 935.6 447.3 934.5 446.3 933.8 446.1 932.7 446.3 931.9 446.8 931.9 446.8 931.5 447 931.1 447.3L925.5 458.2 922.4 448.8C922.3 447.7 920.7 447 919.6 447.1 919.2 447.4 919.2 447.4 919.2 447.4 918 448.1 917.7 449.4 918.2 450.3L922.4 464.1 914.8 479.1 904.7 446.8C904 445.6 903.1 445.1 901.6 445.4 901.6 445.4 901.2 445.7 901.2 445.7 900.4 446.2 899.8 447.1 900.2 448.6L911.3 485.2 905.1 497.1 901.3 484.7C900.6 483.5 899.4 482.5 898.2 483.3 897.9 482.9 897.5 483.1 897.5 483.1 896.7 483.6 896.4 485 896.5 486L902 503 895.5 515 888.3 503.7 892.2 486.5C892.5 485.1 891.5 483.5 890.2 483.2 889.1 483.3 887.9 484.1 887.3 485L884.7 498 877.3 486.2 885.8 449.1C886.1 447.8 885.3 446.6 884 446.3 882.7 446 881.4 446.7 881.1 448.1L873.7 480.5 864.8 466.3 868 452.4C868.3 451.1 867.5 449.8 866.2 449.5S863.6 450 863.3 451.3L861.2 460.6 854.8 450.4C854.1 449.2 852.7 448.9 851.5 449.7 850.3 450.4 850 451.8 850.8 453L857.2 463.1 847.5 461.3C846.8 461.1 846.2 461 845.8 461.2 845.4 461.5 844.8 462.4 844.6 463.1 844.3 464.4 845.1 465.6 846.4 465.9L860.7 468.8 869.7 483.1 836.8 475.9C836.2 475.8 835.5 475.6 835.1 475.9 834.7 476.1 834.1 477 834 477.7 833.7 479 834.5 480.3 835.8 480.6L873.3 488.7 880.7 500.5 867.8 497.3C867.2 497.1 866.4 497.6 866 497.9 865.5 498.1 865.1 498.4 865 499 864.7 500.4 865.7 502 866.8 501.9L884.2 506.2 891.4 517.6 877.7 518.3 864.8 506C863.9 505.4 862.6 505.1 861.8 505.6 861.3 505.9 861.3 505.9 861.6 506.3 860.4 507 860.3 508.8 861.5 509.7L871 518.5 857.3 519.2 829.2 492.6C828.3 492.1 827.2 492.2 826.4 492.7 826 492.9 826 492.9 826 492.9 825 494.1 824.7 495.4 825.9 496.4L850.6 519.4 833.8 519.8 823.1 510C822 509.1 820.9 509.2 820.1 509.7 820.1 509.7 819.7 510 819.7 510 818.7 511.1 819.1 512.6 819.6 513.4L827.1 520 814.9 520.3C814.5 520.6 814.1 520.9 813.7 521.1 813.3 521.4 812.7 522.3 812.5 522.9 812.9 524.4 813.7 525.6 815.1 525.3L827.4 524.9 820.6 532.1C819.6 533.3 820 534.7 820.5 535.5 821.6 536.5 823.1 536.1 824.3 535.4L834.1 524.7 850.6 524 828 548.4C827 549.6 827 551.3 827.9 551.9 829.1 552.8 830.4 553.1 831.3 551.9Z" fill="rgba(56, 128, 255, 0.7)"></path><path d="M748 390.9L738.9 378.9 748.9 377.3C749.9 377.2 750.9 376.1 751 374.6 750.5 373.3 749.4 372.3 748.3 372.4L735.1 374.2 726.7 363 753.6 359.5C755.3 359.2 756.3 358 755.7 356.8 755.8 355.3 754.7 354.3 753 354.6L723.4 358.6 715.5 348.6 726.6 321.5 737.7 319.8 756.8 345.3C757.2 345.5 757.7 345.6 758.1 345.8 758.6 346 759.6 345.9 760.3 345.7 761.7 344.7 761.8 343.2 760.7 342.2L743.2 319 756.9 317.3 766.1 328.9C765.9 329.3 766.4 329.5 766.8 329.7 767.7 330 768.8 330 769.6 329.2 770.4 328.5 770.5 327 770 325.8L762.4 316.4 779.4 314.1C780.5 314 781.5 312.9 781.6 311.3 781.1 310.1 779.9 309.1 778.8 309.2L762.9 311.5 766.7 302.1C767.2 300.8 766.3 299.4 765.4 299 764 298.5 762.4 298.8 761.8 300.1L756.9 312.1 743.2 313.8 753.4 288.9C754 287.6 753.4 286.3 752.1 285.8 750.8 285.2 749.5 285.8 749 287.1L737.7 314.6 726 316.6 708.1 293.2 712.3 283 742.5 278.8C744.1 278.9 745.2 277.3 744.7 276 744.8 274.5 743.5 273.9 742 273.8L714.5 277.6 719.8 264.8 733.4 263.1C734.5 263 735.6 261.4 735.6 260.3S733.9 258.1 732.4 258L721.9 259.4 728.3 243.9C728.8 242.5 727.9 241.1 726.5 240.6 725.7 240.2 724 240.5 723.4 241.9L717.1 257.4 710.2 248.9C709.5 248.1 708.1 247.5 706.7 248.5 705.9 249.2 705.6 251.2 706.3 252L714.9 262.8 709.6 275.6 692.7 253.7C691.5 252.7 690.2 252.1 688.7 253.1 687.9 253.8 687.6 255.8 688.4 256.6L707.4 281 703.2 291.2 674 295.3 667.1 285.7 678.4 258.2C678.9 256.8 678.4 255.6 677 255 675.7 254.5 674 254.8 673.5 256.2L663.3 281 654.7 270.3 659.6 258.3C660.2 257 659.7 255.7 658.3 255.2 657 254.6 655.7 255.1 655.2 256.5L651.4 265.8 641.6 253C640.9 252.2 638.9 251.9 638.1 252.6 637.1 253.7 636.6 255.1 637.7 256.1L647.8 269.5 636.3 271C635 271.5 634 272.7 634.1 273.8 634.2 274.8 634.9 275.6 635.8 276 635.8 276 636.2 276.2 636.9 275.9L651.6 274.2 660.1 284.9 631.4 289.3C629.9 289.2 628.9 290.3 629.2 292 629.5 292.6 629.8 293.3 630.6 293.6 631.1 293.8 631.5 294 632 294.2L663.5 289.4 670.2 298.4 659.1 325.5 646.5 327.1 628.2 303.5C627.2 302.1 625.7 302 624.7 303.1 623.4 303.6 623.3 305.1 624.3 306.6L641 327.9 627.1 330 619 319.5C618.3 318.7 616.8 318.6 615.6 319.1 614.6 320.2 614 321.6 615.2 322.5L621.2 330.7 606.3 332.9C604.7 332.8 604.2 334.1 604.1 335.7 604.4 336.3 605.1 337.1 606 337.4 606 337.4 606.4 337.6 606.8 337.8L622.8 335.5 618.3 346.6C617.9 347.5 618.2 349.2 619.6 349.8 620.9 350.3 622.3 349.3 622.7 348.5L628.4 334.7 642.2 332.6 631.1 359.7C630.5 361 631.5 362.4 632.8 363S635.4 363 636 361.7L648.2 331.9 659.7 330.4 677.6 353.8 672.8 365.4 642.2 369.4C640.9 369.9 639.9 371.1 639.8 372.6 640.1 373.2 640.8 374 641.7 374.4 642.1 374.6 642.6 374.7 643.2 374.5L670.7 370.7 665.4 383.6 651.6 385.7C650.5 385.8 649.5 386.9 649.4 388.4 649.9 389.7 651.1 390.7 652.1 390.6L663.2 388.9 657.4 403.1C657 404 657.8 405.9 658.7 406.2 660 406.8 661.9 406 662.3 405.1L668.1 390.9 674.3 399.7C674.8 399.9 675.2 400.1 675.7 400.2 676.6 400.6 677.6 400.5 678.3 400.3 679.3 399.1 679.4 397.6 678.8 396.3L670.3 385.6 675.6 372.7 692.5 394.7C693.5 396.1 695 396.2 695.8 395.5 697.2 394.5 697.3 393 696.8 391.8L677.7 367.4 682.5 355.8 711.6 351.7 718.8 360.8 706.6 390.6C706.1 391.9 706.6 393.2 707.9 393.7 709.2 394.3 710.5 393.7 711 392.4L722.1 365.3 730.5 376.5 724.9 390.3C724.5 391.2 725.3 393.1 726.6 393.6 728 394.2 729.4 393.2 729.8 392.3L734.3 381.2 744.1 394C744.5 394.2 744.5 394.2 745 394.4 745.9 394.7 746.9 394.7 747.6 394.4 748.6 393.3 748.7 391.7 748 390.9ZM684.6 350.5L681.4 350.7 679.8 348.5 665.2 329.6 663.5 327.3 664.6 324.6 673.5 302.9 674.6 300.2 677.4 299.8 701 296.5 703.8 296.1 705.9 298.5 720 317.3 722.2 319.7 721.1 322.3 712.2 344.1 711.1 346.8 707.8 347 684.6 350.5Z" fill="rgba(56, 128, 255, 0.7)"></path><path d="M1110.1 164.2L1116 138.3 1136.1 125.8 1136.9 149.5 1118.6 168.7C1118.6 168.7 1118.4 169 1118.4 169 1118.1 169.6 1118.4 170.5 1118.8 171 1119.5 171.8 1120.7 171.7 1121.1 170.8L1137 153.9 1137.4 165.4 1130.5 172.9C1130.5 172.9 1130.4 173.2 1130.4 173.2 1130.1 173.8 1130.3 174.6 1130.7 175.2 1131.4 176 1132.6 175.8 1133 175L1137.9 170 1138.1 178.4C1138.1 179.1 1139 180 1139.8 180 1140.8 180.2 1141.4 179.1 1141.4 178.4L1141.2 169.9 1146.2 174.8C1146.9 175.5 1148 175.4 1148.5 174.6 1149.2 173.9 1149.1 172.7 1148.3 172.3L1140.7 165.3 1140.6 154 1157.5 169.9C1158.2 170.7 1159.3 170.5 1159.8 169.7 1160.5 169 1160.4 167.9 1159.6 167.4L1140.3 149.1 1139.5 125.5 1160.7 136.8 1168.4 162.3C1168.7 163.2 1169.5 163.7 1170.4 163.4 1171.3 163.1 1171.7 162.3 1171.5 161.4L1164.6 138.9 1174.8 144.3 1177.7 153.9C1177.9 154.7 1178.8 155.2 1179.7 154.9 1180.5 154.6 1181 153.8 1180.7 152.9L1178.7 146.4 1186.6 150.7C1187.3 151.4 1188.4 150.8 1188.8 150 1189.3 149.2 1189 148.3 1188.1 147.8L1180.8 143.9 1187.3 141.9C1188.2 141.7 1188.6 140.8 1188.4 140S1187.2 138.6 1186.4 138.9L1176.9 141.8 1166.7 136.4 1189.2 129.5C1190.1 129.3 1190.5 128.4 1190.3 127.6 1190 126.7 1189.2 126.2 1188.3 126.5L1162.7 134.3 1141.9 123.1 1161.9 110.6 1187.1 116.5C1188.1 116.6 1188.9 115.9 1189.3 115.1 1189.5 114.1 1188.8 113.4 1187.9 112.9L1165.3 107.7 1175.1 101.7 1185 104.1C1186 104.3 1186.8 103.6 1187.2 102.7 1187.4 101.7 1186.7 101 1186.1 100.7L1179.3 99.2 1186.4 94.7C1187 94.3 1187.6 93.1 1186.9 92.4 1186.2 91.7 1185.4 91.2 1184.6 91.9L1177.5 96.4 1179 89.6C1179.1 88.6 1178.4 87.9 1177.9 87.6 1177.2 87.6 1176.3 87.8 1176 88.4 1176 88.4 1175.8 88.7 1175.8 88.7L1173.4 98.6 1163.7 104.7 1168.9 82C1169 81 1168.3 80.3 1167.8 80 1167.1 80 1166.2 80.3 1165.9 80.8 1165.9 80.8 1165.7 81.1 1165.7 81.1L1159.9 107 1139.8 119.5 1139 95.8 1157.3 76.6C1158 75.9 1157.9 74.7 1157 74.3 1156.3 73.5 1155.2 73.7 1154.7 74.5L1138.8 91.4 1138.4 79.9 1145.3 72.4C1146.1 71.7 1146 70.6 1145.1 70.1 1144.4 69.4 1143.3 69.5 1142.8 70.3L1138 75.3 1137.8 66.9C1137.8 66.2 1136.8 65.3 1136.1 65.3 1135.4 65.3 1134.8 65.7 1134.5 66.2 1134.3 66.5 1134.2 66.8 1134.3 67.2L1134.5 75.7 1129.5 70.8C1128.8 70.1 1127.7 70.2 1127.2 71.1 1127.2 71.1 1127.1 71.3 1127.1 71.3 1126.8 71.9 1127 72.8 1127.4 73.4L1135 80.3 1135.4 91.7 1118.5 75.8C1117.8 75.1 1116.6 75.2 1116.2 76.1 1116.2 76.1 1116 76.3 1116 76.3 1115.7 76.9 1116 77.8 1116.4 78.4L1135.7 96.6 1136.5 120.3 1115.6 109.1 1107.8 83.6C1107.6 82.7 1106.7 82.2 1105.9 82.5 1105 82.8 1104.5 83.6 1104.8 84.5L1111.4 106.9 1101.2 101.4 1098.3 91.9C1098 91 1097.2 90.6 1096.3 90.8S1095 92 1095.3 92.8L1097.2 99.3 1089.9 95.4C1089.1 94.9 1088.2 95.2 1087.7 96.1 1087.3 96.9 1087.6 97.8 1088.4 98.2L1095.7 102.1 1089.2 104.1C1088.8 104.2 1088.4 104.4 1088.1 104.9S1087.9 105.9 1088 106.4C1088.3 107.2 1089.1 107.7 1090 107.4L1099.5 104.5 1109.7 110 1087.2 116.8C1086.8 116.9 1086.3 117.1 1086 117.6 1085.9 117.9 1085.9 118.6 1086 119.1 1086.2 119.9 1087.1 120.4 1088 120.1L1113.5 112.3 1134.4 123.5 1114.3 136 1088.4 130.1C1087.7 130.1 1086.8 130.4 1086.5 131 1086.5 131 1086.4 131.2 1086.4 131.2 1086.2 132.2 1086.9 133 1087.5 133.3L1110.1 138.5 1100.3 144.5 1090.4 142.1C1089.7 142.1 1088.8 142.3 1088.5 142.9 1088.5 142.9 1088.3 143.2 1088.3 143.2 1088.2 144.2 1088.9 144.9 1089.4 145.2L1096.3 146.7 1089.1 151.2C1089 151.5 1088.6 151.6 1088.4 151.9 1088.1 152.5 1088.1 153.2 1088.5 153.8 1089.2 154.5 1090 155 1090.8 154.3L1097.9 149.7 1096.4 156.6C1096.3 157.6 1097 158.3 1097.5 158.6 1098.5 158.8 1099.3 158.1 1099.6 157.5L1102 147.5 1111.7 141.5 1106.5 164.1C1106.4 165.1 1107.1 165.9 1107.6 166.2 1108.9 165.8 1110 165.2 1110.1 164.2Z" fill="rgba(56, 128, 255, 0.7)"></path><path d="M494.4 467.8L499.2 493.9 485.7 513.3 475.6 491.8 484.8 466.9C484.8 466.9 484.9 466.6 484.9 466.6 484.9 466 484.3 465.3 483.7 464.9 482.8 464.5 481.8 465.1 481.7 466L473.7 487.8 468.9 477.4 472.3 467.8C472.3 467.8 472.3 467.5 472.3 467.5 472.3 466.8 471.8 466.1 471.1 465.8 470.2 465.4 469.2 465.9 469.1 466.9L466.6 473.4 463.1 465.7C462.9 465 461.6 464.6 460.9 464.9 460 465.1 459.8 466.4 460.1 467.1L463.6 474.8 457.1 472.3C456.2 471.9 455.2 472.4 455.1 473.4 454.7 474.3 455.2 475.3 456.2 475.4L465.8 478.8 470.4 489.1 448.6 481.2C447.7 480.8 446.7 481.3 446.6 482.3 446.2 483.2 446.8 484.2 447.7 484.3L472.6 493.5 482.7 514.9 458.8 512.9 441.6 492.5C441 491.8 440 491.7 439.3 492.3 438.6 492.8 438.5 493.8 439.1 494.5L454.3 512.5 442.8 511.5 436.4 503.9C435.8 503.2 434.9 503.1 434.2 503.7 433.5 504.3 433.4 505.2 434 505.9L438.3 511.1 429.4 510.4C428.5 510 427.8 510.9 427.7 511.8 427.6 512.8 428.2 513.5 429.1 513.5L437.4 514.3 432.2 518.6C431.5 519.2 431.5 520.2 432.1 520.9S433.6 521.6 434.3 521.1L441.9 514.6 453.4 515.6 435.4 530.8C434.7 531.4 434.6 532.3 435.2 533 435.8 533.7 436.7 533.8 437.4 533.2L457.8 516 481.4 518 467.9 537.4 442.4 542C441.5 542.2 441.1 543.2 441 544.1 441.2 545.1 442.1 545.5 443.1 545.6L465.9 541.4 459.4 550.8 449.2 552.5C448.3 552.8 447.9 553.7 447.8 554.6 448 555.6 448.9 556 449.6 556.1L456.4 554.8 451.7 561.7C451.3 562.3 451.2 563.6 452.1 564 453 564.4 454 564.5 454.4 563.6L459.2 556.6 460.5 563.4C460.8 564.4 461.7 564.8 462.3 564.9 463 564.6 463.7 564 463.7 563.4 463.7 563.4 463.8 563.1 463.8 563.1L462.1 553 468.6 543.6 472.8 566.4C473 567.4 474 567.8 474.6 567.9 475.3 567.6 475.9 567 476 566.4 476 566.4 476 566.1 476 566.1L471.2 540 484.7 520.6 494.8 542 485.6 566.9C485.2 567.8 485.8 568.8 486.7 568.9 487.6 569.3 488.6 568.8 488.7 567.8L496.7 546 501.6 556.4 498.2 566C497.8 567 498.3 568 499.3 568.1 500.2 568.5 501.2 567.9 501.3 566.9L503.8 560.4 507.3 568.1C507.6 568.8 508.8 569.2 509.5 568.9 510.2 568.7 510.5 568.1 510.6 567.4 510.6 567.1 510.7 566.8 510.4 566.4L506.8 558.8 513.4 561.2C514.3 561.6 515.3 561.1 515.4 560.1 515.4 560.1 515.4 559.8 515.4 559.8 515.5 559.2 514.9 558.5 514.3 558.1L504.6 554.7 499.7 544.3 521.5 552.3C522.5 552.7 523.5 552.1 523.6 551.2 523.6 551.2 523.6 550.9 523.6 550.9 523.6 550.2 523.1 549.5 522.4 549.2L497.5 540 487.5 518.5 511.1 520.6 528.3 541C528.9 541.7 529.8 541.8 530.5 541.2 531.2 540.6 531.3 539.6 530.7 539L515.9 521 527.3 522 533.8 529.6C534.3 530.3 535.3 530.4 536 529.8S536.8 528.2 536.2 527.5L531.8 522.3 540.1 523.1C541.1 523.1 541.7 522.6 541.8 521.6 541.9 520.6 541.3 520 540.4 519.9L532.1 519.2 537.3 514.8C537.6 514.5 538 514.2 538 513.6S537.8 512.6 537.5 512.2C536.9 511.5 536 511.5 535.3 512L527.6 518.5 516.2 517.5 534.2 502.3C534.5 502 534.9 501.7 534.9 501.1 534.9 500.8 534.7 500.1 534.4 499.8 533.8 499.1 532.8 499 532.2 499.6L511.7 516.8 488.1 514.8 501.7 495.4 527.8 490.5C528.5 490.3 529.1 489.7 529.2 489 529.2 489 529.2 488.7 529.2 488.7 529 487.7 528.1 487.3 527.4 487.3L504.6 491.4 511.2 482 521.3 480.3C521.9 480.1 522.6 479.5 522.7 478.9 522.7 478.9 522.7 478.5 522.7 478.5 522.5 477.5 521.6 477.1 520.9 477.1L514.1 478.4 518.8 471.5C518.9 471.1 519.2 470.8 519.2 470.5 519.3 469.9 519 469.2 518.4 468.8 517.5 468.4 516.5 468.4 516.1 469.3L511.3 476.3 510 469.4C509.8 468.4 508.8 468 508.2 468 507.2 468.2 506.8 469.1 506.8 469.8L508.5 479.9 501.9 489.3 497.7 466.4C497.5 465.5 496.6 465.1 495.9 465 494.9 465.9 494.2 466.8 494.4 467.8Z" fill="rgba(56, 128, 255, 0.7)"></path><path d="M212.2 153.2L212.3 143.2 218.2 146.4C218.8 146.8 219.8 146.6 220.5 145.9 220.7 145 220.5 144 219.9 143.6L212.2 139.2 212.4 129.9 228 139C229 139.5 230 139.3 230.2 138.4 230.9 137.7 230.7 136.7 229.7 136.2L212.5 126.1 212.4 117.7 229.3 108 235.9 111.6 235.5 132.8C235.7 133.1 235.8 133.4 236 133.7 236.1 133.9 236.7 134.3 237.2 134.5 238.3 134.5 239 133.8 238.8 132.8L239.1 113.4 247 118.1 247.1 128C246.8 128.2 247 128.4 247.2 128.7 247.5 129.3 248.1 129.7 248.8 129.6 249.5 129.6 250.2 128.8 250.4 128L250.2 119.9 260.2 125.7C260.8 126.1 261.8 125.9 262.4 125.1 262.7 124.2 262.5 123.3 261.9 122.9L252.5 117.5 258.4 114.2C259.2 113.7 259.3 112.5 259 112 258.5 111.2 257.4 110.6 256.6 111.1L249.1 115.4 241.3 110.7 256.8 101.8C257.6 101.3 257.9 100.4 257.4 99.6 256.9 98.8 256 98.5 255.2 99L238 108.9 231 105.1 231.2 85.5 237.6 81.8 255.2 92C256 92.7 257.3 92.3 257.5 91.4 258.2 90.7 257.7 89.8 256.9 89.2L240.9 79.9 249 75.3 256.8 80C257.4 80.4 258.7 80 259.1 79.4S259.1 77.6 258.4 76.9L252.3 73.4 262 67.8C262.8 67.3 262.9 66.2 262.4 65.3 262.1 64.8 261.1 64.3 260.3 64.8L250.5 70.3 250.4 63C250.4 62.3 249.9 61.5 248.7 61.4 248 61.4 247.1 62.4 247.1 63.1L247.2 72.2 239.2 76.9 239.3 58.4C239.1 57.4 238.6 56.5 237.4 56.5 236.7 56.5 235.8 57.4 235.8 58.1L235.8 78.8 229.5 82.4 212.4 72.7 212.7 64.8 229.9 54.9C230.7 54.4 230.9 53.5 230.5 52.7 230 51.9 229 51.4 228.1 51.8L212.6 60.8 212.5 51.6 220 47.3C220.8 46.8 221.1 45.9 220.6 45.1 220.1 44.3 219.2 44 218.4 44.5L212.6 47.9 212.7 37.1C212.6 36.4 211.7 35.4 211 35.5 210 35.7 209.2 36.1 209.4 37.1L209.1 48.3 202.5 44.4C201.6 44.2 200.6 44.4 200.2 45 199.8 45.6 199.9 46.3 200.2 46.8 200.2 46.8 200.3 47.1 200.8 47.2L209.2 52.3 209.3 61.5 192.4 52C191.7 51.3 190.7 51.5 190.2 52.6 190.1 53 189.9 53.4 190.3 54 190.4 54.3 190.6 54.6 190.7 54.8L209.3 65.2 209.1 72.7 192.2 82.4 184.9 78.1 184.9 58.2C185 57 184.2 56.4 183.2 56.6 182.4 56.3 181.7 57.1 181.6 58.2L181.7 76.3 173.5 71.7 173.6 62.8C173.5 62.1 172.8 61.5 171.9 61.2 170.9 61.4 170.1 61.9 170.3 62.9L170.1 69.6 161.4 64.7C160.6 64 159.8 64.5 159.1 65.3 159 65.7 159 66.4 159.3 67 159.3 67 159.5 67.2 159.7 67.5L169 72.9 162 76.8C161.5 77.2 161 78.2 161.5 79 161.9 79.9 163.1 79.9 163.6 79.6L172.2 74.7 180.4 79.2 163.5 88.9C162.6 89.4 162.6 90.6 163 91.4S164.4 92.5 165.2 92L183.8 81.3 190.5 85.2 190.3 104.9 183.1 109 165.3 98.6C164.4 98.3 163.4 98.5 162.8 99.3 162.6 99.7 162.7 100.5 163 101 163.2 101.3 163.3 101.6 163.8 101.7L179.8 110.9 171.7 115.6 163.6 111C163 110.6 162 110.8 161.3 111.6 161.1 112.4 161.3 113.4 161.9 113.8L168.4 117.5 159.5 122.6C159 122.9 158.6 124.2 158.9 124.8 159.4 125.6 160.7 125.9 161.3 125.6L170.1 120.5 169.8 127.7C170 128 170.2 128.3 170.3 128.5 170.6 129.1 171.2 129.5 171.7 129.6 172.7 129.4 173.3 128.7 173.6 127.8L173.5 118.6 181.5 114 181.4 132.5C181.4 133.6 182.1 134.3 182.8 134.3 184 134.4 184.7 133.6 184.9 132.7L184.9 112.1 192.1 107.9 209.1 117.7 209.1 125.5 190.5 136.1C189.7 136.6 189.5 137.5 189.9 138.3 190.4 139.1 191.3 139.4 192.1 138.9L209.1 129.2 208.9 138.5 200.3 143.5C199.7 143.8 199.4 145.1 199.8 145.9 200.3 146.7 201.5 146.8 202 146.5L209 142.5 208.9 153.3C209 153.6 209 153.6 209.2 153.8 209.5 154.4 210.1 154.8 210.5 154.9 211.5 154.7 212.2 153.9 212.2 153.2ZM195.4 106L193.6 104.8 193.7 103 193.7 87.1 193.8 85.2 195.4 84.2 209 76.4 210.7 75.5 212.3 76.4 226.1 84.3 227.8 85.3 227.9 87.4 227.6 103 227.8 105.2 226.1 106.1 212.5 113.9 210.8 114.9 209 113.7 195.4 106Z" fill="rgba(56, 128, 255, 0.7)"></path></g><defs><mask id="SvgjsMask1120"><rect width="1440" height="560" fill="#ffffff"></rect></mask><filter id="SvgjsFilter1121"><feGaussianBlur stdDeviation="1"></feGaussianBlur></filter></defs></svg>