<svg xmlns="http://www.w3.org/2000/svg" version="1.1" xmlns:xlink="http://www.w3.org/1999/xlink" xmlns:svgjs="http://svgjs.com/svgjs" width="1440" height="560" preserveAspectRatio="none" viewBox="0 0 1440 560"><g mask="url(&quot;#SvgjsMask1026&quot;)" fill="none"><circle r="7.94" cx="270.5" cy="236.13" filter="url(#SvgjsFilter1027)" fill="rgba(56, 128, 255, 1)"></circle><circle r="8.795" cx="976.035" cy="402.475" filter="url(#SvgjsFilter1027)" fill="rgba(56, 128, 255, 1)"></circle><circle r="7.2" cx="181.91" cy="83.68" filter="url(#SvgjsFilter1027)" fill="rgba(56, 128, 255, 1)"></circle><circle r="7.235" cx="372.95500000000004" cy="451.795" filter="url(#SvgjsFilter1027)" fill="rgba(56, 128, 255, 1)"></circle><circle r="5.33" cx="101.25" cy="9.719999999999999" filter="url(#SvgjsFilter1027)" fill="rgba(56, 128, 255, 1)"></circle><circle r="6.78" cx="359.45" cy="418.09" filter="url(#SvgjsFilter1027)" fill="rgba(56, 128, 255, 1)"></circle><circle r="7.53" cx="11.11" cy="265.60999999999996" filter="url(#SvgjsFilter1027)" fill="rgba(56, 128, 255, 1)"></circle><circle r="9.045" cx="325.575" cy="501.83500000000004" filter="url(#SvgjsFilter1027)" fill="rgba(56, 128, 255, 1)"></circle><circle r="5.19" cx="252.23" cy="100.17999999999999" filter="url(#SvgjsFilter1027)" fill="rgba(56, 128, 255, 1)"></circle><circle r="6.935" cx="1342.0049999999999" cy="323.075" filter="url(#SvgjsFilter1027)" fill="rgba(56, 128, 255, 1)"></circle><circle r="6.305" cx="1038.125" cy="18.445" filter="url(#SvgjsFilter1027)" fill="rgba(56, 128, 255, 1)"></circle><circle r="6.19" cx="510.81" cy="345.58" filter="url(#SvgjsFilter1027)" fill="rgba(56, 128, 255, 1)"></circle><circle r="5.95" cx="1140.73" cy="20.94" filter="url(#SvgjsFilter1027)" fill="rgba(56, 128, 255, 1)"></circle><circle r="7.91" cx="274.28000000000003" cy="460.54" filter="url(#SvgjsFilter1027)" fill="rgba(56, 128, 255, 1)"></circle><circle r="6.635" cx="1391.105" cy="554.185" filter="url(#SvgjsFilter1027)" fill="rgba(56, 128, 255, 1)"></circle><circle r="6.88" cx="491.7" cy="418.56" filter="url(#SvgjsFilter1027)" fill="rgba(56, 128, 255, 1)"></circle><circle r="6.12" cx="1319.9799999999998" cy="69.88" filter="url(#SvgjsFilter1027)" fill="rgba(56, 128, 255, 1)"></circle><circle r="5.89" cx="31.34" cy="121.92" filter="url(#SvgjsFilter1027)" fill="rgba(56, 128, 255, 1)"></circle><circle r="6.27" cx="1433.23" cy="285.03" filter="url(#SvgjsFilter1027)" fill="rgba(56, 128, 255, 1)"></circle><circle r="6.515" cx="1441.065" cy="353.525" filter="url(#SvgjsFilter1027)" fill="rgba(56, 128, 255, 1)"></circle><path d="M1385.3 67.7L1403.1 87.4 1401.7 111 1381.9 98 1376.8 72C1376.8 72 1376.6 71.7 1376.6 71.7 1376.3 71.1 1375.5 70.8 1374.8 70.8 1373.8 71 1373.2 72 1373.6 72.8L1378.2 95.6 1368.6 89.3 1366.5 79.3C1366.5 79.3 1366.3 79 1366.3 79 1366 78.4 1365.2 78.1 1364.5 78.1 1363.5 78.3 1362.9 79.3 1363.3 80.1L1364.6 87 1357.6 82.3C1357 81.9 1355.7 82.2 1355.3 82.7 1354.6 83.4 1355.2 84.6 1355.7 85L1362.8 89.7 1355.9 91C1354.9 91.2 1354.3 92.2 1354.8 93 1354.9 94 1355.9 94.6 1356.8 94.2L1366.8 92 1376.1 98.4 1353.3 103.1C1352.3 103.2 1351.8 104.2 1352.2 105.1 1352.3 106.1 1353.3 106.6 1354.2 106.2L1380.2 101 1400 114 1378.5 124.8 1353.2 116.4C1352.3 116.1 1351.5 116.5 1351.2 117.4 1350.9 118.2 1351.3 119.1 1352.2 119.4L1374.5 126.8 1364.2 131.9 1354.8 128.8C1353.9 128.5 1353.1 129 1352.8 129.8 1352.5 130.7 1352.9 131.5 1353.8 131.8L1360.2 134 1352.2 138C1351.2 138.1 1351.1 139.3 1351.5 140.1 1351.9 141 1352.8 141.3 1353.7 140.8L1361.1 137.1 1359 143.5C1358.7 144.4 1359.1 145.3 1360 145.5S1361.7 145.4 1362 144.5L1365.1 135.1 1375.4 129.9 1368 152.3C1367.7 153.1 1368.1 154 1369 154.3 1369.8 154.6 1370.7 154.1 1371 153.3L1379.4 127.9 1400.6 117.3 1399.2 140.9 1379.9 158.1C1379.2 158.8 1379.3 159.8 1379.7 160.7 1380.4 161.4 1381.4 161.3 1382.3 160.8L1399.6 145.4 1398.9 156.8 1391.2 163.5C1390.5 164.3 1390.6 165.3 1391 166.1 1391.8 166.8 1392.8 166.7 1393.3 166.4L1398.5 161.7 1398.1 170.1C1398.1 170.8 1398.6 172 1399.6 171.8 1400.6 171.7 1401.5 171.3 1401.4 170.3L1401.8 161.8 1406.5 167C1407.2 167.7 1408.2 167.5 1408.8 167.2 1409.2 166.7 1409.5 165.8 1409.2 165.2 1409.2 165.2 1409.1 165 1409.1 165L1402.3 157.2 1403 145.8 1418.5 163.1C1419.2 163.8 1420.2 163.7 1420.8 163.4 1421.2 162.8 1421.5 161.9 1421.2 161.4 1421.2 161.4 1421.1 161.1 1421.1 161.1L1403.3 141.3 1404.7 117.7 1424.5 130.7 1429.7 156.8C1429.8 157.8 1430.8 158.3 1431.7 157.9 1432.7 157.8 1433.2 156.8 1432.8 155.9L1428.2 133.2 1437.8 139.4 1440 149.5C1440.1 150.5 1441.1 151 1442 150.6 1443 150.5 1443.5 149.5 1443.1 148.6L1441.8 141.7 1448.8 146.4C1449.4 146.9 1450.7 146.6 1451.1 146 1451.6 145.4 1451.6 144.7 1451.3 144.2 1451.1 143.9 1451 143.6 1450.5 143.4L1443.5 138.7 1450.4 137.4C1451.4 137.3 1452 136.3 1451.5 135.4 1451.5 135.4 1451.4 135.1 1451.4 135.1 1451.1 134.6 1450.3 134.3 1449.5 134.3L1439.5 136.4 1429.9 130.2 1452.7 125.6C1453.7 125.4 1454.2 124.4 1453.8 123.5 1453.8 123.5 1453.7 123.3 1453.7 123.3 1453.4 122.7 1452.5 122.4 1451.8 122.4L1425.8 127.6 1406 114.6 1427.2 104 1452.5 112.4C1453.4 112.7 1454.2 112.2 1454.5 111.4 1454.8 110.5 1454.4 109.7 1453.5 109.4L1431.5 101.8 1441.8 96.7 1451.2 99.8C1452.1 100.1 1452.9 99.6 1453.2 98.8S1453.1 97.1 1452.2 96.8L1445.8 94.6 1453.2 90.9C1454.1 90.5 1454.4 89.6 1453.9 88.8 1453.5 87.9 1452.6 87.6 1451.8 88.1L1444.3 91.8 1446.5 85.3C1446.6 84.9 1446.8 84.5 1446.5 83.9S1445.8 83.2 1445.3 83.1C1444.5 82.8 1443.6 83.2 1443.3 84.1L1440.2 93.5 1429.9 98.7 1437.3 76.3C1437.4 75.9 1437.6 75.5 1437.3 74.9 1437.2 74.6 1436.6 74.2 1436.2 74.1 1435.3 73.8 1434.4 74.2 1434.2 75.1L1425.7 100.4 1404.6 111 1406 87.4 1425.7 69.6C1426.1 69.1 1426.4 68.2 1426.1 67.6 1426.1 67.6 1426 67.3 1426 67.3 1425.3 66.6 1424.3 66.8 1423.7 67.1L1406.4 82.5 1407.1 71.1 1414.8 64.3C1415.3 63.8 1415.5 62.9 1415.3 62.3 1415.3 62.3 1415.1 62.1 1415.1 62.1 1414.4 61.3 1413.4 61.5 1412.8 61.8L1407.7 66.5 1408.1 58.1C1407.9 57.8 1408.1 57.3 1407.9 57.1 1407.7 56.5 1407.1 56.1 1406.4 56.1 1405.4 56.2 1404.5 56.6 1404.7 57.6L1404.2 66.1 1399.5 60.9C1398.8 60.2 1397.8 60.4 1397.2 60.6 1396.5 61.4 1396.6 62.4 1396.9 62.9L1403.7 70.7 1403 82.1 1387.5 64.8C1386.8 64.1 1385.8 64.2 1385.2 64.5 1384.8 65.8 1384.6 67 1385.3 67.7Z" fill="rgba(56, 128, 255, 1)"></path><path d="M308.4 131.3L292.4 147 288.5 134C288.2 132.6 286.5 131.5 284.5 131.7 283 132.6 281.8 134.3 282.8 135.8L287.1 152.2 275.1 164.9 266.2 130.8C265.3 129.3 263.6 128.2 262.2 128.5 260 129.2 258.9 130.9 259.8 132.5L269.8 170.2 251 189 246.3 158.7 227.4 182.9 220.3 157.2 247.4 129.2C248.1 129.4 248.2 128.8 248.4 128.2 248.7 126.9 248.4 125.5 247.3 124.6 246.3 123.6 244.2 123.8 242.7 124.7L218.2 150 214 133 225.8 120.9C226.6 120.5 226.8 119.8 226.9 119.2 227.1 118.6 226.8 117.2 225.7 116.3 224.6 115.3 222.6 115.4 221.7 116.5L211.9 125.9 205.7 104.4C205.5 102.4 203.7 101.9 201.7 102 200.3 102.3 199.1 104 199.9 106.2L205.6 127.5 192.6 124.1C190.7 123.6 189 125.1 188.6 126.4 188.2 128.2 189.1 129.8 190.9 130.3L207.6 134.7 211.8 151.6 178.4 142.9C176.5 142.4 174.9 143.3 174.5 145.2 174.1 146.4 174.9 148.6 176.7 149.1L213.9 158.8 221 184.5 192.8 173.8 203.9 201.8 177.9 195 167.8 158C167 155.8 165.2 155.3 163.8 155.6 162.4 155.9 161.3 157.6 161.4 159.6L171.1 193.2 154.4 188.9 149.5 172.4C149.3 170.3 147.6 169.2 145.5 170 144.1 170.3 143 172 143.7 174.2L147 186.9 125.3 181.2C123.4 180.7 121.9 181.7 121.4 183.5S121.8 186.9 123.7 187.4L145.3 193.1 136.2 202.6C134.5 204.2 134.6 206.2 135.7 207.1 137.3 208.8 139.3 208.7 140.4 207L152.8 195.1 169.5 199.4 144.5 224C143.4 225.7 143.6 227.7 144.6 228.6 146.2 230.4 148.2 230.2 149.3 228.5L176.3 201.2 202.3 208 178.8 227 208.7 231.6 189.9 250.4 152.7 240.7C150.9 240.2 149.1 241.7 148.8 243 148.3 244.8 149.2 246.4 151.1 246.9L185.1 255.8 172.6 268.4 155.9 264C154 263.5 152.5 264.4 152 266.3 151.6 267.5 152.4 269.7 154.2 270.2L167.2 273.6 151.9 289.4C150.1 291 150.3 293 152 294.1 153 295 154.9 295.5 156 293.8L172 278.2 175.9 291.1C176.2 292.5 177.9 293.6 179.3 293.3 180.7 293 181.6 291.9 181.8 291.3 182 290.7 182.1 290.1 181.7 289.3L177.3 273 189.3 260.2 198.2 294.3C199.1 295.9 200.8 297 202.2 296.7 203.6 296.4 204.6 295.3 204.9 294.1 205.1 293.4 205.1 293.4 204.6 292.7L194.6 255 213.5 236.1 218.1 266.4 237 242.3 244.2 268 217 295.9C216 297 215.5 298.8 217.1 300.6 218.2 301.5 220.2 301.4 221.7 300.5L246.2 275.1 250.4 292.1 238.6 304.2C237.1 305.1 237.2 307.2 238.7 308.9 239.8 309.8 241.8 309.7 243.4 308.8L252.5 299.3 258.8 320.8C258.9 322.8 260.8 323.3 262.8 323.1 263.6 322.7 264.5 321.6 264.7 321 264.8 320.4 265 319.7 264.5 319L258.9 297.6 271.9 301C273.7 301.5 275.5 300 275.8 298.8L275.8 298.8C276.3 296.9 275.4 295.3 273.5 294.9L256.8 290.5 252.6 273.5 286.1 282.3C287.9 282.8 289.5 281.8 290 280S289.5 276.6 287.7 276.1L250.5 266.3 243.4 240.6 271.7 251.4 260.5 223.3 286.5 230.1 296.6 267.2C297.4 269.4 299.2 269.8 300.6 269.5 302 269.3 303.1 267.6 303 265.5L293.9 232.1 310 236.3 315 252.8C315.1 254.8 316.8 255.9 319 255.2 320.4 254.9 321.5 253.2 321.3 251.2L317.5 238.2 339.1 243.9C341 244.4 342.5 243.5 343 241.6S342.6 238.2 340.7 237.7L319.1 232 328.2 222.5C329 222.1 329.1 221.4 329.3 220.8 329.6 219.6 329.2 218.8 328.7 218 327.2 216.3 325.2 216.4 324 218.1L311.6 230.1 294.9 225.7 319.9 201.2C320.1 200.5 320.2 199.9 320.4 199.3 320.7 198.1 320.2 197.3 319.8 196.5 318.3 194.8 316.2 194.9 315.1 196.6L288.1 223.9 262.1 217.1 285.6 198.1 255.7 193.6 274.6 174.7 311.7 184.5C313.6 184.9 315.3 183.4 315.6 182.2 316.1 180.3 315.2 178.7 313.3 178.3L279.9 169.5 291.8 156.7 308.6 161.1C310.4 161.6 312 160.7 312.5 158.8S312 155.4 310.2 154.9L297.2 151.5 312.6 135.7C313.3 135.3 313.5 134.6 313.7 134 313.8 133.4 313.5 132 312.5 131.1 311.4 130.1 309.5 129.6 308.4 131.3ZM270.7 202.1L251.4 217.6 260.6 240.5 237.1 231.7 222.1 251 217.9 226.7 193.8 223 213 207.5 203.8 184.6 226.7 193.3 242.3 174.2 245.9 198.3 270.7 202.1Z" fill="rgba(56, 128, 255, 1)"></path><path d="M1109.9 308.4L1126.6 323.3 1113.9 328.1C1112.6 328.5 1111.6 330.2 1111.8 332.2 1112.9 333.7 1114.6 334.7 1116.1 333.7L1132.1 328.3 1145.7 339.4 1112.2 350.6C1110.7 351.6 1109.7 353.3 1110.1 354.7 1111 356.8 1112.8 357.8 1114.3 356.8L1151.2 344.4 1171.3 361.9 1141.4 368.5 1166.7 385.8 1141.5 394.7 1111.9 369.4C1112 368.8 1111.4 368.6 1110.7 368.5 1109.5 368.3 1108.1 368.7 1107.2 369.8 1106.4 370.9 1106.6 372.9 1107.6 374.4L1134.5 397.2 1117.9 402.5 1105 391.5C1104.5 390.8 1103.9 390.7 1103.2 390.5 1102.6 390.4 1101.2 390.8 1100.4 391.9 1099.5 393.1 1099.8 395.1 1100.9 396L1110.9 405 1089.8 412.7C1087.8 413 1087.5 414.9 1087.7 416.9 1088.1 418.3 1089.9 419.3 1092 418.4L1112.9 411.3 1110.4 424.5C1110 426.4 1111.7 428 1112.9 428.3 1114.8 428.6 1116.3 427.6 1116.7 425.7L1119.9 408.7 1136.6 403.5 1130.1 437.4C1129.7 439.3 1130.7 440.8 1132.6 441.2 1133.9 441.4 1136 440.5 1136.4 438.6L1143.6 400.9 1168.8 392.1 1159.9 421 1187.2 408 1182.1 434.4 1145.8 447C1143.7 447.9 1143.3 449.7 1143.7 451.1 1144.1 452.5 1145.9 453.5 1147.9 453.2L1180.8 441.3 1177.5 458.3 1161.4 464.3C1159.4 464.6 1158.4 466.3 1159.3 468.4 1159.7 469.8 1161.5 470.8 1163.6 469.9L1176.1 465.8 1171.9 487.8C1171.5 489.7 1172.5 491.2 1174.4 491.6S1177.8 490.9 1178.2 489L1182.4 467 1192.5 475.5C1194.1 477.1 1196.1 476.8 1197 475.7 1198.6 474.1 1198.4 472 1196.6 471.1L1183.8 459.5 1187.1 442.5 1213.3 465.8C1215 466.8 1217 466.5 1217.9 465.4 1219.5 463.7 1219.2 461.7 1217.5 460.7L1188.4 435.6 1193.5 409.2 1214 431.4 1216.5 401.2 1236.6 418.8 1229.4 456.5C1229 458.4 1230.7 460 1231.9 460.2 1233.8 460.6 1235.3 459.6 1235.7 457.7L1242.3 423.1 1255.7 434.8 1252.4 451.8C1252.1 453.7 1253.1 455.2 1255 455.6 1256.2 455.8 1258.4 454.9 1258.7 453L1261.3 439.8 1278.1 454.1C1279.7 455.7 1281.7 455.5 1282.7 453.7 1283.6 452.6 1283.9 450.7 1282.2 449.7L1265.5 434.8 1278.1 430C1279.5 429.6 1280.5 427.9 1280.1 426.5 1279.7 425.1 1278.6 424.3 1278 424.1 1277.3 424 1276.7 423.9 1276 424.4L1259.9 429.8 1246.4 418.7 1279.8 407.5C1281.3 406.5 1282.3 404.8 1281.9 403.4 1281.6 402 1280.4 401.1 1279.2 400.9 1278.5 400.8 1278.5 400.8 1277.8 401.3L1240.9 413.7 1220.8 396.2 1250.7 389.6 1225.4 372.3 1250.5 363.5 1280.2 388.7C1281.3 389.6 1283.2 389.9 1284.8 388.3 1285.7 387.2 1285.4 385.2 1284.4 383.7L1257.5 360.9 1274.2 355.6 1287.1 366.6C1288.1 368.1 1290.1 367.8 1291.7 366.2 1292.6 365 1292.3 363 1291.3 361.5L1281.2 353.1 1302.2 345.4C1304.2 345.1 1304.6 343.2 1304.3 341.2 1303.8 340.5 1302.7 339.6 1302 339.5 1301.4 339.4 1300.8 339.2 1300 339.7L1279.1 346.8 1281.7 333.6C1282 331.7 1280.4 330.1 1279.1 329.9L1279.1 329.9C1277.2 329.5 1275.7 330.5 1275.4 332.4L1272.1 349.4 1255.5 354.6 1262 320.7C1262.4 318.8 1261.3 317.3 1259.5 317S1256.1 317.6 1255.7 319.5L1248.5 357.2 1223.3 366 1232.1 337.1 1204.9 350.1 1209.9 323.7 1246.2 311.2C1248.4 310.3 1248.7 308.4 1248.3 307 1247.9 305.6 1246.2 304.6 1244.2 304.9L1211.4 316.2 1214.5 299.8 1230.7 293.8C1232.7 293.6 1233.7 291.8 1232.8 289.7 1232.4 288.3 1230.6 287.3 1228.6 287.6L1216 292.3 1220.2 270.3C1220.6 268.4 1219.5 266.9 1217.7 266.6S1214.3 267.2 1213.9 269.1L1209.7 291.1 1199.6 282.6C1199.1 281.9 1198.4 281.8 1197.8 281.6 1196.6 281.4 1195.8 281.9 1195.1 282.4 1193.4 284.1 1193.7 286.1 1195.5 287.1L1208.2 298.6 1205 315.6 1178.8 292.3C1178.2 292.2 1177.6 292.1 1176.9 292 1175.7 291.7 1174.9 292.2 1174.2 292.7 1172.6 294.4 1172.8 296.4 1174.6 297.4L1203.6 322.5 1198.6 348.9 1178.1 326.7 1175.5 356.9 1155.4 339.3 1162.7 301.6C1163.1 299.7 1161.4 298.1 1160.2 297.9 1158.3 297.5 1156.8 298.5 1156.4 300.4L1149.9 334.3 1136.4 323.3 1139.6 306.3C1140 304.4 1139 302.9 1137.1 302.6S1133.7 303.2 1133.3 305.1L1130.8 318.3 1114 304C1113.5 303.2 1112.9 303.1 1112.2 303 1111.6 302.9 1110.2 303.3 1109.4 304.4 1108.5 305.5 1108.1 307.4 1109.9 308.4ZM1183.1 341.4L1199.8 359.6 1222 348.9 1214.8 372.9 1235 386.5 1211.1 392.4 1209 416.7 1192.3 398.5 1170 409.3 1177.1 385.9 1157.1 371.6 1180.9 366.4 1183.1 341.4Z" fill="rgba(56, 128, 255, 1)"></path><path d="M377.4 279.9L402.9 260.8 414.4 262.7 405.8 269.2C404.7 269.6 404.7 270.9 405.2 272 405.8 272.6 407.2 272.9 407.8 272.2L419.9 263.6 431.3 265.1 424 274 409.2 275.6C409.2 275.6 408.8 275.7 408.8 275.7 408 276 407.6 277 407.5 277.9 408 279 408.6 279.6 409.9 279.6L420.6 278.4 413.3 287.2 381.8 291.1C381.8 291.1 381.2 290.9 381.2 290.9 380.5 291.2 380 292.2 380 293.1 380 294.4 381.2 295.2 382.3 294.7L409.9 291.6 401.4 302.7 389 304.1C389 304.1 389 304.1 388.7 304.3 387.9 304.6 387.3 305.2 387.2 306.1 387.7 307.2 388.5 308.2 389.8 308.1L397.9 307.1 391.7 315.1C390.7 316 391.1 317.1 391.8 317.7 392.6 318.6 393.9 318.6 394.7 317.4L401.1 309.7 401.7 317.6C402.1 318.8 402.9 319.7 404 319.3 405.3 319.2 405.9 318.6 405.8 317.3L404.4 305 413.1 294.2 416.4 322.2C416.3 323.1 417.5 323.9 418.7 323.8 419.5 323.5 420.4 322.7 420.4 321.4L416.5 289.9 423.8 281 425 291.7C425 292.9 426.1 293.4 427.3 293.3 428.2 293.4 429.1 292.2 429.1 291.3L427.2 276.6 434.3 267.4 438.6 278.2 432.7 291.6C432.3 292.7 432.7 293.8 433.7 294.2 434.4 294.8 435.9 294.3 436.3 293.2L440.6 283.4 444.9 294.2 431.9 323.4C431.4 324.4 431.9 325.5 432.9 326 433.9 326.4 435.1 326 435.5 324.9L446.9 299.4 451.9 312 447 323.4C446.5 324.5 446.9 325.6 448 326 449 326.5 450.1 326 450.6 325L454.1 317.6 457.8 326.9C458.2 328 459.3 328.5 460.4 328 461.5 327.6 461.9 326.6 461.5 325.4L457.8 316.1 465.1 319.3C466.1 319.7 467.3 319.3 467.7 318.3S467.7 316.1 466.7 315.7L455.8 310.9 450.6 297.9 476.1 308.9C477.1 309.4 478.2 309 478.7 307.9 479.1 306.9 478.7 305.8 477.7 305.3L448.6 292.7 444.3 281.9 454.2 286.2C455.2 286.6 456.4 286.2 456.8 285.2 457.3 284.1 456.8 283 455.8 282.5L442.3 276.7 438.2 266.3 449.2 268 458.2 279.9C458.8 280.5 460.2 280.8 460.8 280.1 461.8 279.3 461.9 278.4 461.4 277.3L455 268.7 466 270.3 485.1 295.9C485.9 296.9 486.8 297 487.9 296.5 488.9 295.7 488.8 294.4 488.6 293.7L471.9 271 485.7 273.3 492.9 283C493.4 284.1 494.6 284 495.7 283.6 496.3 282.9 496.6 281.5 495.8 280.5L491.2 274.2 501.1 275.4C502.2 275.9 503.1 275.1 503.4 273.6 503.5 272.8 502.7 271.8 501.8 271.7L491.7 270.1 498.4 265.3C499.4 264.5 499.3 263.2 498.7 262.6 498.2 261.5 497.3 261.4 496.6 261.7 496.2 261.9 496.2 261.9 495.8 262L486.2 269.3 472.4 267 494.7 250.4C495.8 250 495.8 248.7 495.3 247.6 494.7 247 493.8 246.9 493 247.2 492.6 247.4 492.6 247.4 492.6 247.4L466.6 266.3 455.6 264.6 464.2 258.2C465.2 257.3 465.3 256.4 464.8 255.3 464.2 254.7 463.1 254.3 462.4 254.6 462 254.7 462 254.7 461.6 254.9L449.7 263.9 438.7 262.2 445.6 253.5 460.3 251.5C461.6 251.5 462.4 250.3 462.5 249.4 462 248.3 461.2 247.3 460.1 247.7L449.4 248.9 456.1 239.8 488.2 236.2C489.1 236.3 490 235.1 490 234.2 489.6 233.1 488.8 232.1 487.5 232.2L459.9 235.3 468.6 224.6 480.6 223.3C481.8 223.3 482.7 222.1 482.2 221 482.3 220.1 481.5 219.1 480.2 219.2L472.1 220.2 478.3 212.2C478.9 211.5 478.9 210.2 478 209.3 477.5 209 476.6 209 475.9 209.3 475.9 209.3 475.5 209.4 475.2 209.6L468.9 217.6 467.8 209.4C467.9 208.6 466.7 207.7 465.8 207.6 465.4 207.8 465.4 207.8 465.4 207.8 464.3 208.2 463.9 209.3 464.2 210L465.4 222 456.9 233.1 453.6 205.1C453.2 204 452.5 203.4 451.3 203.5 451.3 203.5 450.9 203.6 450.9 203.6 450.1 203.9 449.5 204.6 449.6 205.9L453.1 237.6 446.2 246.3 445 235.6C444.6 234.5 443.8 233.5 442.6 234 442.5 233.6 442.1 233.8 442.1 233.8 441.4 234 440.9 235.1 440.9 236L442.8 250.7 435.5 259.6 431.4 249.2 437.3 235.7C437.7 234.6 437.2 233.1 436.1 232.7 435.2 232.6 434.1 233 433.5 233.7L429.4 243.9 425.1 233.1 437.7 204.1C438.2 203.1 437.8 201.9 436.7 201.5 435.7 201 434.6 201.5 434.1 202.5L423.1 227.9 417.9 214.9 422.7 204C423.1 203 422.7 201.9 421.6 201.4S419.5 201.4 419 202.4L415.9 209.7 412.2 200.4C411.8 199.3 410.7 198.8 409.6 199.3 408.5 199.7 408 200.8 408.5 201.9L412.2 211.2 404.5 208.2C404 207.9 403.5 207.7 403.1 207.9 402.7 208 402.1 208.7 401.9 209.2 401.5 210.2 401.9 211.3 402.9 211.8L414.2 216.4 419.3 229.4 393.5 218.5C393 218.3 392.5 218.1 392.1 218.2 391.8 218.4 391.2 219 390.9 219.5 390.5 220.6 390.9 221.7 392 222.1L421.4 234.6 425.7 245.4 415.6 240.8C415.1 240.5 414.4 240.8 414 241 413.6 241.1 413.3 241.3 413 241.8 412.6 242.8 413.2 244.3 414.1 244.4L427.7 250.6 431.8 261 420.5 259.5 411.8 247.4C411.2 246.8 410.1 246.4 409.4 246.7 409 246.8 409 246.8 409.2 247.2 408 247.6 407.7 249 408.5 250L415 258.7 403.6 257.1 384.7 231C384.1 230.4 383.2 230.3 382.4 230.6 382 230.8 382 230.8 382 230.8 381.1 231.6 380.6 232.6 381.4 233.6L398.1 256.3 384.3 254 377.1 244.4C376.3 243.4 375.4 243.3 374.6 243.6 374.6 243.6 374.3 243.7 374.3 243.7 373.3 244.6 373.4 245.8 373.7 246.6L378.8 253.1 368.7 251.5C368.4 251.7 368 251.8 367.6 252 367.2 252.1 366.6 252.8 366.4 253.3 366.5 254.6 366.9 255.7 368.2 255.6L378.3 257.2 371.6 262C370.6 262.8 370.7 264.1 371 264.8 371.8 265.8 373 265.7 374.2 265.3L383.8 258.1 397.4 260 375.1 276.5C374.2 277.3 373.9 278.7 374.5 279.3 375.3 280.3 376.4 280.7 377.4 279.9Z" fill="rgba(56, 128, 255, 1)"></path><path d="M124.1 569.2L129.5 560.8 132.8 566.7C133.1 567.3 134.1 567.7 135 567.4 135.7 566.8 136.1 565.9 135.8 565.2L131.6 557.3 136.7 549.5 145 565.6C145.6 566.5 146.6 566.9 147.3 566.3 148.2 566 148.6 565.1 148 564.1L138.7 546.4 143.2 539.2 162.7 540 166.3 546.5 154.7 564.3C154.7 564.7 154.7 565 154.7 565.3 154.6 565.6 154.9 566.3 155.2 566.6 156.2 567.3 157.2 567 157.5 566.1L168.1 549.8 172.2 558 167.1 566.4C166.8 566.4 166.8 566.7 166.8 567.1 166.7 567.7 167 568.3 167.7 568.7 168.3 569 169.3 568.8 169.9 568.1L174 561.3 179.4 571.4C179.7 572 180.6 572.4 181.6 572.1 182.3 571.5 182.6 570.6 182.3 569.9L177.3 560.4 184 560.7C184.9 560.7 185.6 559.8 185.6 559.2 185.7 558.2 185.1 557.2 184.1 557.2L175.5 556.8 171.3 548.7 189.2 549.4C190.2 549.4 190.9 548.8 190.9 547.8 190.9 546.9 190.3 546.2 189.4 546.2L169.5 545.4 165.6 538.5 176.2 522 183.6 522.2 193.1 540.2C193.4 541.2 194.7 541.6 195.3 541 196.3 540.7 196.3 539.7 196.1 538.7L187.4 522.4 196.7 522.8 200.8 530.9C201.1 531.6 202.4 531.9 203.1 531.7S204.1 530.1 203.8 529.1L200.5 522.9 211.7 523.3C212.7 523.4 213.3 522.5 213.4 521.5 213.4 520.9 212.8 519.9 211.8 519.8L200.7 519.4 204.4 513.1C204.8 512.5 204.8 511.5 203.9 510.9 203.2 510.5 202 510.8 201.6 511.4L196.8 519.2 187.5 518.9 197.4 503.3C197.8 502.3 197.8 501.3 196.9 500.7 196.3 500.3 195 500.6 194.6 501.2L183.7 518.7 176.4 518.4 167.1 501.1 171.5 494.5 191.4 495.3C192.3 495.4 193 494.7 193 493.8 193.1 492.8 192.5 491.8 191.5 491.8L173.6 491.1 178.4 483.3 187 483.6C188 483.7 188.6 483.1 188.7 482.1 188.7 481.1 188.1 480.5 187.1 480.4L180.4 480.2 186.2 471.1C186.6 470.5 186.3 469.2 185.7 468.8 184.7 468.5 183.8 468.4 183.4 469.4L177.3 478.8 173.7 471.9C173.1 471.2 172.1 470.9 171.5 471.2 170.8 471.5 170.5 472.1 170.5 472.7 170.5 472.7 170.5 473 170.8 473.4L175.2 482.2 170.4 490 161.2 473C160.9 472 159.9 471.7 159 472.3 158.6 472.6 158.3 472.9 158.3 473.5 158.3 473.9 158.2 474.2 158.2 474.5L168.4 493.1 164.3 499.4 144.8 498.6 140.9 491.1 151.5 474.2C152.2 473.3 151.9 472.3 151 472 150.3 471.3 149.4 471.6 148.7 472.5L139.1 487.8 134.6 479.6 139.4 472.1C139.8 471.5 139.5 470.6 138.9 469.9 137.9 469.5 137 469.5 136.6 470.4L132.9 476.1 128.1 467.2C127.8 466.2 126.8 466.2 125.9 466.5 125.5 466.8 125.2 467.4 125.2 468.1 125.2 468.1 125.2 468.4 125.1 468.7L130.2 478.2 122.2 477.9C121.6 477.9 120.6 478.5 120.6 479.4 120.5 480.4 121.5 481.1 122.1 481.1L132 481.5 136.5 489.6 117 488.9C116 488.8 115.4 489.8 115.3 490.7S115.9 492.4 116.9 492.4L138.3 493.2 141.8 500.1 131.3 516.7 123 516.3 113.4 498C112.8 497.4 111.9 497 110.9 497.3 110.6 497.6 110.2 498.2 110.2 498.9 110.2 499.2 110.2 499.5 110.5 499.8L119.1 516.2 109.8 515.8 105.4 507.6C105.1 507 104.1 506.6 103.2 506.9 102.5 507.5 102.1 508.5 102.4 509.1L106 515.7 95.8 515.3C95.1 515.2 94.1 516.2 94.1 516.8 94.1 517.8 95 518.8 95.6 518.8L105.9 519.2 101.8 525.1C101.8 525.4 101.8 525.8 101.8 526.1 101.7 526.7 102 527.4 102.3 527.7 103.3 528.1 104.3 527.8 104.9 527.2L109.7 519.3 119 519.7 109.1 535.3C108.4 536.3 108.7 537.2 109.3 537.6 110.2 538.3 111.2 538 111.9 537.4L122.8 519.9 131.1 520.2 140.4 537.5 136.3 544.1 114.9 543.2C113.9 543.2 113.2 543.8 113.2 544.8 113.2 545.7 113.8 546.4 114.7 546.4L134.2 547.2 129.1 555 119.2 554.6C118.6 554.6 117.6 555.5 117.5 556.5 117.5 557.4 118.4 558.1 119.1 558.1L127.1 558.5 121.3 567.5C121.3 567.8 121.3 567.8 121.2 568.1 121.2 568.8 121.5 569.4 121.8 569.8 122.8 570.1 123.7 569.8 124.1 569.2ZM135 520.3L134.1 518.4 135.1 516.8 143.6 503.4 144.7 501.8 146.6 501.9 162.3 502.5 164.2 502.6 165.1 504.2 172.5 518.3 173.4 519.9 172.4 521.8 163.9 534.9 162.8 536.8 160.9 536.7 145.2 536.1 143.3 536 142.4 534.1 135 520.3Z" fill="rgba(56, 128, 255, 1)"></path><path d="M796.6 450.1L763.7 411 765.6 392.5 776.7 405.7C777.5 407.4 779.5 407.2 781.3 406.4 782.1 405.3 782.5 403 781.4 402.1L766.5 383.6 767.9 365.3 782.7 376.1 786.6 399.7C786.6 399.7 786.9 400.2 786.9 400.2 787.4 401.4 789.1 402 790.5 402.1 792.3 401.3 793.2 400.1 792.9 398.1L790 381.1 804.9 391.9 814 442C814 442 813.7 442.8 813.7 442.8 814.2 444 815.9 444.6 817.4 444.7 819.4 444.4 820.6 442.5 819.8 440.7L812.2 397 830.7 409.5 834.1 429.1C834.1 429.1 834.1 429.1 834.4 429.7 834.9 430.9 836.1 431.7 837.5 431.8 839.2 431 840.7 429.6 840.5 427.6L838 414.6 851.5 423.9C852.9 425.4 854.6 424.6 855.5 423.4 857 422 856.7 420 854.8 418.8L841.9 409.3 854.5 407.7C856.3 406.8 857.7 405.5 856.9 403.7 856.7 401.7 855.6 400.8 853.6 401L834 404.5 816 391.6 860.4 383.8C861.8 383.8 863 381.8 862.8 379.8 862.2 378.7 860.9 377.2 858.8 377.4L808.7 386.6 793.9 375.8 810.9 372.9C812.9 372.7 813.5 371 813.3 368.9 813.3 367.5 811.3 366.3 809.9 366.3L786.6 370.7 771.1 360.3 788 352.5 810.1 360.5C811.8 361.2 813.5 360.4 814.1 358.7 815 357.5 814 355.2 812.3 354.6L796.1 348.7 812.9 340.9 860.8 358.9C862.5 359.5 864.3 358.7 864.9 357 865.5 355.3 864.7 353.5 863 352.9L821.1 337.1 840.8 327.9 859.5 334.8C861.2 335.4 863 334.6 863.6 332.9 864.2 331.2 863.4 329.5 861.7 328.8L849.5 323.9 864 317.2C865.8 316.4 866.4 314.7 865.6 312.9 864.8 311.2 863.1 310.6 861.3 311.4L846.8 318.1 851.2 306.2C851.8 304.5 851 302.8 849.3 302.1S845.9 302.3 845.2 304L838.7 321.9 818.4 331.3 833.6 289.6C834.3 287.9 833.4 286.2 831.7 285.6 830 285 828.3 285.8 827.7 287.5L810.3 335.1 793.4 342.9 799.3 326.7C800 325 799.1 323.3 797.4 322.7 795.7 322 794 322.8 793.4 324.5L785.3 346.6 769 354.2 770.7 336.5 788.9 321C789.8 319.9 790.2 317.6 789 316.7 787.6 315.2 786.2 315.2 784.5 316L771.3 327.1 772.9 309.3 812 276.4C813.4 275 813.5 273.6 812.7 271.9 811.3 270.4 809.3 270.6 808.1 271.1L773.5 299.9 775.9 277.6 790.5 265.2C792.3 264.4 792.1 262.4 791.2 260.6 790.1 259.7 787.8 259.4 786.4 260.8L776.7 268.8 777.7 252.8C778.4 251.1 777 249.6 774.7 249.3 773.3 249.2 771.8 250.6 771.7 252L770.1 268.3 761.8 258.1C760.4 256.6 758.4 256.8 757.5 257.9 755.8 258.7 755.8 260.2 756.3 261.3 756.6 261.9 756.6 261.9 756.8 262.5L769.3 277.2 766.9 299.4 738.4 265.4C737.6 263.6 735.6 263.9 733.9 264.7 733 265.8 732.9 267.2 733.5 268.4 733.7 269 733.7 269 733.7 269L766.4 308.9 764.7 326.6 753.6 313.4C752.2 311.9 750.8 311.8 749.1 312.7 748.2 313.8 747.5 315.5 748.1 316.6 748.4 317.2 748.4 317.2 748.6 317.8L764.1 336 762.5 353.7 747.9 343.5 743.4 320.2C743.2 318.2 741.2 317 739.8 317 738 317.8 736.6 319.2 737.4 320.9L740.3 337.9 725.1 328 716.3 277.1C716.4 275.6 714.4 274.4 713 274.4 711.2 275.2 709.7 276.6 710 278.6L717.6 322.3 699.6 309.5 696.5 290.5C696.2 288.5 694.3 287.3 692.5 288.1 691.1 288.1 689.6 289.4 689.8 291.5L692.3 304.4 678.8 295.1C677.7 294.3 675.7 294.5 674.2 295.9 673.9 296.7 673.9 298.1 674.4 299.3 674.4 299.3 674.7 299.9 675 300.5L688.4 309.7 675.5 312.2C674.1 312.2 672.9 314.2 672.8 315.6 673.1 316.2 673.1 316.2 673.1 316.2 673.9 317.9 675.6 318.5 676.7 318L695.7 314.8 714.3 327.4 669.9 335.3C668.2 336.1 667.3 337.2 667.5 339.2 667.5 339.2 667.8 339.8 667.8 339.8 668.3 340.9 669.5 341.8 671.5 341.6L721.8 333.1 736.4 343.2 719.4 346.2C717.7 347 716.2 348.3 717 350.1 716.5 350.4 716.7 350.9 716.7 350.9 717.3 352.1 719 352.7 720.4 352.8L743.7 348.3 758.6 359 742.3 366.6 720.2 358.5C718.5 357.9 716.2 358.9 715.6 360.6 715.5 362.1 716.4 363.8 717.5 364.7L734.2 370.4 717.4 378.2 669.8 360.7C668.1 360.1 666.3 360.9 665.7 362.6 665.1 364.3 665.9 366.1 667.6 366.7L709.2 381.9 688.9 391.4 671.1 384.8C669.4 384.2 667.6 385 667 386.7S667.2 390.2 668.9 390.8L680.8 395.1 666.3 401.9C664.5 402.7 663.9 404.4 664.7 406.1 665.5 407.9 667.2 408.5 669 407.7L683.5 400.9 679.4 413.4C679.1 414.3 678.8 415.1 679 415.7 679.3 416.3 680.4 417.2 681.3 417.5 683 418.1 684.7 417.3 685.3 415.6L691.6 397.2 711.9 387.7 697 430C696.6 430.8 696.3 431.7 696.6 432.2 696.9 432.8 698 433.7 698.8 434 700.5 434.7 702.3 433.8 702.9 432.1L720.1 384 736.9 376.2 730.4 392.6C730.1 393.4 730.6 394.6 730.9 395.2 731.2 395.7 731.4 396.3 732.3 396.6 734 397.3 736.3 396.2 736.4 394.8L745 372.4 761.3 364.8 759.9 383.1 741.4 398C740.5 399.2 739.9 400.9 740.4 402 740.7 402.6 740.7 402.6 741.3 402.3 742.1 404.1 744.4 404.4 745.8 403L759.1 392 757.7 410.3 717.8 442.9C716.9 444 716.8 445.4 717.4 446.6 717.6 447.2 717.6 447.2 717.6 447.2 719 448.6 720.7 449.3 722.2 447.9L756.8 419.1 754.5 441.4 739.8 453.8C738.3 455.2 738.3 456.7 738.8 457.8 738.8 457.8 739.1 458.4 739.1 458.4 740.5 459.9 742.5 459.6 743.6 459.1L753.6 450.2 752 466.5C752.3 467.1 752.5 467.7 752.8 468.2 753.1 468.8 754.2 469.7 755.1 470 757.1 469.8 758.8 469 758.6 467L760.2 450.7 768.5 461C769.9 462.4 771.9 462.2 773.1 461.7 774.5 460.3 774.3 458.3 773.5 456.5L761 441.9 762.8 419.9 791.3 453.9C792.7 455.4 795 455.7 795.9 454.6 797.4 453.2 798 451.5 796.6 450.1Z" fill="rgba(56, 128, 255, 1)"></path><path d="M512.9 517L506.8 491.3 510.4 484.9 526.7 485.3 530.4 491.8 522.8 517.2C522.8 517.5 522.8 517.5 522.8 517.9 522.8 518.5 523.1 519.1 524.1 519.5 525 519.5 525.7 519.2 526 518.2L532.6 496 538.1 506 535.4 515.9C535.4 515.9 535.3 516.2 535.3 516.2 535.3 516.8 535.6 517.5 536.6 517.8 537.2 518.2 538.2 517.5 538.5 516.6L540.6 510.2 544.6 517.7C544.9 518.3 545.9 518.7 546.8 518.4S547.8 516.8 547.5 515.8L543.5 508.7 549.9 510.4C550.8 510.8 551.8 510.2 552.1 509.2 552.2 508.6 551.9 507.6 550.9 507.3L541 504.5 535.5 494.1 557.8 500.7C558.7 501 559.7 500.4 560 499.8 560 498.8 559.7 497.8 558.8 497.5L533.3 490.2 529.7 483.4 537.9 469.8 545.6 470 564.1 489C564.7 489.6 565.7 489.7 566.3 489S567 487.4 566.4 486.8L550.1 470.1 561.9 470.4 568.8 477.6C569.5 478.2 570.4 478.2 571.4 477.6S572.1 476 571.4 475.4L566.4 470.5 575.1 470.7C576 470.7 576.7 469.7 576.7 468.8 576.7 467.8 576.1 467.2 575.1 467.1L566.5 466.9 571.4 462.2C572.4 461.6 572.4 460.7 571.4 460 570.8 459.4 569.9 459.3 569.2 460L562 466.8 550.2 466.6 567.2 450.6C567.8 450 567.9 448.7 567.2 448.1S565.6 447.4 565 448L545.7 466.5 538 466.3 530.3 452.1 534.3 445.8 560 439.6C561 439.3 561.4 438.3 561.4 437.4 561.1 436.4 560.1 436.1 559.2 436.1L536.6 441.7 542.6 431.9 552.6 429.5C553.6 429.2 553.9 428.3 553.9 427.3 553.6 426.7 552.7 426 551.7 426.3L545.3 427.8 549.6 420.5C549.9 419.9 549.6 418.9 549 418.2 548 417.9 547.1 418.2 546.7 418.8L542.4 426.1 540.6 419.3C540.3 418.7 539.4 418 538.7 418.3 537.8 418.3 537.4 418.9 537.4 419.9 537.4 419.9 537.4 420.2 537.4 420.2L539.8 430.2 533.8 440 528.2 417.5C527.9 416.5 527.3 415.8 526.3 416.1 525.3 416.4 525 417.1 525 417.7 525 418 525 418 525 418L531.5 444.1 527.5 450.4 511.2 450.1 507.8 443.6 515.1 417.8C515.4 417.2 514.8 416.2 514.1 415.9 513.2 415.5 512.2 416.2 511.9 417.1L505.3 439.4 499.8 429.3 502.5 419.5C502.9 418.5 502.6 417.5 501.6 417.5 500.7 417.2 499.7 417.8 499.4 418.4L497.6 425.1 493.6 417.7C493 417 492 416.7 491.1 417 490.8 417.3 490.4 417.9 490.4 418.6 490.4 418.9 490.4 418.9 490.7 419.2L494.7 426.7 488 424.9C487.1 424.6 486.4 425.2 486.1 425.8 486.1 426.2 486.1 426.2 486.1 426.5 486.1 427.1 486.4 427.8 487 428.1L496.9 430.9 502.4 440.9 480.1 434.3C479.2 434.3 478.2 434.6 478.2 435.6 477.9 435.9 477.9 435.9 477.9 436.2 477.8 436.9 478.5 437.5 479.1 437.8L504.9 445.1 508.3 451.6 500 465.5 492.6 465.3 474.1 446.1C473.5 445.4 472.2 445.4 471.6 446S470.9 447.9 471.5 448.6L487.8 465.2 476.3 465 469.1 457.8C468.4 457.1 467.5 457.1 466.8 457.7 466.2 458.4 466.2 459.3 466.8 460L471.5 464.9 462.8 464.7C462.2 464.7 461.2 465.3 461.2 466.3 461.2 467.2 462.1 468.2 462.8 468.2L471.4 468.4 466.5 473.1C466.2 473.4 465.8 473.7 465.8 474 465.8 474.7 466.1 475 466.5 475.3 467.1 476 468 476 468.7 475.4L476.2 468.5 487.7 468.8 470.7 484.7C470.4 485 470.4 485.3 470.4 486 470.4 486.3 470.4 486.6 470.7 487 471.3 487.6 472.6 487.6 473.2 487L492.5 468.9 499.9 469 507.6 483 503.9 489.6 477.9 495.8C477.2 496.1 476.6 496.7 476.5 497.3 476.5 497.6 476.5 497.6 476.9 497.7 476.8 498.6 477.8 499.3 478.7 499L501.3 493.4 495.3 503.5 485.3 505.8C484.7 506.1 484.3 506.8 484.3 507.4 484.3 507.4 484.3 507.7 484.3 507.7 484.3 508.7 485.2 509.4 486.2 509.1L493 507.3 488.6 514.6C488.3 514.9 488.3 515.2 488.3 515.5 488.3 516.1 488.6 516.8 488.9 516.8 489.9 517.5 490.8 517.2 491.5 516.5L495.8 509.3 497.3 515.7C497.6 516.7 498.5 517.3 499.5 517 500.1 516.7 500.8 515.8 500.5 515.1L498.1 505.2 504.1 495.4 509.7 517.9C510 518.9 511 519.2 511.9 519.2 512.6 518.9 513.2 518 512.9 517ZM524.9 481.7L512.4 481.5 510.5 481.4 509.6 479.8 503.7 469.1 502.8 467.2 503.8 465.6 510.1 455.2 511.1 453.6 513 453.6 525.5 453.9 527.4 453.9 528.3 455.6 534.2 466.2 535.1 467.9 534.1 469.8 527.8 480.2 526.8 481.8 524.9 481.7Z" fill="rgba(56, 128, 255, 1)"></path><path d="M898.4 48.1L888.2 72.6 866.2 81.4 869.5 58 890.9 42.2C890.9 42.2 891.1 41.9 891.1 41.9 891.5 41.4 891.4 40.5 891.1 39.9 890.5 39 889.4 38.9 888.8 39.7L870.2 53.6 871.8 42.2 879.9 36C879.9 36 880.1 35.7 880.1 35.7 880.5 35.2 880.4 34.3 880.1 33.7 879.5 32.8 878.4 32.7 877.8 33.5L872.1 37.6 873.4 29.2C873.5 28.5 872.7 27.5 872 27.4 871.1 27 870.3 28 870.1 28.7L868.9 37.1 864.8 31.4C864.2 30.6 863.1 30.5 862.5 31.2 861.6 31.8 861.5 32.9 862.3 33.5L868.5 41.7 866.7 52.8 852.8 34.2C852.2 33.4 851.1 33.3 850.5 34 849.6 34.6 849.6 35.8 850.3 36.3L866.1 57.7 862.8 81.1 843.9 66.3 840.7 39.8C840.6 38.9 839.8 38.3 838.9 38.4 838 38.5 837.4 39.3 837.6 40.2L840.4 63.5 831.3 56.4 830.1 46.5C830 45.6 829.3 45 828.4 45.1 827.5 45.2 826.9 46 827 46.9L827.8 53.6 820.7 48.1C820.2 47.3 819.1 47.6 818.5 48.4 817.9 49.1 818 50 818.8 50.6L825.3 55.8 818.6 56.6C817.7 56.7 817.1 57.4 817.2 58.3S818 59.8 818.9 59.7L828.8 58.5 837.9 65.6 814.5 68.5C813.6 68.6 813 69.3 813.1 70.2 813.2 71.1 814 71.7 814.9 71.6L841.4 68.4 860 83 838.1 91.8 814.3 81.7C813.3 81.4 812.5 81.9 811.9 82.7 811.6 83.6 812.1 84.5 812.9 85.1L834.2 94.1 823.6 98.4 814.2 94.2C813.2 93.9 812.4 94.5 811.8 95.2 811.5 96.2 812 97 812.5 97.4L819 100 811.2 103.3C810.5 103.6 809.7 104.6 810.3 105.4 810.9 106.3 811.6 106.9 812.5 106.3L820.3 103.1 817.6 109.6C817.3 110.5 817.8 111.4 818.3 111.7 819.1 111.9 819.9 111.8 820.3 111.3 820.3 111.3 820.5 111 820.5 111L824.7 101.6 835.3 97.4 826.3 118.8C825.9 119.7 826.5 120.6 827 121 827.7 121.1 828.6 121 829 120.5 829 120.5 829.2 120.2 829.2 120.2L839.4 95.8 861.4 87 858.1 110.4 836.7 126.2C835.9 126.7 835.8 127.9 836.5 128.5 837.1 129.3 838.2 129.4 838.8 128.7L857.5 114.8 855.9 126.2 847.7 132.4C846.9 132.9 846.8 134.1 847.5 134.7 848.1 135.5 849.2 135.6 849.8 134.9L855.5 130.8 854.2 139.1C854.1 139.8 854.9 140.9 855.6 141 856.3 141.1 856.9 140.8 857.3 140.3 857.5 140.1 857.7 139.8 857.7 139.4L859 131 863.1 136.7C863.6 137.5 864.8 137.6 865.4 136.9 865.4 136.9 865.5 136.6 865.5 136.6 865.9 136.1 865.8 135.2 865.5 134.6L859.3 126.4 860.9 115.1 874.8 133.7C875.3 134.5 876.5 134.6 877.1 133.9 877.1 133.9 877.3 133.6 877.3 133.6 877.7 133.1 877.6 132.2 877.2 131.6L861.5 110.2 864.8 86.8 883.4 101.4 886.6 127.9C886.7 128.8 887.5 129.4 888.4 129.3 889.3 129.2 889.9 128.5 889.8 127.6L887.2 104.4 896.3 111.5 897.4 121.4C897.6 122.3 898.3 122.9 899.2 122.8S900.7 121.9 900.6 121L899.8 114.3 906.3 119.4C907.1 120 908 119.9 908.6 119.1 909.2 118.4 909.1 117.5 908.3 116.9L901.8 111.8 908.5 110.9C909 110.9 909.4 110.8 909.8 110.3S910.1 109.4 910.1 108.9C910 108 909.2 107.4 908.3 107.5L898.4 108.7 889.4 101.6 912.7 98.8C913.2 98.8 913.6 98.7 914 98.2 914.2 98 914.4 97.2 914.3 96.8 914.2 95.9 913.5 95.3 912.6 95.4L886.1 98.6 867.4 84 889.4 75.2 913.9 85.5C914.6 85.6 915.5 85.5 915.9 85 915.9 85 916.1 84.7 916.1 84.7 916.4 83.8 915.8 82.9 915.3 82.5L894 73.5 904.6 69.2 914 73.4C914.7 73.5 915.6 73.4 916 72.9 916 72.9 916.2 72.6 916.2 72.6 916.5 71.7 916 70.8 915.5 70.5L909 67.8 916.8 64.6C917 64.3 917.5 64.3 917.7 64 918.1 63.5 918.2 62.8 917.9 62.2 917.4 61.3 916.6 60.7 915.8 61.3L907.9 64.5 910.6 58.1C910.9 57.1 910.4 56.3 909.9 55.9 908.9 55.5 908.1 56.1 907.7 56.6L903.6 66 892.9 70.2 902 48.8C902.3 47.9 901.7 47 901.2 46.6 899.9 46.8 898.8 47.2 898.4 48.1Z" fill="rgba(56, 128, 255, 1)"></path><path d="M944 508.2L937.2 500.8 943.7 499.1C944.4 498.9 945 498.1 945 497.1 944.6 496.3 943.7 495.7 943 495.8L934.4 497.9 928.1 491 945.7 487C946.8 486.6 947.4 485.8 946.9 485 946.9 484 946.1 483.4 945 483.7L925.6 488.3 919.7 482.2 925.3 463.5 932.5 461.6 946.9 477.3C947.2 477.4 947.5 477.5 947.8 477.6 948.1 477.7 948.8 477.5 949.2 477.3 950.1 476.6 950.1 475.6 949.3 475L936.2 460.7 945.1 458.7 952 465.8C951.9 466.1 952.2 466.2 952.5 466.3 953.1 466.5 953.8 466.3 954.3 465.8 954.8 465.3 954.8 464.3 954.4 463.5L948.7 457.8 959.9 455.1C960.6 455 961.2 454.2 961.1 453.2 960.7 452.4 959.9 451.8 959.2 451.9L948.7 454.5 950.6 448C950.9 447.1 950.2 446.2 949.6 446 948.7 445.8 947.5 446.1 947.3 447L944.8 455.3 935.8 457.3 941 440.1C941.3 439.2 940.8 438.4 939.9 438.1 939 437.9 938.2 438.3 937.9 439.2L932.2 458.2 924.6 460.3 911.2 445.9 913.3 438.9 933.1 434.1C934.1 434.1 934.8 432.9 934.4 432.1 934.3 431.1 933.4 430.8 932.4 430.9L914.4 435.2 917.1 426.3 926 424.3C926.7 424.2 927.4 423 927.3 422.3S926 420.9 925 421L918.2 422.6 921.4 411.9C921.6 411 920.9 410.1 920 409.8 919.4 409.6 918.3 410 918 410.9L914.8 421.6 909.7 416.4C909.1 415.9 908.2 415.6 907.3 416.4 906.8 416.9 906.8 418.2 907.3 418.7L913.7 425.3 911 434.2 898.4 420.7C897.5 420.1 896.6 419.8 895.7 420.6 895.2 421.1 895.2 422.4 895.7 422.9L909.9 437.9 907.8 444.9 888.7 449.5 883.5 443.6 889.2 424.6C889.4 423.7 889 422.9 888.1 422.6 887.2 422.4 886.1 422.7 885.8 423.6L880.7 440.8 874.3 434.2 876.8 425.9C877 425 876.6 424.2 875.7 423.9 874.8 423.7 874 424.1 873.7 425L871.8 431.4 864.4 423.6C863.9 423.1 862.6 423 862.1 423.5 861.5 424.4 861.2 425.3 862.1 425.9L869.6 434.1 862.1 435.9C861.3 436.3 860.7 437.2 860.8 437.9 861 438.6 861.5 439.1 862.1 439.2 862.1 439.2 862.4 439.3 862.8 439.1L872.4 437 878.8 443.6 860 448.3C859 448.3 858.4 449.2 858.8 450.3 859 450.7 859.2 451.1 859.8 451.3 860.1 451.3 860.4 451.4 860.8 451.5L881.3 446.3 886.4 451.8 880.8 470.5 872.5 472.4 858.8 458C858.1 457.1 857.1 457.1 856.5 457.9 855.7 458.4 855.7 459.4 856.5 460.3L868.9 473.3 859.9 475.7 853.8 469.2C853.3 468.7 852.3 468.7 851.5 469.1 850.9 470 850.6 470.9 851.4 471.5L856 476.5 846.2 478.9C845.2 478.9 844.9 479.9 845 480.9 845.2 481.3 845.7 481.8 846.3 482 846.3 482 846.6 482 846.9 482.1L857.4 479.6 855.1 487.2C854.9 487.9 855.2 489 856.2 489.2 857.1 489.5 858 488.8 858.1 488.2L861 478.7 870 476.4 864.4 495.1C864.2 496 864.9 496.9 865.8 497.1S867.5 497 867.8 496.1L874 475.5 881.5 473.8 894.9 488.1 892.5 496.1 872.4 500.8C871.6 501.2 871 502 871.1 503 871.3 503.4 871.8 503.9 872.4 504.1 872.7 504.2 873 504.3 873.4 504.1L891.4 499.8 888.8 508.7 879.7 511C879 511.1 878.4 511.9 878.5 512.9 878.9 513.7 879.7 514.3 880.4 514.2L887.7 512.4 884.7 522.2C884.5 522.8 885.2 524 885.8 524.2 886.7 524.4 887.9 523.8 888.1 523.2L891 513.4 895.7 518.8C896.1 518.9 896.4 519 896.7 519.1 897.3 519.2 898 519.1 898.4 518.9 899 518.1 898.9 517.1 898.5 516.3L892.1 509.7 894.8 500.8 907.5 514.3C908.2 515.2 909.2 515.1 909.7 514.6 910.6 513.9 910.5 512.9 910.1 512.1L895.9 497.1 898.3 489.1 917.4 484.5 922.7 490.1 916.6 510.6C916.3 511.6 916.7 512.4 917.6 512.6 918.5 512.9 919.3 512.5 919.6 511.6L925.2 492.9 931.5 499.7 928.7 509.3C928.5 509.9 929.1 511.1 930 511.3 931 511.6 931.8 510.9 932 510.3L934.3 502.6 941.7 510.5C942 510.6 942 510.6 942.3 510.6 942.9 510.8 943.6 510.7 944 510.5 944.6 509.7 944.5 508.7 944 508.2ZM899.4 485.5L897.3 485.8 896 484.5 885.1 472.8 883.8 471.5 884.4 469.6 888.9 454.6 889.4 452.8 891.2 452.3 906.7 448.6 908.5 448.1 910.1 449.6 920.7 461.1 922.2 462.6 921.7 464.4 917.2 479.4 916.7 481.3 914.5 481.6 899.4 485.5Z" fill="rgba(56, 128, 255, 1)"></path><path d="M1342.5 347.5L1352.7 352.2 1347.3 356.3C1346.7 356.7 1346.5 357.7 1346.9 358.6 1347.6 359.2 1348.6 359.4 1349.2 358.7L1356.1 353.8 1364.1 357.2 1349.8 367.3C1349.2 368.1 1349 369 1349.4 369.6 1350.1 370.5 1351.1 370.8 1351.7 370L1367.5 358.7 1379.7 364.2 1366.3 371.7 1381 376.3 1370.2 384.2 1352.3 376.4C1352.3 376.1 1352 376.1 1351.7 376.2 1351 376.2 1350.4 376.6 1350.2 377.3 1349.9 378 1350.3 378.9 1351 379.4L1367.2 386.4 1360 391.4 1352.3 388C1351.9 387.7 1351.6 387.8 1351.3 387.8 1350.9 387.8 1350.3 388.2 1350.1 388.9 1349.8 389.5 1350.3 390.5 1350.9 390.7L1357 393.6 1348.1 400.3C1347.2 400.8 1347.3 401.7 1347.7 402.6 1348.1 403.2 1349 403.5 1349.9 402.7L1358.9 396.3 1359.6 403C1359.7 404 1360.7 404.5 1361.4 404.4 1362.3 404.3 1362.9 403.6 1362.8 402.7L1361.9 394.1 1369.1 389.1 1370.9 406.3C1371 407.3 1371.7 407.8 1372.7 407.7 1373.3 407.7 1374.2 406.9 1374.1 406L1372.1 386.9 1382.8 379 1382.8 394.1 1394 384 1395.4 397.3 1379.8 408.6C1378.9 409.3 1379 410.3 1379.4 410.9 1379.8 411.5 1380.8 411.7 1381.7 411.3L1395.7 400.8 1396.6 409.4 1389.8 414.6C1388.9 415.1 1388.6 416.1 1389.4 416.9 1389.8 417.5 1390.8 417.8 1391.6 417L1397 413.2 1398.2 424.4C1398.3 425.3 1399 425.9 1400 425.8S1401.5 425 1401.4 424L1400.2 412.9 1406.3 415.5C1407.3 416 1408.2 415.6 1408.5 414.9 1409 413.9 1408.6 413 1407.6 412.8L1399.8 409.1 1398.9 400.5 1414.8 407.8C1415.8 408.1 1416.7 407.6 1417 407 1417.5 406 1417.1 405 1416.1 404.8L1398.6 397 1397.2 383.6 1410.2 391.3 1407 376.5 1419.2 382 1421.2 401.1C1421.3 402 1422.3 402.6 1422.9 402.5 1423.9 402.4 1424.5 401.7 1424.4 400.7L1422.5 383.2 1430.6 386.9 1431.5 395.5C1431.6 396.4 1432.3 397 1433.3 396.9 1433.9 396.8 1434.8 396.1 1434.7 395.1L1434 388.5 1444.1 392.9C1445.2 393.4 1446.1 393 1446.3 392 1446.5 391.3 1446.4 390.4 1445.5 390.2L1435.3 385.4 1440.7 381.3C1441.3 380.9 1441.5 380 1441.1 379.4 1440.7 378.8 1440.1 378.5 1439.7 378.5 1439.4 378.6 1439.1 378.6 1438.8 379L1431.9 383.9 1423.9 380.5 1438.2 370.3C1438.8 369.6 1439 368.6 1438.6 368 1438.3 367.4 1437.6 367.2 1437 367.2 1436.6 367.3 1436.6 367.3 1436.3 367.6L1420.5 378.9 1408.3 373.5 1421.7 365.9 1407.1 361.4 1417.8 353.5 1435.7 361.3C1436.4 361.5 1437.3 361.4 1437.8 360.4 1438.1 359.7 1437.7 358.8 1437 358.2L1420.8 351.2 1428 346.3 1435.8 349.7C1436.5 350.2 1437.4 349.8 1437.9 348.8 1438.2 348.1 1437.8 347.2 1437 346.6L1431 344.1 1439.9 337.3C1440.9 336.9 1440.8 336 1440.3 335 1440 334.7 1439.3 334.5 1439 334.5 1438.7 334.6 1438.4 334.6 1438.1 334.9L1429.1 341.4 1428.4 334.7C1428.3 333.7 1427.3 333.2 1426.6 333.2L1426.6 333.2C1425.7 333.3 1425.1 334.1 1425.2 335L1426.1 343.6 1418.9 348.5 1417.1 331.4C1417 330.4 1416.3 329.8 1415.4 329.9S1413.8 330.7 1413.9 331.7L1415.9 350.8 1405.2 358.7 1405.2 343.5 1394 353.7 1392.6 340.3 1408.2 329.1C1409.1 328.3 1409 327.4 1408.6 326.8 1408.2 326.2 1407.2 326 1406.3 326.4L1392.2 336.5 1391.4 328.3 1398.2 323C1399.1 322.6 1399.4 321.6 1398.6 320.7 1398.2 320.1 1397.3 319.9 1396.3 320.3L1391 324.4 1389.8 313.3C1389.7 312.3 1389 311.8 1388 311.9S1386.5 312.7 1386.6 313.6L1387.8 324.8 1381.7 322.2C1381.4 321.9 1381.1 321.9 1380.7 322 1380.1 322 1379.8 322.4 1379.5 322.7 1379 323.8 1379.4 324.7 1380.4 324.9L1388.2 328.6 1389.1 337.2 1373.2 329.8C1372.9 329.9 1372.6 329.9 1372.2 329.9 1371.6 330 1371.3 330.3 1371 330.7 1370.5 331.7 1370.9 332.6 1371.9 332.9L1389.5 340.7 1390.8 354 1377.8 346.4 1381 361.2 1368.8 355.7 1366.8 336.6C1366.7 335.7 1365.7 335.1 1365.1 335.2 1364.1 335.3 1363.5 336 1363.6 336.9L1365.4 354.1 1357.4 350.8 1356.5 342.2C1356.4 341.2 1355.7 340.7 1354.7 340.8S1353.2 341.6 1353.3 342.5L1354 349.2 1343.9 344.8C1343.5 344.5 1343.2 344.5 1342.9 344.6 1342.6 344.6 1342 345 1341.7 345.7 1341.5 346.3 1341.6 347.3 1342.5 347.5ZM1382.3 352.7L1393 359 1402.1 350.6 1402.1 363.2 1413.7 366.8 1403.1 373 1405.7 385 1395 378.7 1385.9 387.1 1385.9 374.8 1374.3 370.9 1384.9 365 1382.3 352.7Z" fill="rgba(56, 128, 255, 1)"></path></g><defs><mask id="SvgjsMask1026"><rect width="1440" height="560" fill="#ffffff"></rect></mask><filter id="SvgjsFilter1027"><feGaussianBlur stdDeviation="1"></feGaussianBlur></filter></defs></svg>