<svg xmlns="http://www.w3.org/2000/svg" version="1.1" xmlns:xlink="http://www.w3.org/1999/xlink" xmlns:svgjs="http://svgjs.com/svgjs" width="1440" height="560" preserveAspectRatio="none" viewBox="0 0 1440 560"><g mask="url(&quot;#SvgjsMask1062&quot;)" fill="none"><circle r="8.505" cx="629.605" cy="396.09499999999997" filter="url(#SvgjsFilter1063)" fill="rgba(56, 128, 255, 0.83)"></circle><circle r="8.815" cx="675.845" cy="152.015" filter="url(#SvgjsFilter1063)" fill="rgba(56, 128, 255, 0.83)"></circle><circle r="4.94" cx="1118.39" cy="34.21" filter="url(#SvgjsFilter1063)" fill="rgba(56, 128, 255, 0.83)"></circle><circle r="5.11" cx="452.92" cy="152.26000000000002" filter="url(#SvgjsFilter1063)" fill="rgba(56, 128, 255, 0.83)"></circle><circle r="4.715" cx="531.985" cy="410.315" filter="url(#SvgjsFilter1063)" fill="rgba(56, 128, 255, 0.83)"></circle><circle r="6.16" cx="20.8" cy="408.56" filter="url(#SvgjsFilter1063)" fill="rgba(56, 128, 255, 0.83)"></circle><circle r="4.865" cx="622.465" cy="62.275" filter="url(#SvgjsFilter1063)" fill="rgba(56, 128, 255, 0.83)"></circle><circle r="9.035" cx="1442.6850000000002" cy="78.905" filter="url(#SvgjsFilter1063)" fill="rgba(56, 128, 255, 0.83)"></circle><circle r="7.69" cx="1031.45" cy="531.07" filter="url(#SvgjsFilter1063)" fill="rgba(56, 128, 255, 0.83)"></circle><circle r="8.085" cx="527.095" cy="194.925" filter="url(#SvgjsFilter1063)" fill="rgba(56, 128, 255, 0.83)"></circle><circle r="4.745" cx="65.075" cy="469.315" filter="url(#SvgjsFilter1063)" fill="rgba(56, 128, 255, 0.83)"></circle><circle r="7.725" cx="1206.395" cy="209.565" filter="url(#SvgjsFilter1063)" fill="rgba(56, 128, 255, 0.83)"></circle><circle r="8.04" cx="195.47" cy="346.88" filter="url(#SvgjsFilter1063)" fill="rgba(56, 128, 255, 0.83)"></circle><circle r="4.76" cx="1421.07" cy="90.03" filter="url(#SvgjsFilter1063)" fill="rgba(56, 128, 255, 0.83)"></circle><circle r="7.16" cx="1144.5700000000002" cy="116.64999999999999" filter="url(#SvgjsFilter1063)" fill="rgba(56, 128, 255, 0.83)"></circle><circle r="8.485" cx="256.955" cy="272.805" filter="url(#SvgjsFilter1063)" fill="rgba(56, 128, 255, 0.83)"></circle><circle r="6.215" cx="462.67499999999995" cy="73.185" filter="url(#SvgjsFilter1063)" fill="rgba(56, 128, 255, 0.83)"></circle><circle r="7.345" cx="30.115" cy="8.435" filter="url(#SvgjsFilter1063)" fill="rgba(56, 128, 255, 0.83)"></circle><circle r="6.865" cx="1365.265" cy="456.425" filter="url(#SvgjsFilter1063)" fill="rgba(56, 128, 255, 0.83)"></circle><circle r="7.26" cx="176.47" cy="58.82" filter="url(#SvgjsFilter1063)" fill="rgba(56, 128, 255, 0.83)"></circle><path d="M906.7 262.4L924.2 272.3 912.8 279.6C911.6 280.2 911 282.2 911.6 284.1 913 285.3 914.9 285.9 916.2 285.3L931.3 275.9 947.5 285.2 916.6 303.8C914.7 305.1 914.1 307.1 915.4 308.3 916.1 310.2 918 310.8 919.9 309.5L954 288.9 968.9 296.8 969.8 335.9 957.2 343.8 920.2 322.9C919.6 322.9 918.9 323 918.3 323 917.7 323 916.4 323.7 915.8 324.3 914.5 326.3 915.2 328.2 917.2 328.8L950.9 347.8 935.1 357.2 917.6 348C917.6 347.3 916.9 347.3 916.3 347.3 915 347.4 913.8 348 913.1 349.3 912.5 350.6 913.2 352.5 914.5 353.8L928.8 361.1 909.2 373.1C907.9 373.8 907.4 375.7 908 377.6 909.3 378.9 911.3 379.5 912.5 378.8L930.9 367.5 931.2 380.9C931.2 382.8 933.2 384.1 934.4 384.1 936.4 384 938.2 382.7 938.2 380.8L937.8 363.5 953.6 354.2 954.4 390C954.5 391.9 955.8 393.2 957.7 393.1 959.6 393.1 960.9 391.8 960.8 389.8L959.9 350.2 973.1 341.6 1007.5 360.6 1007.9 375.3 973.1 396.6C971.2 397.3 970.6 399.9 972 401.1 972.6 403 974.6 403 976.5 402.3L1008 383 1008.5 401.6 992.7 410.9C991.4 411.6 990.8 414.1 991.5 415.4S994.7 417.2 996.6 416.6L1008.6 409.2 1009.1 431.6C1009.2 433.5 1011.1 434.8 1013.1 434.7 1014.3 434.7 1016.2 433.4 1016.2 431.5L1015.7 409.1 1028.6 415.8C1029.9 416.4 1031.8 416.4 1033.1 414.4 1033.7 413.1 1033 410.6 1031.7 410L1015.5 401.4 1015.1 382.8 1047.5 400.7C1049.4 401.3 1051.3 401.2 1052.6 399.3 1053.2 398 1052.5 395.4 1051.2 394.8L1014.9 375.2 1014.6 360.4 1048 339.8 1061.6 347.8 1062.5 387.5C1062.6 389.4 1063.9 390.7 1065.8 390.6 1067.7 390.6 1069.6 389.3 1069.6 387.3L1068.8 351.5 1085 360.1 1085.4 377.4C1085.4 379.3 1086.7 380.5 1088.6 380.5 1090.6 380.5 1091.8 379.1 1091.8 377.2L1091.4 363.8 1110.3 374.2C1111.5 374.9 1114.1 374.2 1114.7 372.9 1115.3 370.9 1115.3 369 1113.3 368.4L1093.9 357.3 1107.1 349.3C1108.4 348 1109 346.1 1108.3 344.8 1107.6 343.6 1106.3 343 1105.1 343 1105.1 343 1104.4 343 1103.8 343.7L1086.7 353.7 1070.5 345.1 1103.3 324.5C1105.3 323.8 1105.8 321.9 1104.5 320 1103.9 319.3 1103.2 318.7 1101.9 318.7 1101.3 318.8 1100.7 318.8 1100 318.8L1064 341.4 1051.1 334 1050.2 295 1064.7 286.3 1099.7 305.3C1101.7 306.6 1103.6 305.9 1104.2 304 1105.4 302.7 1104.7 300.8 1102.8 299.5L1071 282.3 1086.8 272.4 1102.3 281C1103.6 281.6 1105.5 280.9 1106.8 279.6 1107.4 277.6 1107.3 275.7 1105.4 275.1L1093.7 268.4 1110.8 257.7C1112.7 257 1112.6 255.1 1111.9 253.2 1111.3 252.6 1110 252 1108.7 252 1108.7 252 1108.1 252 1107.4 252L1089.1 263.3 1088.8 247.3C1088.7 246.1 1087.4 244.2 1085.5 244.2 1083.6 244.3 1082.3 246.2 1082.4 247.5L1082.8 267.3 1067 277.3 1066.1 238.3C1066.1 236.3 1064.2 235.1 1062.2 235.2S1059.1 236.5 1059.1 238.4L1060.1 281.3 1046.8 289.3 1012.5 270.2 1012.1 253.6 1047.4 232.3C1048.7 231 1049.3 229 1048.6 227.1 1048 226.5 1046.7 225.9 1045.4 225.9 1044.7 226 1044.1 226 1043.5 226.6L1011.9 245.9 1011.5 227.4 1027.3 217.4C1028.5 216.7 1029.1 214.8 1028.4 212.9 1027.1 211.6 1025.2 211 1023.9 211.7L1011.3 219.7 1010.8 199.2C1010.8 197.9 1008.8 196.1 1007.6 196.1 1005.6 196.1 1003.8 198.1 1003.8 199.4L1004.3 219.8 991.9 212.4C991.3 212.5 990.7 212.5 990 212.5 988.7 212.5 987.5 213.2 986.8 213.8 986.3 215.8 986.9 217.7 988.2 218.9L1004.4 227.5 1004.9 246.1 972.5 228.3C970.5 227 968.6 227.7 968 229 966.8 231 967.4 232.9 968.7 234.1L1005.1 253.8 1005.4 270.4 972 291 958.4 283.6 957.4 240.8C957.3 238.8 956 237.6 954.1 237.6 952.2 237.7 950.9 239 951 240.9L951.9 279.9 935.7 270.7 935.2 250.9C935.2 249.6 933.2 247.7 931.3 247.8 929.4 247.8 928.1 249.8 928.2 251L928.5 267 909.7 256.6C909.1 256.6 909.1 256.6 908.5 256.6 907.2 256.6 905.9 257.3 905.3 258 904.7 259.9 905.4 261.8 906.7 262.4ZM1005.6 278.1L1009.4 276.1 1012.6 277.9 1040.5 293.3 1043.8 295.1 1043.9 299 1044.6 330.3 1044.7 334.1 1041.5 336.1 1014.4 352.8 1011.2 354.8 1007.3 352.9 980.1 337.6 976.2 335.7 976.1 331.9 975.4 300.5 975.3 296.7 979.1 294.7 1005.6 278.1Z" fill="rgba(56, 128, 255, 0.83)"></path><path d="M92.7 551.9L126 519.5 167.4 520.4 146 555.8 100.8 566.6C100.8 566.6 100.3 566.9 100.3 566.9 99.3 567.4 98.9 568.9 98.9 570.2 99.2 571.9 101 572.8 102.5 572L142 562.5 131.6 579.7 114.2 584.1C114.2 584.1 113.8 584.4 113.8 584.4 112.8 584.9 112.3 586.4 112.4 587.7 112.7 589.4 114.5 590.4 116 589.6L127.9 586.8 120.1 599.4C119.4 600.5 120 602.7 121 603.4 122.3 604.6 124.3 603.5 125 602.5L132.8 589.9 135.5 601.8C135.8 603.6 137.6 604.5 139.1 603.7 140.8 603.4 141.7 601.6 140.9 600.1L136.5 582.8 147.1 566 156.7 605.5C157 607.3 158.8 608.2 160.3 607.4 162 607.1 162.9 605.3 162.1 603.8L151.4 558.6 172.8 523.2 193 560 180 604.9C179.5 606.4 180.3 607.9 181.8 608.3 183.4 608.8 184.8 607.9 185.3 606.4L196.8 566.9 206.5 584.6 201.6 601.3C201.2 602.8 202 604.3 203.5 604.7 205 605.2 206.5 604.4 207 602.8L210.3 591.4 217.8 605.2C218.1 606.9 220.1 607.1 221.6 606.3 223.1 605.5 223.5 603.9 222.7 602.5L215.7 589.7 227.1 593C228.6 593.5 230.1 592.7 230.6 591.1S230.2 588.2 228.7 587.7L211.9 582.8 202.2 565.2 241.8 576.7C243.3 577.1 244.8 576.3 245.2 574.8 245.7 573.3 244.8 571.8 243.3 571.4L198.5 558.3 178.5 522 219.9 522.9 251.2 555.5C252.5 556.7 254.3 556.4 255.7 555.6 257 554.3 256.6 552.5 255.8 551.1L227.6 521.8 247.7 522.3 260 535.4C261.3 536.6 263 536.3 264.5 535.4 265.7 534.1 265.4 532.4 264.8 531.4L256.2 522.7 271 522.9C272.3 522.9 274.2 521.8 273.9 520 273.6 518.3 272.8 516.8 271.1 517.1L256.3 517 265 508.4C266.2 507.1 265.8 505.3 265.3 504.3 264.3 503.6 262.7 503.2 261.8 503.7 261.8 503.7 261.3 504 261.3 504L248.2 516.3 228.1 515.8 257.4 487.6C258.6 486.3 258.3 484.6 257.7 483.6 256.7 482.9 255.2 482.4 254.2 483 254.2 483 253.7 483.2 253.7 483.2L220.4 515.6 179 514.7 200.4 479.3 245.6 468.5C247.4 468.2 248.3 466.4 247.5 464.9 247.2 463.2 245.4 462.2 243.9 463.1L204.4 472.6 214.8 455.4 232.2 451C233.9 450.7 234.8 448.9 234 447.4 233.7 445.7 231.9 444.7 230.4 445.5L218.5 448.3 226.3 435.7C227 434.6 226.4 432.4 225.4 431.7 224.4 431 223.1 431 222.1 431.6 221.6 431.8 221.1 432.1 220.9 432.9L213.1 445.5 210.4 433.5C210.1 431.8 208.3 430.9 206.8 431.7 206.8 431.7 206.4 431.9 206.4 431.9 205.4 432.5 204.9 434 205 435.2L209.4 452.6 199 469.8 189.5 430.3C189.2 428.6 187.4 427.6 185.9 428.5 185.9 428.5 185.4 428.7 185.4 428.7 184.4 429.3 184 430.8 184.1 432L194.8 477.2 173.4 512.7 153.4 476.3 166.5 431.5C166.9 429.9 166.1 428.5 164.6 428 163.1 427.6 161.6 428.4 161.2 429.9L149.4 469 139.7 451.3 144.6 434.6C145 433 144.2 431.6 142.7 431.1S139.7 431.5 139.2 433L135.9 444.4 128.9 431.7C128.1 430.2 126.6 429.8 125.1 430.6 123.6 431.4 123.2 432.9 124 434.4L131 447.1 119.6 443.8C118.8 443.6 118.1 443.4 117.1 443.9S115.9 445.2 115.7 446C115.2 447.5 116 449 117.6 449.4L134.3 454.3 144 471.9 104.5 460.4C103.7 460.2 102.9 460 101.9 460.5 101.5 460.8 100.7 461.8 100.5 462.6 100.1 464.1 100.9 465.6 102.4 466L147.3 479.1 167.2 515.4 125.8 514.5 93.5 481.2C92.4 480.4 90.9 480 89.9 480.5 89.9 480.5 89.4 480.8 89.4 480.8 88.2 482.1 88.6 483.9 89.1 484.8L117.3 514.1 97.2 513.6 84.9 500.5C83.9 499.8 82.4 499.4 81.4 499.9 81.4 499.9 80.9 500.2 80.9 500.2 79.7 501.5 80 503.2 80.6 504.2L89.2 512.9 74.4 512.7C73.9 513 73.1 512.8 72.7 513 71.7 513.6 71 514.6 71 515.9 71.3 517.6 72.1 519.1 73.9 518.8L88.7 518.9 80 527.5C78.8 528.8 79.1 530.6 79.6 531.6 80.9 532.8 82.7 532.5 83.7 531.9L96.7 519.6 116.8 520.1 87.5 548.3C86.3 549.6 86.7 551.3 87.2 552.3 89.5 553 91.5 553.2 92.7 551.9Z" fill="rgba(56, 128, 255, 0.83)"></path><path d="M356.3 294.4L349.3 301.6 347.2 295.2C347.1 294.5 346.2 294 345.2 294.1 344.4 294.6 343.9 295.4 344.1 296.1L346.6 304.6 340.1 311.3 335 294C334.6 292.9 333.8 292.4 333 292.8 332 292.9 331.5 293.8 331.9 294.9L337.5 314 331.8 320.2 312.8 315.7 310.5 308.5 325.3 293.3C325.4 293 325.5 292.7 325.5 292.4 325.6 292.1 325.4 291.4 325.2 291 324.4 290.1 323.4 290.2 322.9 291.1L309.4 305 306.9 296.2 313.5 288.9C313.9 288.9 313.9 288.6 314 288.3 314.1 287.7 314 287 313.4 286.5 312.9 286.1 311.9 286.2 311.1 286.7L305.7 292.6 302.4 281.6C302.3 280.9 301.4 280.4 300.4 280.5 299.6 281 299.1 281.8 299.3 282.5L302.4 292.8 295.9 291.3C294.9 291 294.1 291.8 293.9 292.5 293.7 293.4 294.1 294.5 295.1 294.7L303.5 296.7 306 305.5 288.5 301.4C287.6 301.1 286.8 301.6 286.6 302.6 286.4 303.5 286.9 304.3 287.8 304.5L307.1 309.1 309.6 316.6 296 330.8 288.9 329.1 283 309.6C282.9 308.6 281.7 308 280.9 308.4 279.9 308.5 279.7 309.5 279.8 310.5L285.1 328.2 276.1 326 273.6 317.2C273.4 316.5 272.3 315.9 271.6 316.1S270.3 317.4 270.4 318.4L272.4 325.2 261.5 322.6C260.5 322.4 259.7 323.1 259.5 324.1 259.3 324.7 259.7 325.8 260.7 326L271.6 328.6 266.7 334C266.2 334.5 266 335.5 266.8 336.3 267.3 336.8 268.6 336.8 269.1 336.2L275.3 329.5 284.3 331.6 271.6 345C271.1 345.9 270.9 346.8 271.6 347.7 272.2 348.1 273.5 348.1 274 347.6L288.1 332.5 295.2 334.2 301 353 295.4 358.6 276.1 354C275.1 353.8 274.4 354.2 274.1 355.2 273.9 356.1 274.3 357.2 275.3 357.4L292.7 361.5 286.5 368.3 278.1 366.3C277.1 366.1 276.4 366.6 276.2 367.5 275.9 368.4 276.4 369.2 277.3 369.4L283.9 371 276.4 378.7C276 379.3 276 380.6 276.6 381.1 277.4 381.6 278.3 381.8 278.9 381L286.7 372.9 288.9 380.4C289.4 381.1 290.2 381.7 290.9 381.5 291.6 381.4 292.1 380.8 292.2 380.2 292.2 380.2 292.3 379.9 292.1 379.5L289.4 370 295.6 363.2 301.4 381.7C301.5 382.7 302.3 383.2 303.4 382.8 303.8 382.6 304.2 382.4 304.3 381.7 304.4 381.4 304.5 381.1 304.6 380.8L298.2 360.5 303.4 355.2 322.4 359.7 324.7 367.8 311.1 382.4C310.3 383.1 310.4 384.1 311.2 384.7 311.7 385.5 312.7 385.4 313.5 384.6L325.9 371.4 328.7 380.3 322.6 386.7C322.1 387.3 322.2 388.3 322.7 389 323.5 389.6 324.5 389.8 325 388.9L329.8 384.1 332.7 393.7C332.8 394.7 333.8 395 334.8 394.9 335.2 394.6 335.6 394.1 335.8 393.5 335.8 393.5 335.8 393.2 335.9 392.8L332.8 382.6 340.5 384.4C341.2 384.6 342.3 384.1 342.5 383.2 342.7 382.3 341.9 381.4 341.3 381.3L331.6 379 328.8 370.1 347.8 374.6C348.7 374.8 349.6 374 349.8 373.1S349.5 371.4 348.6 371.2L327.8 366.2 325.6 358.8 339.1 344.6 347.2 346.5 353.1 366.3C353.5 367.1 354.4 367.6 355.4 367.5 355.8 367.3 356.2 366.7 356.4 366.1 356.5 365.8 356.5 365.5 356.3 365.1L351 347.4 360 349.5 362.8 358.4C363 359.1 363.8 359.7 364.9 359.6 365.6 359.1 366.2 358.2 366 357.5L363.7 350.4 373.7 352.8C374.3 352.9 375.5 352.2 375.6 351.6 375.8 350.7 375.1 349.5 374.5 349.4L364.5 347 369.7 342C369.8 341.7 369.8 341.4 369.9 341 370.1 340.4 369.9 339.7 369.7 339.3 368.8 338.8 367.8 338.9 367 339.4L360.8 346.1 351.8 344 364.5 330.6C365.3 329.8 365.3 328.8 364.7 328.3 363.9 327.5 362.9 327.5 362.1 328L348 343.1 339.9 341.2 334.2 322.4 339.5 316.7 360.4 321.7C361.3 321.9 362.1 321.4 362.3 320.5 362.5 319.6 362 318.8 361.1 318.6L342.1 314.1 348.6 307.4 358.3 309.7C358.9 309.8 360 309.1 360.3 308.2 360.5 307.2 359.7 306.4 359.1 306.3L351.3 304.4 358.7 296.6C358.8 296.3 358.8 296.3 358.9 296 359 295.4 358.9 294.7 358.6 294.3 357.8 293.8 356.8 293.9 356.3 294.4ZM336.2 340.3L336.7 342.4 335.4 343.7 324.4 355.3 323.1 356.6 321.3 356.2 306 352.5 304.1 352.1 303.6 350.3 299 335.1 298.4 333.3 299.8 331.7 310.7 320.4 312 318.8 313.9 319.2 329.2 322.8 331 323.3 331.5 325.4 336.2 340.3Z" fill="rgba(56, 128, 255, 0.83)"></path><path d="M1326.1 33.2L1325.2 44.4 1319.5 40.8C1318.9 40.4 1317.9 40.5 1317.2 41.2 1316.9 42.1 1317 43.1 1317.9 43.4L1324.9 48.1 1324.6 56.8 1310 46.9C1309.1 46.6 1308.1 46.8 1307.7 47.4 1307.1 48.4 1307.3 49.4 1308.1 49.6L1324.3 60.5 1323.4 73.9 1311.7 64 1312.5 79.3 1301.4 72 1302.4 52.5C1302.7 52.4 1302.6 52.1 1302.4 51.8 1302.1 51.2 1301.6 50.8 1300.8 50.8 1300.1 50.8 1299.4 51.5 1299.1 52.4L1298.2 70 1291.1 64.9 1291.5 56.5C1291.7 56.1 1291.5 55.8 1291.4 55.5 1291.2 55.2 1290.7 54.8 1290 54.8 1289.2 54.8 1288.5 55.5 1288.5 56.2L1287.9 62.9 1278.5 56.9C1277.8 56.2 1276.9 56.6 1276.2 57.3 1275.8 57.9 1275.9 58.9 1276.9 59.5L1286.1 65.6 1280.1 68.6C1279.2 69.1 1279.1 70.2 1279.3 70.8 1279.8 71.6 1280.6 71.9 1281.5 71.5L1289.2 67.7 1296.4 72.7 1280.9 80.4C1280 80.8 1279.8 81.7 1280.2 82.5 1280.5 83.1 1281.5 83.7 1282.3 83.2L1299.5 74.7 1310.7 82 1296.5 87.3 1309.9 94.2 1297.9 100.1 1281.9 89.5C1280.9 89 1280 89.4 1279.6 90 1279.2 90.5 1279.3 91.5 1280 92.3L1294.8 101.7 1287 105.6 1279.7 101C1279 100.3 1278 100.4 1277.4 101.4 1277 102 1277.2 103 1278.2 103.6L1283.6 107.3 1273.6 112.3C1272.7 112.7 1272.4 113.6 1272.9 114.4S1274.1 115.6 1275 115.1L1285 110.1 1284.7 116.7C1284.6 117.9 1285.3 118.6 1286 118.6 1287.2 118.7 1287.9 118 1287.7 117L1288.5 108.4 1296.2 104.6 1294.9 122C1295 123 1295.7 123.8 1296.5 123.8 1297.6 123.9 1298.3 123.2 1298.2 122.2L1299.3 103 1311.4 97 1308.8 111.9 1321.5 103.8 1320.6 117.1 1303.5 125.6C1302.6 126.1 1302.5 127.2 1302.7 127.8 1303.2 128.6 1304 128.9 1304.9 128.5L1320.6 120.6 1320.1 129.5 1312.3 133.4C1311.5 133.8 1311.2 134.7 1311.6 135.5 1311.9 136.1 1312.9 136.7 1313.8 136.2L1319.8 133.2 1319.2 144.3C1319 145.4 1319.7 146.1 1320.8 146 1321.5 146 1322.3 145.5 1322.2 144.5L1323.1 133.4 1328.8 137C1329.3 137.4 1330.4 137.3 1330.8 136.7 1331.2 136.1 1331.2 135.4 1331.1 135.1 1330.9 134.8 1330.8 134.5 1330.4 134.4L1323.3 129.7 1323.6 120.9 1338.2 130.8C1339.1 131.1 1340.1 131 1340.5 130.4 1340.9 129.8 1341 129.1 1340.7 128.5 1340.5 128.3 1340.5 128.3 1340.1 128.1L1323.9 117.2 1324.8 103.9 1336.5 113.8 1335.7 98.5 1346.8 105.8 1345.8 125.3C1345.8 126 1346.2 126.8 1347.4 127 1348.1 127 1348.8 126.3 1349.1 125.4L1350 107.8 1357.1 112.8 1356.7 121.3C1356.4 122.1 1357.1 122.8 1358.3 123 1359 123 1359.7 122.3 1360 121.4L1360.3 114.8 1369.7 120.9C1370.4 121.6 1371.3 121.1 1372 120.4 1372.2 120 1372.2 119.3 1372 119 1371.9 118.7 1371.7 118.4 1371.3 118.3L1362.2 112.1 1368.2 109.1C1369 108.7 1369.2 107.5 1368.9 107L1368.9 107C1368.5 106.1 1367.6 105.8 1366.7 106.2L1359 110.1 1351.9 105.1 1367.3 97.4C1368.2 96.9 1368.5 96.1 1368 95.2S1366.8 94.1 1365.9 94.5L1348.7 103.1 1337.6 95.8 1351.7 90.5 1338.3 83.6 1350.3 77.6 1366.3 88.2C1367.3 88.8 1368.2 88.4 1368.6 87.8 1369.1 87.2 1368.9 86.2 1368.2 85.5L1353.8 75.9 1361.2 72.2 1368.5 76.8C1369.2 77.5 1370.2 77.3 1370.8 76.3 1371.2 75.8 1371.1 74.8 1370.4 74.1L1364.6 70.5 1374.7 65.5C1375.5 65 1375.8 64.2 1375.4 63.3S1374.1 62.2 1373.2 62.6L1363.2 67.6 1363.5 61C1363.7 60.6 1363.5 60.3 1363.4 60 1363.1 59.4 1362.7 59.3 1362.2 59.2 1361.1 59 1360.4 59.7 1360.5 60.7L1359.8 69.3 1352 73.2 1353.4 55.7C1353.2 55.4 1353.1 55.1 1352.9 54.9 1352.6 54.3 1352.2 54.1 1351.8 54 1350.6 53.9 1349.9 54.6 1350.1 55.6L1348.9 74.7 1336.9 80.7 1339.5 65.9 1326.7 74 1327.6 60.7 1344.8 52.1C1345.6 51.7 1345.8 50.6 1345.5 50 1345.1 49.1 1344.2 48.8 1343.3 49.3L1327.9 57 1328.2 48.2 1335.9 44.4C1336.8 44 1337.1 43.1 1336.6 42.2S1335.3 41.1 1334.5 41.5L1328.5 44.5 1329.1 33.5C1329.2 33.1 1329.1 32.8 1328.9 32.5 1328.8 32.2 1328.2 31.8 1327.5 31.8 1326.8 31.8 1325.9 32.2 1326.1 33.2ZM1335.2 72.3L1333 84.5 1344 90 1332.3 94.5 1333 106.6 1323.4 98.9 1313.1 105.5 1315.2 93.3 1304.2 87.7 1315.7 83.4 1315.3 71.1 1324.6 79 1335.2 72.3Z" fill="rgba(56, 128, 255, 0.83)"></path><path d="M751.5 38.7L765.4 60.2 763.3 69.3 758.6 62C758.3 61.1 757.3 61.1 756.4 61.4 755.9 61.9 755.6 63 756.1 63.5L762.3 73.6 760.5 82.6 753.8 76.3 753.3 64.4C753.3 64.4 753.2 64.1 753.2 64.1 753 63.5 752.2 63 751.5 62.9 750.6 63.2 750.1 63.7 750.1 64.7L750.5 73.3 743.8 67.1 742.4 41.7C742.4 41.7 742.6 41.3 742.6 41.3 742.4 40.7 741.6 40.2 740.9 40.1 739.9 40.1 739.2 41 739.5 41.9L740.5 64.1 732.1 56.7 731.6 46.8C731.6 46.8 731.6 46.8 731.5 46.5 731.3 45.9 730.8 45.4 730.1 45.2 729.2 45.5 728.4 46.1 728.4 47.1L728.8 53.7 722.7 48.3C722.1 47.5 721.2 47.8 720.6 48.3 719.8 48.9 719.8 49.9 720.7 50.6L726.5 56.1 720.1 56.1C719.2 56.4 718.4 57 718.7 57.9 718.7 59 719.2 59.5 720.2 59.5L730.1 59 738.2 66.5 715.7 67.6C715 67.5 714.3 68.4 714.3 69.4 714.5 70 715.1 70.9 716.1 70.9L741.5 69.5 748.2 75.7 739.6 76.1C738.6 76.1 738.2 76.9 738.2 77.9 738.1 78.6 739 79.4 739.7 79.5L751.5 78.7 758.5 84.9 749.7 87.7 739.2 82.3C738.4 81.9 737.5 82.2 737.1 83 736.6 83.5 737 84.7 737.8 85.1L745.4 89.1 736.6 91.9 714 79.9C713.1 79.5 712.2 79.8 711.8 80.6 711.4 81.4 711.7 82.3 712.5 82.8L732.3 93.2 721.9 96.5 713.1 92C712.3 91.6 711.4 91.9 711 92.7 710.5 93.5 710.8 94.4 711.6 94.8L717.4 98 709.7 100.4C708.8 100.7 708.4 101.5 708.7 102.4 709 103.4 709.8 103.8 710.7 103.5L718.3 101.1 715.4 106.7C715 107.5 715.3 108.4 716.1 108.8S717.8 108.9 718.2 108.1L722.6 99.7 733.3 96.3 723.1 116C722.7 116.8 723 117.7 723.8 118.1 724.6 118.5 725.5 118.3 725.9 117.4L737.5 94.9 746.4 92.1 742.4 99.8C742 100.6 742.3 101.5 743.1 101.9 743.9 102.3 744.8 102 745.2 101.2L750.6 90.8 759.2 88 757.2 96.7 747.2 103.3C746.7 103.8 746.4 104.9 746.9 105.4 747.5 106.2 748.2 106.3 749.1 106L756.4 101.4 754.4 110 733 123.9C732.2 124.5 732.1 125.2 732.4 126.1 733 127 734 127 734.6 126.8L753.6 114.7 751 125.6 742.9 130.8C742 131.1 742 132.1 742.3 133 742.8 133.6 743.9 133.9 744.7 133.3L750 129.9 748.5 137.8C748.1 138.6 748.7 139.4 749.8 139.7 750.5 139.8 751.3 139.2 751.4 138.5L753.3 130.6 756.7 136.2C757.3 137 758.3 137 758.8 136.5 759.8 136.2 759.9 135.5 759.7 134.9 759.6 134.6 759.6 134.6 759.5 134.3L754.2 126.2 756.8 115.3 768.8 134C769.1 134.9 770.1 134.9 771 134.6 771.5 134.1 771.6 133.4 771.4 132.8 771.4 132.5 771.4 132.5 771.4 132.5L757.7 110.7 759.6 102 764.3 109.3C764.9 110.1 765.6 110.2 766.5 109.9 767 109.4 767.4 108.6 767.2 108 767.1 107.7 767.1 107.7 767 107.4L760.5 97.4 762.4 88.7 769 94.6 769.8 106.5C769.8 107.5 770.7 108.2 771.4 108.3 772.3 108 773.1 107.4 772.8 106.5L772.4 97.9 779.3 103.8 780.5 129.6C780.4 130.3 781.3 131 782 131.1 782.9 130.9 783.7 130.3 783.7 129.2L782.7 107.1 790.8 114.6 791.2 124.2C791.2 125.2 792.1 125.9 793 125.6 793.7 125.7 794.5 125.1 794.5 124.1L794.1 117.5 800.2 123C800.7 123.5 801.7 123.5 802.5 122.9 802.8 122.5 802.9 121.8 802.7 121.2 802.7 121.2 802.6 120.9 802.5 120.6L796.4 115.1 803 114.7C803.7 114.8 804.4 113.9 804.5 113.2 804.4 112.9 804.4 112.9 804.4 112.9 804.1 112 803.3 111.6 802.7 111.8L793.1 112.2 784.7 104.8 807.2 103.6C808.1 103.4 808.6 102.9 808.6 101.8 808.6 101.8 808.5 101.5 808.5 101.5 808.3 100.9 807.8 100.4 806.8 100.4L781.3 101.5 774.7 95.5 783.3 95.1C784.2 94.8 785 94.2 784.7 93.3 785 93.2 784.9 92.9 784.9 92.9 784.7 92.3 783.9 91.9 783.2 91.8L771.4 92.5 764.7 86.3 773.2 83.6 783.7 89C784.5 89.4 785.7 89 786.1 88.2 786.2 87.5 785.9 86.6 785.4 86.1L777.5 82.2 786.3 79.4 808.8 91C809.6 91.4 810.6 91.1 811 90.3 811.4 89.5 811.1 88.6 810.3 88.2L790.6 78 801.3 74.6 809.7 79C810.5 79.4 811.4 79.1 811.8 78.3S812 76.6 811.2 76.2L805.5 73.3 813.1 70.8C814.1 70.5 814.5 69.7 814.2 68.8 813.9 67.9 813.1 67.5 812.2 67.8L804.6 70.2 807.4 64.3C807.6 63.9 807.8 63.5 807.7 63.2 807.6 62.9 807.1 62.4 806.7 62.1 805.9 61.7 805 62 804.6 62.8L800.3 71.6 789.6 75 799.7 55C799.9 54.6 800.1 54.2 800 53.9 799.9 53.6 799.4 53 799 52.8 798.2 52.4 797.3 52.7 796.9 53.5L785.3 76.3 776.5 79.2 780.8 71.4C781 71 780.8 70.4 780.7 70.1 780.6 69.8 780.5 69.5 780.1 69.3 779.3 68.9 778.1 69.3 777.9 70L772.2 80.5 763.7 83.2 765.5 74.3 775.6 68C776.2 67.5 776.6 66.7 776.4 66.1 776.3 65.8 776.3 65.8 776 65.9 775.7 65 774.6 64.7 773.8 65.3L766.5 69.9 768.3 60.9 790.2 47.3C790.7 46.8 790.8 46 790.6 45.4 790.5 45.1 790.5 45.1 790.5 45.1 789.9 44.3 789.1 43.9 788.3 44.5L769.3 56.6 771.9 45.7 780 40.4C780.8 39.8 780.9 39.1 780.7 38.5 780.7 38.5 780.6 38.2 780.6 38.2 780 37.4 779 37.4 778.4 37.6L772.9 41.4 774.7 33.4C774.6 33.1 774.5 32.8 774.4 32.5 774.3 32.2 773.8 31.7 773.4 31.4 772.4 31.4 771.5 31.7 771.5 32.7L769.6 40.7 766.2 35.1C765.6 34.3 764.5 34.3 763.9 34.5 763.1 35.1 763.1 36.1 763.4 37L768.7 45 766.4 55.8 754.4 37.2C753.8 36.3 752.7 36 752.2 36.5 751.4 37.1 750.9 37.9 751.5 38.7Z" fill="rgba(56, 128, 255, 0.83)"></path><path d="M639.9 609.4L637.6 594.5 647.2 597.8C648.1 598.2 649.6 597.7 650.4 596.4 650.5 595.1 649.9 593.6 649 593.2L636.5 588.6 634.4 574.8 659.7 584.3C661.4 584.8 662.8 584.3 662.9 582.9 663.7 581.7 663.2 580.2 661.5 579.7L633.5 569.2 631.3 556.7 653.9 538.1 664.5 541.8 669.3 573.3C669.6 573.7 669.9 574.1 670.2 574.4 670.5 574.8 671.5 575.2 672.2 575.3 673.9 575.1 674.7 573.8 674.1 572.4L669.7 543.7 682.6 548.7 685.3 563.3C684.9 563.6 685.2 563.9 685.5 564.3 686.1 565.1 687.1 565.5 688.1 565.2 689.2 565 690 563.7 690.1 562.4L687.8 550.6 704 556.5C705 557 706.4 556.4 707.2 555.1 707.3 553.8 706.8 552.4 705.8 551.9L690.6 546.4 698.4 540C699.5 539.1 699.3 537.3 698.7 536.6 697.8 535.5 696.1 535 695 535.9L685 544.2 672.2 539.2 693 522.1C694.1 521.2 694.2 519.8 693.3 518.7 692.4 517.6 691 517.4 689.9 518.4L666.9 537.3 655.7 533.5 651 504.4 659.5 497.4 688.2 508C689.5 508.8 691.2 507.9 691.4 506.6 692.2 505.3 691.3 504.2 690 503.4L664 493.7 674.7 484.9 687.5 489.8C688.5 490.3 690.3 489.4 690.7 488.4S690.3 485.7 689 484.9L679.1 481.2 692.1 470.5C693.2 469.6 693 467.9 692.1 466.8 691.5 466 689.9 465.5 688.7 466.4L675.8 477.1 673.8 466.4C673.5 465.3 672.6 464.2 670.9 464.4 669.8 464.6 668.7 466.2 668.9 467.3L671.3 480.8 660.6 489.6 656.1 462.3C655.5 460.9 654.6 459.7 652.9 459.9 651.8 460.2 650.7 461.8 650.9 462.8L656.2 493.3 647.6 500.3 620 490.2 618.4 478.4 641.3 459.5C642.4 458.6 642.6 457.2 641.7 456.1 640.7 455 639.1 454.5 638 455.4L617.2 472.5 614.8 459 624.8 450.7C625.9 449.8 626 448.5 625.1 447.4 624.2 446.3 622.8 446.1 621.7 447L614 453.5 611.4 437.5C611.2 436.5 609.6 435.3 608.5 435.5 607.1 436.1 606 437 606.5 438.4L609 455 598.2 450.9C596.8 450.8 595.4 451.3 595 452.3 594.5 453.3 594.8 454.3 595.4 455.1 595.4 455.1 595.7 455.5 596.4 455.5L610.2 460.9 612.6 474.5 585.3 464.7C584 463.9 582.6 464.4 582.1 466.1 582 466.8 581.9 467.4 582.5 468.2 582.8 468.5 583.1 468.9 583.5 469.3L613.5 480 615.1 491.1 592.5 509.7 580.7 505.2 575.7 475.7C575.5 474 574.2 473.2 572.8 473.7 571.4 473.6 570.6 474.9 570.8 476.6L575.4 503.3 562.2 498.6 560.1 485.5C559.8 484.4 558.6 483.6 557.2 483.5 555.8 484 554.7 484.9 555.2 486.4L556.6 496.4 542.5 491.3C541.2 490.5 540.1 491.4 539.3 492.7 539.2 493.3 539.4 494.4 540.1 495.1 540.1 495.1 540.4 495.5 540.7 495.9L555.8 501.4 546.6 509C545.8 509.7 545.3 511.3 546.2 512.4 547.2 513.5 548.9 513.4 549.6 512.7L561.1 503.3 574.3 508 551.7 526.6C550.6 527.5 550.8 529.2 551.7 530.3S554 531.6 555.1 530.7L579.9 510.2 590.7 514.3 595.4 543.4 585.8 551.3 556.9 540.4C555.5 540.3 554.1 540.8 553.3 542.1 553.2 542.8 553.5 543.8 554.1 544.5 554.4 544.9 554.7 545.3 555.4 545.4L581.4 555 570.6 563.9 557.4 559.2C556.5 558.8 555 559.3 554.2 560.6 554.1 561.9 554.7 563.4 555.6 563.8L566.2 567.5 554.3 577.3C553.6 577.9 553.4 579.9 554 580.7 554.9 581.8 557 582 557.7 581.4L569.5 571.6 570.9 582.3C571.2 582.7 571.5 583 571.8 583.4 572.4 584.2 573.4 584.6 574.1 584.7 575.5 584.1 576.3 582.8 576.4 581.5L574 567.9 584.7 559.1 589.3 586.5C589.4 588.2 590.7 589 591.8 588.7 593.5 588.6 594.3 587.3 594.4 585.9L589.2 555.4 598.8 547.5 626.5 557.6 628.4 569.1 603.6 589.5C602.5 590.5 602.4 591.8 603.3 592.9 604.2 594 605.6 594.2 606.7 593.2L629.3 574.6 631.4 588.4 619.9 597.9C619.1 598.5 618.9 600.6 619.9 601.7 620.8 602.8 622.5 602.6 623.2 602L632.5 594.3 635.1 610.3C635.4 610.7 635.4 610.7 635.7 611 636.3 611.8 637.3 612.2 637.9 612.3 639.3 611.7 640.2 610.4 639.9 609.4ZM603.2 543.8L600.3 542.5 599.9 539.7 596 516.2 595.6 513.4 597.8 511.6 616 496.6 618.2 494.8 620.8 495.7 643.2 504 645.8 504.9 646.6 508.1 650.1 531.3 650.9 534.4 648.6 536.2 630.5 551.2 628.3 553 625.3 551.7 603.2 543.8Z" fill="rgba(56, 128, 255, 0.83)"></path><path d="M1223.8 578.6L1207.3 535.2 1224.6 497.6 1248.6 531.3 1240.5 577.1C1240.5 577.1 1240.6 577.6 1240.6 577.6 1240.7 578.7 1241.9 579.8 1243.1 580.2 1244.8 580.6 1246.3 579.3 1246.2 577.7L1253.1 537.6 1264.8 554 1261.9 571.7C1261.9 571.7 1262 572.2 1262 572.2 1262.1 573.4 1263.3 574.4 1264.5 574.8 1266.2 575.2 1267.8 573.9 1267.6 572.3L1269.9 560.2 1278.3 572.4C1279 573.5 1281.3 573.8 1282.3 573.1 1283.9 572.4 1283.7 570.2 1283.1 569.1L1274.6 557 1286.6 559.2C1288.4 559.6 1289.9 558.4 1289.8 556.7 1290.2 555 1288.9 553.4 1287.2 553.6L1269.5 550.7 1258.4 534.3 1298.5 541.2C1300.2 541.6 1301.7 540.4 1301.6 538.7 1302 537 1300.7 535.4 1299 535.6L1253.3 527.5 1229.3 493.8 1271.1 489.8 1307.1 519.6C1308.3 520.6 1310 520.5 1311 519.3 1312 518 1311.9 516.4 1310.6 515.4L1278.9 489.1 1299 487.2 1312.4 498.3C1313.6 499.3 1315.3 499.2 1316.3 497.9 1317.3 496.7 1317.2 495.1 1316 494L1306.8 486.5 1322.4 485C1324.1 485.4 1325.1 483.6 1324.9 481.9 1324.8 480.3 1323.6 479.3 1321.9 479.4L1307.4 480.8 1315 471.6C1316 470.4 1315.8 468.7 1314.6 467.7S1311.7 466.9 1310.7 468.1L1299.6 481.5 1279.5 483.4 1305.8 451.7C1306.8 450.5 1306.6 448.8 1305.4 447.8 1304.2 446.8 1302.5 446.9 1301.5 448.2L1271.7 484.1 1230.5 488 1247.7 450.4 1290.1 434.6C1291.7 433.9 1292.1 432.2 1292 430.5 1291.3 428.9 1289.5 428.5 1287.9 428.6L1249.8 442.9 1258.2 424.7 1275.1 418.6C1276.7 417.9 1277.1 416.1 1277 414.5 1276.3 412.8 1274.5 412.4 1273.4 412.5L1262 417 1268.1 403.5C1268.5 402.3 1268.3 400.1 1266.6 399.7 1264.9 399.3 1263.2 399.4 1262.8 401.2L1256.7 414.7 1252.3 403.3C1251.6 401.7 1249.9 401.3 1248.7 401.4 1247.7 402 1246.7 403.2 1246.8 404.4 1246.8 404.4 1246.8 404.9 1246.8 404.9L1252.9 421.8 1244.5 440 1230.2 402C1229.5 400.4 1227.8 400 1226.7 400.1 1225.6 400.7 1224.6 401.9 1224.7 403.1 1224.7 403.1 1224.8 403.6 1224.8 403.6L1241.2 447.1 1224 484.7 1200 450.9 1208 405.2C1208.4 403.5 1207.2 401.9 1205.5 402.1 1203.8 401.7 1202.2 402.9 1202.4 404.6L1195.4 444.6 1183.8 428.3 1186.6 410.6C1187 408.9 1185.7 407.3 1184.1 407.4 1182.3 407 1180.8 408.3 1180.9 410L1178.7 422 1170.2 409.9C1169.6 408.8 1167.3 408.5 1166.2 409.1 1165.2 409.8 1164.7 411 1164.8 412.1 1164.9 412.6 1164.9 413.2 1165.5 413.7L1174 425.8 1162 423.6C1160.2 423.2 1158.7 424.5 1158.8 426.1 1158.8 426.1 1158.9 426.7 1158.9 426.7 1159 427.8 1160.2 428.8 1161.4 429.3L1179.1 432.1 1190.7 448.4 1150.7 441.5C1149 441.1 1147.4 442.4 1147.6 444.1 1147.6 444.1 1147.6 444.6 1147.6 444.6 1147.7 445.7 1149 446.7 1150.1 447.2L1195.9 455.3 1219.9 489 1178.6 492.9 1142.6 463.1C1141.4 462.1 1139.7 462.2 1138.7 463.5 1137.7 464.7 1137.9 466.3 1139.1 467.4L1170.2 493.7 1150.2 495.6 1136.7 484.5C1135.5 483.4 1133.9 483.6 1132.8 484.8S1132 487.7 1133.2 488.7L1142.4 496.3 1127.9 497.7C1126.2 497.8 1125.2 499 1125.3 500.7 1125.5 502.4 1126.7 503.4 1128.4 503.2L1142.9 501.9 1135.3 511C1134.8 511.6 1134.3 512.2 1134.4 513.4S1135.1 515 1135.7 515.5C1136.9 516.5 1138.6 516.3 1139.6 515.1L1150.7 501.7 1170.8 499.8 1144.5 531.5C1144 532.1 1143.5 532.7 1143.6 533.9 1143.7 534.4 1144.4 535.5 1145 536 1146.2 537 1147.9 536.8 1148.9 535.6L1178.7 499.6 1219.9 495.8 1202.7 533.4 1159.2 549.8C1158.1 550.5 1157.1 551.7 1157.2 552.8 1157.2 552.8 1157.3 553.4 1157.3 553.4 1158 555 1159.7 555.4 1160.8 555.3L1198.9 541 1190.5 559.3 1173.6 565.4C1172.5 566 1171.5 567.2 1171.6 568.4 1171.6 568.4 1171.7 568.9 1171.7 568.9 1172.4 570.5 1174.1 570.9 1175.2 570.8L1186.6 566.4 1180.6 579.9C1180.6 580.4 1180.1 581.1 1180.2 581.6 1180.3 582.7 1181 583.8 1182.1 584.2 1183.9 584.6 1185.5 584.5 1185.9 582.8L1192 569.3 1196.4 580.7C1197.1 582.3 1198.9 582.7 1200 582.6 1201.6 581.9 1202 580.1 1201.9 579L1195.8 562.1 1204.2 543.9 1218.5 582C1219.2 583.6 1220.9 584 1222 583.9 1223.5 582 1224.5 580.3 1223.8 578.6Z" fill="rgba(56, 128, 255, 0.83)"></path><path d="M155.6 98.6L157.1 116.1 146.3 111.5C145.2 110.9 143.5 111.5 142.4 112.9 142.2 114.5 142.7 116.2 143.8 116.7L158 123.1 159.4 139.3 130.6 126.2C128.7 125.5 127 126 126.8 127.6 125.7 129 126.3 130.7 128.2 131.4L159.9 145.9 161.5 160.6 133.8 180.5 121.8 175.3 118.6 138.3C118.3 137.8 118 137.4 117.6 136.9 117.3 136.5 116.2 135.9 115.4 135.8 113.4 135.8 112.4 137.3 112.9 139L115.8 172.7 101.2 165.9 99.2 148.8C99.7 148.4 99.4 148 99 147.5 98.4 146.6 97.3 146 96 146.2 94.8 146.4 93.8 147.9 93.5 149.4L95.2 163.4 76.9 155.2C75.8 154.6 74.1 155.1 73.1 156.5 72.8 158.1 73.4 159.8 74.5 160.4L91.7 168 82.1 174.9C80.8 175.8 80.8 177.9 81.5 178.8 82.5 180.1 84.4 180.8 85.7 179.9L98 171 112.5 177.8 87.1 196.1C85.7 197.1 85.5 198.7 86.4 200 87.4 201.4 89 201.7 90.3 200.7L118.5 180.4 131.3 185.7 134.5 219.9 124.1 227.5 91.6 212.9C90.1 211.9 88 212.7 87.7 214.3 86.7 215.7 87.7 217.1 89.1 218.1L118.6 231.4 105.4 240.9 90.9 234.1C89.8 233.5 87.7 234.3 87.1 235.5S87.3 238.7 88.8 239.7L100 244.8 84.1 256.2C82.7 257.2 82.8 259.2 83.8 260.6 84.4 261.5 86.3 262.2 87.7 261.2L103.6 249.8 105.1 262.5C105.3 263.7 106.3 265.1 108.3 265 109.6 264.8 111 263 110.8 261.8L109 245.9 122.2 236.4 125.4 268.6C125.9 270.3 126.9 271.7 128.9 271.6 130.1 271.4 131.6 269.6 131.4 268.4L127.7 232.5 138.1 224.9 169.6 238.9 170.5 252.7 142.3 273C141 274 140.7 275.5 141.7 276.9 142.7 278.3 144.6 279 145.9 278L171.4 259.7 173.2 275.6 160.9 284.4C159.5 285.4 159.3 287 160.3 288.4 161.2 289.7 162.8 290 164.2 289L173.7 282.1 175.5 300.9C175.7 302.1 177.4 303.6 178.7 303.4 180.4 302.9 181.7 301.9 181.2 300.2L179.6 280.7 191.9 286.3C193.5 286.6 195.2 286 195.7 284.9 196.3 283.8 196.1 282.6 195.5 281.7 195.5 281.7 195.1 281.2 194.4 281.1L178.7 273.7 176.9 257.8 208 271.3C209.4 272.3 211.1 271.8 211.8 269.9 212 269.1 212.1 268.3 211.4 267.4 211.1 267 210.8 266.5 210.5 266.1L176.4 251.3 175.3 238.2 203 218.3 216.5 224.5 220 259.2C220.1 261.2 221.5 262.3 223.2 261.7 224.8 262 225.8 260.6 225.7 258.5L222.4 227.1 237.4 233.6 238.9 249.1C239.1 250.3 240.6 251.3 242.1 251.6 243.8 251.1 245.2 250.1 244.6 248.4L243.8 236.6 259.9 243.7C261.3 244.7 262.7 243.7 263.7 242.3 263.8 241.5 263.6 240.3 263 239.3 263 239.3 262.7 238.9 262.3 238.4L245.1 230.8 256.5 222.6C257.4 222 258.1 220.1 257.1 218.7 256.1 217.4 254.1 217.4 253.2 218.1L239.1 228.2 224.1 221.8 251.9 201.8C253.2 200.8 253.2 198.8 252.2 197.5S249.6 195.8 248.3 196.8L217.8 218.7 205.5 213.1 202.3 178.9 214.1 170.4 246.9 185.4C248.5 185.6 250.2 185.1 251.2 183.7 251.4 182.9 251.2 181.6 250.5 180.7 250.2 180.3 249.8 179.8 249.1 179.7L219.5 166.4 232.7 157 247.7 163.4C248.8 164 250.5 163.5 251.5 162 251.8 160.5 251.3 158.8 250.2 158.2L238.2 153 252.7 142.6C253.6 141.9 254 139.6 253.4 138.7 252.4 137.3 250 136.9 249.1 137.6L234.6 148 233.8 135.5C233.5 135 233.2 134.6 232.8 134.1 232.2 133.2 231.1 132.6 230.3 132.5 228.6 133 227.6 134.5 227.3 136L229.1 152 215.9 161.4 212.8 129.2C212.7 127.2 211.3 126.2 210 126.4 208 126.4 207 127.9 206.7 129.4L210.5 165.4 198.7 173.9 167.2 159.9 165.8 146.4 196.3 124.5C197.7 123.5 197.9 122 196.9 120.6 196 119.2 194.4 119 193 120L165.3 139.9 163.9 123.6 178 113.5C178.9 112.9 179.3 110.5 178.3 109.1 177.4 107.8 175.4 107.9 174.4 108.5L163.1 116.7 161.3 97.9C161 97.5 161 97.5 160.7 97 160 96.1 158.9 95.5 158.1 95.4 156.4 95.9 155.4 97.4 155.6 98.6ZM193.2 177.8L196.5 179.5 196.8 182.8 199.5 210.5 199.8 213.8 197 215.7 174.7 231.7 172 233.7 169 232.4 143.6 221 140.6 219.7 140 216 137.6 188.8 137 185 139.8 183.1 162.1 167.1 164.8 165.1 168.1 166.9 193.2 177.8Z" fill="rgba(56, 128, 255, 0.83)"></path><path d="M486 297.4L493.9 281.7 500.7 291.3C501.4 292.4 503.1 292.8 504.7 292.2 505.8 291 506.2 289.2 505.6 288.2L496.8 275.3 504.1 260.8 521.8 287C523 288.6 524.7 289 525.8 287.8 527.4 287.2 527.8 285.4 526.6 283.8L507.1 254.9 513.4 241.6 547.5 239.1 555 249.8 538.3 283C538.4 283.5 538.4 284.1 538.4 284.7 538.5 285.2 539.1 286.3 539.7 286.8 541.5 287.8 543.1 287.1 543.5 285.4L558.8 255.1 567.6 268.5 560.3 284.2C559.7 284.2 559.8 284.8 559.8 285.4 559.9 286.5 560.5 287.6 561.7 288 562.9 288.5 564.5 287.8 565.5 286.6L571.3 273.9 582.7 290.4C583.3 291.5 585 292 586.6 291.3 587.7 290.1 588.1 288.4 587.5 287.3L576.8 271.8 588.5 270.9C590.2 270.8 591.2 269.1 591.1 267.9 591 266.3 589.8 264.7 588.1 264.8L573 265.9 564.2 252.5 595.5 250.2C597.1 250.1 598.2 248.9 598.1 247.2 597.9 245.5 596.7 244.5 595.1 244.6L560.4 247.1 552.3 235.9 567.5 205.1 580.3 204.2 600.4 233.6C601.1 235.2 603.4 235.6 604.4 234.4 606.1 233.7 605.9 232.1 605.3 230.4L587 203.7 603.2 202.5 612.1 215.9C612.7 217 615 217.4 616.1 216.7S617.5 213.8 616.9 212.2L609.9 202 629.5 200.6C631.2 200.5 632.2 198.7 632 197 632 195.9 630.7 194.3 629 194.5L609.5 195.9 614.8 184.2C615.3 183.1 615.2 181.4 613.4 180.4 612.3 179.9 610.1 180.7 609.6 181.8L602.8 196.4 586.6 197.5 600.8 168.4C601.2 166.7 601.1 165 599.3 164 598.2 163.6 596 164.3 595.5 165.4L579.9 198 567 198.9 547.6 170.6 554 158.3 588.6 155.8C590.3 155.7 591.3 154.5 591.2 152.8 591.1 151.2 589.9 149.6 588.2 149.7L556.9 151.9 563.7 137.4 578.8 136.3C580.5 136.2 581.5 135 581.4 133.3 581.3 131.7 580.1 130.6 578.4 130.7L566.7 131.6 575 114.7C575.5 113.5 574.7 111.4 573.6 110.9 571.9 110.4 570.2 110.6 569.8 112.3L560.9 129.8 553.4 118.5C552.2 117.5 550.5 117 549.4 117.7 548.3 118.3 547.8 119.5 547.9 120.6 547.9 120.6 547.9 121.2 548.5 121.7L558 136.1 551.2 150.7 531.8 122.9C531.1 121.2 529.4 120.8 527.8 122.1 527.3 122.6 526.8 123.2 526.8 124.4 526.9 124.9 526.9 125.5 527 126L548.3 156.5 542.4 168.2 508.3 170.6 500.1 158.3 515.2 126.9C516.2 125.1 515.5 123.5 513.8 123.1 512.6 122 511 122.7 510 124.5L496.3 153 487 139.6 493.8 125.6C494.3 124.5 493.6 122.8 492.4 121.8 490.7 121.4 489 121.5 488.6 123.2L483.2 133.7 473.1 119.3C472.4 117.6 470.8 117.8 469.1 118.4 468.6 119 468.1 120.2 468.2 121.3 468.2 121.3 468.3 121.9 468.3 122.4L479 137.9 465 138.9C463.9 139 462.3 140.3 462.4 141.9 462.5 143.6 464.3 144.6 465.4 144.5L482.7 143.3 492.1 156.6 458 159.1C456.4 159.2 455.4 161 455.5 162.7S456.8 165.4 458.5 165.2L495.9 162.5 503.5 173.8 488.3 204.6 473.8 205.7 453.6 175.7C452.4 174.7 450.7 174.2 449.1 174.9 448.6 175.5 448.1 176.7 448.2 177.8 448.2 178.3 448.2 178.9 448.8 179.4L467.1 206.2 450.9 207.3 441.5 194C440.8 192.9 439.1 192.5 437.5 193.2 436.5 194.4 436 196.1 436.7 197.1L444.2 207.8 426.3 209.1C425.2 209.2 423.6 211 423.7 212.1 423.8 213.8 425.6 215.4 426.7 215.3L444.6 214 438.7 225.1C438.7 225.6 438.8 226.2 438.8 226.7 438.9 227.9 439.5 228.9 440.1 229.5 441.8 229.9 443.5 229.2 444.5 228L451.3 213.5 467.5 212.3 453.3 241.4C452.3 243.2 453 244.8 454.2 245.3 455.9 246.3 457.6 245.6 458.6 244.4L474.2 211.8 488.7 210.8 508.2 239.1 502.3 251.3 464.9 254.1C463.2 254.2 462.2 255.4 462.3 257 462.4 258.7 463.6 259.8 465.3 259.6L499.4 257.2 492 271.7 474.7 273C473.6 273.1 472 274.9 472.2 276.6 472.3 278.2 474 279.2 475.2 279.1L489.1 278.1 480.8 295C480.8 295.6 480.8 295.6 480.9 296.1 481 297.2 481.6 298.3 482.2 298.8 483.9 299.3 485.5 298.6 486 297.4ZM495.4 210.3L493.5 207.1 495 204.2 507.2 179.1 508.7 176.2 512 176 539.4 174 542.8 173.7 544.6 176.4 560.3 199.4 562.2 202.1 560.8 205.6 548.5 230 547.1 233.5 543.7 233.8 516.4 235.7 513 236 511.1 232.7 495.4 210.3Z" fill="rgba(56, 128, 255, 0.83)"></path><path d="M776.3 489.5L782.8 463.8 789 459.9 803.3 467.9 803.6 475.3 785 494.3C784.8 494.6 784.8 494.6 784.7 494.9 784.4 495.4 784.3 496.1 785 496.9 785.8 497.3 786.6 497.4 787.3 496.7L803.5 480.1 803.7 491.5 796.7 499C796.7 499 796.5 499.2 796.5 499.2 796.2 499.8 796.2 500.5 796.8 501.3 797.3 501.8 798.4 501.7 799.1 501.1L803.9 496.4 804 504.9C804 505.6 804.7 506.3 805.6 506.5S807.3 505.6 807.4 504.6L807.2 496.4 812 500.9C812.7 501.6 813.9 501.6 814.6 500.9 814.9 500.3 815.1 499.3 814.4 498.6L807 491.5 806.9 479.8 823.6 496C824.3 496.7 825.4 496.6 826 496.2 826.5 495.4 826.7 494.4 826 493.6L806.8 475.3 806.7 467.6 820.4 459.4 827.1 463.2 834.6 488.6C834.9 489.4 835.7 489.9 836.6 489.6S837.9 488.6 837.7 487.7L831.1 465.3 841.4 471.1 844.1 480.7C844.4 481.5 845.2 482 846.4 481.9S847.7 480.8 847.5 479.9L845.3 473.3 852.9 477.4C853.7 477.9 854.7 477.4 855.2 476.5 855.7 475.7 855.4 474.8 854.6 474.4L847 470.2 853.6 468.3C854.7 468.2 855.2 467.4 854.6 466.4 854.4 465.5 853.6 465 852.7 465.3L843.1 468 832.8 462.3 855.2 456.1C856.1 455.8 856.7 454.7 856.5 453.8S855.4 452.5 854.5 452.7L828.8 460.1 822.1 456.4 822 440.2 828.4 436.4 854.1 443C855.1 443.2 855.8 442.5 856.3 441.6 856.5 440.6 855.8 439.9 854.9 439.4L832.4 433.9 842.3 428 852.2 430.6C853.2 430.8 853.9 430.1 854.4 429.2 854.4 428.5 853.9 427.5 852.9 427.3L846.5 425.6 853.7 421.2C854.3 420.8 854.5 419.8 854.3 418.9 853.6 418.2 852.6 418 852 418.4L844.8 422.8 846.4 416C846.4 415.3 845.9 414.3 845.1 414.2 844.3 413.8 843.7 414.2 843.2 415 843.2 415 843.1 415.3 843.1 415.3L840.5 425.2 830.7 431.1 836.2 408.5C836.4 407.6 836.2 406.7 835.2 406.5 834.2 406.3 833.6 406.7 833.3 407.3 833.1 407.6 833.1 407.6 833.1 407.6L826.7 433.6 820.2 437.4 806 429.4 806 422.1 824.4 402.7C825 402.3 824.9 401.2 824.5 400.6 823.8 399.9 822.7 399.9 821.9 400.6L805.8 417.3 805.5 405.8 812.6 398.4C813.3 397.7 813.5 396.7 812.7 396.2 812 395.5 810.9 395.6 810.3 396L805.6 401.1 805.5 392.6C805.3 391.7 804.6 391 803.6 390.8 803.2 390.9 802.6 391.3 802.3 391.9 802.1 392.2 802.1 392.2 802.2 392.6L802.3 401.1 797.2 396.4C796.5 395.7 795.7 395.9 795.1 396.3 794.9 396.6 794.9 396.6 794.8 396.9 794.4 397.4 794.4 398.2 794.8 398.7L802.2 405.8 802.5 417.3 785.8 401.1C785 400.6 784 400.4 783.5 401.3 783.1 401.4 783.1 401.4 782.9 401.7 782.6 402.2 782.9 403.1 783.3 403.7L802.7 422.1 802.7 429.5 788.8 437.9 782.4 434.3 775.1 408.6C774.8 407.8 773.7 407.1 772.8 407.4S771.3 408.8 771.6 409.6L778.2 432 768.1 426.4 765.1 416.7C764.9 415.8 764 415.3 763.2 415.6 762.3 415.8 761.8 416.7 762.1 417.5L763.9 424.1 756.4 419.9C755.8 419.6 754.7 419.6 754.2 420.5 753.7 421.3 754.1 422.6 754.7 422.9L762.2 427.1 755.7 429C755.3 429.1 754.8 429.3 754.7 429.5 754.4 430.1 754.5 430.5 754.6 431 754.9 431.8 755.7 432.3 756.6 432.1L766.4 429.5 776.5 435.1 754 441.3C753.6 441.4 753.4 441.7 753.1 442.2 753 442.5 752.8 442.8 752.9 443.2 753.2 444.1 754.3 444.7 755.2 444.5L780.7 437.4 787.1 441 787.4 456.9 781.1 461 755.2 454.3C754.5 454.3 753.6 454.6 753.3 455.1 753.1 455.4 753.1 455.4 753.4 455.5 752.9 456.4 753.5 457.4 754.5 457.6L777 463.2 767 469.3 757.1 466.7C756.4 466.7 755.8 467.1 755.5 467.7 755.5 467.7 755.3 467.9 755.3 467.9 754.8 468.8 755.4 469.8 756.4 470L763.2 471.6 756 476C755.5 476.1 755.4 476.4 755.2 476.7 754.9 477.2 754.9 478 755.2 478.1 755.7 479.1 756.7 479.3 757.6 479.1L764.8 474.7 763.1 481C762.9 482 763.4 483.1 764.4 483.2 765.1 483.3 766.1 482.7 766.2 482L768.7 472.1 778.6 466.2 773 488.8C772.8 489.8 773.5 490.5 774.4 491 775.1 491 776.1 490.5 776.3 489.5ZM803.3 463.9L792.4 457.8 790.7 456.9 790.7 455 790.5 442.8 790.6 440.7 792.2 439.7 802.6 433.5 804.2 432.5 805.9 433.5 816.8 439.5 818.5 440.4 818.6 442.3 818.8 454.5 818.8 456.4 817.1 457.6 806.6 463.9 805 464.8 803.3 463.9Z" fill="rgba(56, 128, 255, 0.83)"></path></g><defs><mask id="SvgjsMask1062"><rect width="1440" height="560" fill="#ffffff"></rect></mask><filter id="SvgjsFilter1063"><feGaussianBlur stdDeviation="1"></feGaussianBlur></filter></defs></svg>